STARTFONT 2.1
COMMENT
COMMENT Converted from OpenType font "test2.ttf" by "otf2bdf 3.0".
COMMENT
FONT -FreeType-esamanru Medium-Medium-R-Normal--17-120-100-100-P-142-ISO10646-1
SIZE 12 100 100
FONTBOUNDINGBOX 16 19 0 -5
STARTPROPERTIES 19
FOUNDRY "FreeType"
FAMILY_NAME "esamanru Medium"
WEIGHT_NAME "Medium"
SLANT "R"
SETWIDTH_NAME "Normal"
ADD_STYLE_NAME ""
PIXEL_SIZE 17
POINT_SIZE 120
RESOLUTION_X 100
RESOLUTION_Y 100
SPACING "P"
AVERAGE_WIDTH 142
CHARSET_REGISTRY "ISO10646"
CHARSET_ENCODING "1"
FONT_ASCENT 14
FONT_DESCENT 5
COPYRIGHT "Copyright (c) 2020 õŒ„ˆ. All rights reserved. Font designed by FONTRIX Inc."
_OTF_FONTFILE "test2.ttf"
_OTF_PSNAME "esamanruMedium"
ENDPROPERTIES
CHARS 12256
STARTCHAR 0020
ENCODING 32
SWIDTH 240 0
DWIDTH 4 0
BBX 0 0 0 0
BITMAP
ENDCHAR
STARTCHAR 0021
ENCODING 33
SWIDTH 240 0
DWIDTH 4 0
BBX 2 14 1 -1
BITMAP
C0
C0
C0
C0
C0
C0
C0
C0
C0
C0
C0
00
C0
C0
ENDCHAR
STARTCHAR 0022
ENCODING 34
SWIDTH 480 0
DWIDTH 8 0
BBX 6 4 1 9
BITMAP
DC
DC
D8
C8
ENDCHAR
STARTCHAR 0023
ENCODING 35
SWIDTH 840 0
DWIDTH 14 0
BBX 12 14 1 -1
BITMAP
1CC0
1CC0
1CC0
7FF0
7FF0
19C0
19C0
3980
3980
3180
FFE0
FFE0
3380
7300
ENDCHAR
STARTCHAR 0024
ENCODING 36
SWIDTH 720 0
DWIDTH 12 0
BBX 10 16 1 -3
BITMAP
0C00
7F80
FFC0
C0C0
C0C0
C000
C000
FF80
7FC0
00C0
C0C0
C0C0
FFC0
7F80
0C00
0C00
ENDCHAR
STARTCHAR 0025
ENCODING 37
SWIDTH 1020 0
DWIDTH 17 0
BBX 15 14 1 -2
BITMAP
3818
7C38
EE70
C660
EEE0
7DC0
3B80
0300
0778
0EFE
0CC6
1CCE
38FE
7078
ENDCHAR
STARTCHAR 0026
ENCODING 38
SWIDTH 720 0
DWIDTH 12 0
BBX 12 13 1 -1
BITMAP
7FC0
FFC0
C0C0
E0C0
3000
78C0
FCC0
CEC0
C7C0
C1C0
C0C0
FFE0
7F70
ENDCHAR
STARTCHAR 0027
ENCODING 39
SWIDTH 240 0
DWIDTH 4 0
BBX 2 4 1 9
BITMAP
C0
C0
C0
C0
ENDCHAR
STARTCHAR 0028
ENCODING 40
SWIDTH 360 0
DWIDTH 6 0
BBX 4 15 1 -2
BITMAP
30
70
60
E0
E0
C0
C0
C0
C0
C0
E0
E0
60
70
30
ENDCHAR
STARTCHAR 0029
ENCODING 41
SWIDTH 300 0
DWIDTH 5 0
BBX 4 15 0 -2
BITMAP
E0
60
60
70
30
30
30
30
30
30
30
70
60
60
E0
ENDCHAR
STARTCHAR 002A
ENCODING 42
SWIDTH 360 0
DWIDTH 6 0
BBX 6 5 0 8
BITMAP
30
78
FC
78
68
ENDCHAR
STARTCHAR 002B
ENCODING 43
SWIDTH 660 0
DWIDTH 11 0
BBX 9 8 1 1
BITMAP
1800
1800
1800
FF80
FF80
1800
1800
1800
ENDCHAR
STARTCHAR 002C
ENCODING 44
SWIDTH 240 0
DWIDTH 4 0
BBX 3 5 0 -4
BITMAP
60
60
60
E0
C0
ENDCHAR
STARTCHAR 002D
ENCODING 45
SWIDTH 600 0
DWIDTH 10 0
BBX 8 2 1 4
BITMAP
FF
FF
ENDCHAR
STARTCHAR 002E
ENCODING 46
SWIDTH 240 0
DWIDTH 4 0
BBX 2 3 1 -2
BITMAP
C0
C0
C0
ENDCHAR
STARTCHAR 002F
ENCODING 47
SWIDTH 540 0
DWIDTH 9 0
BBX 7 15 1 -2
BITMAP
06
0E
0C
0C
1C
18
18
38
30
70
70
60
E0
E0
C0
ENDCHAR
STARTCHAR 0030
ENCODING 48
SWIDTH 720 0
DWIDTH 12 0
BBX 10 13 1 -1
BITMAP
7F80
FFC0
C0C0
C0C0
C0C0
C0C0
C0C0
C0C0
C0C0
C0C0
C0C0
FFC0
7F80
ENDCHAR
STARTCHAR 0031
ENCODING 49
SWIDTH 360 0
DWIDTH 6 0
BBX 3 13 1 -1
BITMAP
E0
E0
60
60
60
60
60
60
60
60
60
60
60
ENDCHAR
STARTCHAR 0032
ENCODING 50
SWIDTH 720 0
DWIDTH 12 0
BBX 10 13 1 -1
BITMAP
7F80
FFC0
C0C0
C0C0
C0C0
03C0
7FC0
FE00
C000
C000
C000
FFC0
FFC0
ENDCHAR
STARTCHAR 0033
ENCODING 51
SWIDTH 720 0
DWIDTH 12 0
BBX 10 13 1 -1
BITMAP
7F80
FFC0
C0C0
C0C0
00C0
1FC0
1FC0
00C0
00C0
C0C0
C0C0
FFC0
7F80
ENDCHAR
STARTCHAR 0034
ENCODING 52
SWIDTH 780 0
DWIDTH 13 0
BBX 12 13 1 -1
BITMAP
0380
0780
0780
0D80
1D80
3980
3180
6180
E180
FFF0
FFF0
0180
0180
ENDCHAR
STARTCHAR 0035
ENCODING 53
SWIDTH 720 0
DWIDTH 12 0
BBX 10 13 1 -1
BITMAP
FFC0
FFC0
C000
C000
C000
FFC0
FFC0
00C0
00C0
C0C0
C0C0
FFC0
7FC0
ENDCHAR
STARTCHAR 0036
ENCODING 54
SWIDTH 720 0
DWIDTH 12 0
BBX 10 13 1 -1
BITMAP
7F80
FFC0
C0C0
C0C0
C000
FF80
FFC0
C0C0
C0C0
C0C0
C0C0
FFC0
7F80
ENDCHAR
STARTCHAR 0037
ENCODING 55
SWIDTH 660 0
DWIDTH 11 0
BBX 9 13 1 -1
BITMAP
FF80
FF80
0380
0300
0300
0600
0600
0E00
0C00
1C00
1800
3800
3000
ENDCHAR
STARTCHAR 0038
ENCODING 56
SWIDTH 720 0
DWIDTH 12 0
BBX 10 13 1 -1
BITMAP
7F80
FFC0
C0C0
C0C0
C0C0
FFC0
FFC0
C0C0
C0C0
C0C0
C0C0
FFC0
7F80
ENDCHAR
STARTCHAR 0039
ENCODING 57
SWIDTH 720 0
DWIDTH 12 0
BBX 10 13 1 -1
BITMAP
7F80
FFC0
C0C0
C0C0
C0C0
C0C0
FFC0
7FC0
00C0
C0C0
C0C0
FFC0
7F80
ENDCHAR
STARTCHAR 003A
ENCODING 58
SWIDTH 240 0
DWIDTH 4 0
BBX 2 10 1 0
BITMAP
C0
C0
C0
00
00
00
00
C0
C0
C0
ENDCHAR
STARTCHAR 003B
ENCODING 59
SWIDTH 240 0
DWIDTH 4 0
BBX 3 12 0 -1
BITMAP
60
60
60
00
00
00
00
00
60
60
60
C0
ENDCHAR
STARTCHAR 003C
ENCODING 60
SWIDTH 360 0
DWIDTH 6 0
BBX 5 15 0 -2
BITMAP
18
38
38
30
70
60
60
E0
60
60
70
30
38
38
18
ENDCHAR
STARTCHAR 003D
ENCODING 61
SWIDTH 600 0
DWIDTH 10 0
BBX 8 6 1 2
BITMAP
FF
FF
00
00
FF
FF
ENDCHAR
STARTCHAR 003E
ENCODING 62
SWIDTH 360 0
DWIDTH 6 0
BBX 5 15 0 -2
BITMAP
E0
60
60
70
30
38
18
18
18
38
30
70
70
60
E0
ENDCHAR
STARTCHAR 003F
ENCODING 63
SWIDTH 720 0
DWIDTH 12 0
BBX 10 14 1 -1
BITMAP
7F80
FFC0
C0C0
C0C0
C0C0
01C0
0780
0E00
0C00
0C00
0C00
0000
0C00
0C00
ENDCHAR
STARTCHAR 0040
ENCODING 64
SWIDTH 1020 0
DWIDTH 17 0
BBX 15 16 1 -4
BITMAP
7FFE
FFFE
C006
C006
CFE6
CFE6
CC66
CC66
CC66
CC66
CFFE
CF7E
C000
C000
FFF0
7FF0
ENDCHAR
STARTCHAR 0041
ENCODING 65
SWIDTH 780 0
DWIDTH 13 0
BBX 13 13 0 -1
BITMAP
0700
0700
0F80
0D80
1D80
18C0
18C0
38E0
3FE0
7FE0
7070
6030
E038
ENDCHAR
STARTCHAR 0042
ENCODING 66
SWIDTH 720 0
DWIDTH 12 0
BBX 10 13 1 -1
BITMAP
FF80
FFC0
C0C0
C0C0
C0C0
FF80
FFC0
C0C0
C0C0
C0C0
C0C0
FFC0
FFC0
ENDCHAR
STARTCHAR 0043
ENCODING 67
SWIDTH 780 0
DWIDTH 13 0
BBX 11 13 1 -1
BITMAP
7FE0
FFE0
C060
C060
C060
C000
C000
C000
C060
C060
C060
FFE0
7FE0
ENDCHAR
STARTCHAR 0044
ENCODING 68
SWIDTH 780 0
DWIDTH 13 0
BBX 11 13 1 -1
BITMAP
FFC0
FFE0
C060
C060
C060
C060
C060
C060
C060
C060
C060
FFE0
FFC0
ENDCHAR
STARTCHAR 0045
ENCODING 69
SWIDTH 720 0
DWIDTH 12 0
BBX 10 13 1 -1
BITMAP
7FC0
FFC0
C000
C000
C000
FF80
FF80
C000
C000
C000
C000
FFC0
7FC0
ENDCHAR
STARTCHAR 0046
ENCODING 70
SWIDTH 600 0
DWIDTH 10 0
BBX 9 13 1 -1
BITMAP
7F80
FF80
C000
C000
C000
C000
FF00
FF00
C000
C000
C000
C000
C000
ENDCHAR
STARTCHAR 0047
ENCODING 71
SWIDTH 780 0
DWIDTH 13 0
BBX 11 13 1 -1
BITMAP
7FE0
FFE0
C060
C060
C000
C3E0
C3E0
C060
C060
C060
C060
FFE0
7FE0
ENDCHAR
STARTCHAR 0048
ENCODING 72
SWIDTH 780 0
DWIDTH 13 0
BBX 11 13 1 -1
BITMAP
C060
C060
C060
C060
C060
FFE0
FFE0
C060
C060
C060
C060
C060
C060
ENDCHAR
STARTCHAR 0049
ENCODING 73
SWIDTH 240 0
DWIDTH 4 0
BBX 2 13 1 -1
BITMAP
C0
C0
C0
C0
C0
C0
C0
C0
C0
C0
C0
C0
C0
ENDCHAR
STARTCHAR 004A
ENCODING 74
SWIDTH 540 0
DWIDTH 9 0
BBX 7 13 1 -1
BITMAP
06
06
06
06
06
06
06
06
06
06
06
FE
FE
ENDCHAR
STARTCHAR 004B
ENCODING 75
SWIDTH 720 0
DWIDTH 12 0
BBX 10 13 1 -1
BITMAP
C1C0
C380
C700
CE00
DC00
F800
FC00
EE00
C600
C700
C380
C1C0
C1C0
ENDCHAR
STARTCHAR 004C
ENCODING 76
SWIDTH 600 0
DWIDTH 10 0
BBX 8 13 1 -1
BITMAP
C0
C0
C0
C0
C0
C0
C0
C0
C0
C0
C0
FF
7F
ENDCHAR
STARTCHAR 004D
ENCODING 77
SWIDTH 900 0
DWIDTH 15 0
BBX 13 13 1 -1
BITMAP
F038
F078
F078
D878
D8D8
D8D8
D8D8
CCD8
CD98
CD98
CD98
C798
C718
ENDCHAR
STARTCHAR 004E
ENCODING 78
SWIDTH 780 0
DWIDTH 13 0
BBX 11 13 1 -1
BITMAP
F060
F060
F860
D860
DC60
CC60
CE60
C660
C760
C360
C3E0
C1E0
C0E0
ENDCHAR
STARTCHAR 004F
ENCODING 79
SWIDTH 780 0
DWIDTH 13 0
BBX 11 13 1 -1
BITMAP
7FE0
FFE0
C060
C060
C060
C060
C060
C060
C060
C060
C060
FFE0
7FE0
ENDCHAR
STARTCHAR 0050
ENCODING 80
SWIDTH 720 0
DWIDTH 12 0
BBX 10 13 1 -1
BITMAP
FF80
FFC0
C0C0
C0C0
C0C0
C0C0
FFC0
FF80
C000
C000
C000
C000
C000
ENDCHAR
STARTCHAR 0051
ENCODING 81
SWIDTH 780 0
DWIDTH 13 0
BBX 11 15 1 -3
BITMAP
7FE0
FFE0
C060
C060
C060
C060
C060
C060
C060
C060
C060
FFE0
7FE0
0180
01C0
ENDCHAR
STARTCHAR 0052
ENCODING 82
SWIDTH 720 0
DWIDTH 12 0
BBX 11 13 1 -1
BITMAP
FF80
FFC0
C0C0
C0C0
C0C0
C0C0
FFC0
FF80
C300
C380
C180
C1C0
C0E0
ENDCHAR
STARTCHAR 0053
ENCODING 83
SWIDTH 720 0
DWIDTH 12 0
BBX 10 13 1 -1
BITMAP
7FC0
FFC0
C0C0
C0C0
C000
FFC0
7FC0
00C0
00C0
C0C0
C0C0
FFC0
7FC0
ENDCHAR
STARTCHAR 0054
ENCODING 84
SWIDTH 720 0
DWIDTH 12 0
BBX 10 13 1 -1
BITMAP
FFC0
FFC0
0C00
0C00
0C00
0C00
0C00
0C00
0C00
0C00
0C00
0C00
0C00
ENDCHAR
STARTCHAR 0055
ENCODING 85
SWIDTH 780 0
DWIDTH 13 0
BBX 11 13 1 -1
BITMAP
C060
C060
C060
C060
C060
C060
C060
C060
C060
C060
C060
FFE0
7FE0
ENDCHAR
STARTCHAR 0056
ENCODING 86
SWIDTH 720 0
DWIDTH 12 0
BBX 12 13 0 -1
BITMAP
E030
6070
6060
7060
30E0
30C0
18C0
19C0
1980
0D80
0F80
0F00
0700
ENDCHAR
STARTCHAR 0057
ENCODING 87
SWIDTH 960 0
DWIDTH 16 0
BBX 16 13 0 -1
BITMAP
E1C3
63C7
63C7
63C6
7366
7366
366E
366E
366C
363C
3E3C
1C3C
1C3C
ENDCHAR
STARTCHAR 0058
ENCODING 88
SWIDTH 780 0
DWIDTH 13 0
BBX 13 13 0 -1
BITMAP
7030
3070
38E0
1DC0
0F80
0700
0700
0F80
1DC0
18E0
3860
7070
E038
ENDCHAR
STARTCHAR 0059
ENCODING 89
SWIDTH 720 0
DWIDTH 12 0
BBX 12 13 0 -1
BITMAP
E070
7060
30E0
38C0
1980
1F80
0F00
0700
0600
0600
0600
0600
0600
ENDCHAR
STARTCHAR 005A
ENCODING 90
SWIDTH 780 0
DWIDTH 13 0
BBX 11 13 1 -1
BITMAP
FFC0
FFC0
01C0
0380
0700
0E00
0C00
1800
3000
7000
E000
FFE0
FFE0
ENDCHAR
STARTCHAR 005B
ENCODING 91
SWIDTH 360 0
DWIDTH 6 0
BBX 4 15 1 -2
BITMAP
F0
F0
C0
C0
C0
C0
C0
C0
C0
C0
C0
C0
C0
F0
F0
ENDCHAR
STARTCHAR 005C
ENCODING 92
SWIDTH 660 0
DWIDTH 11 0
BBX 9 15 1 -2
BITMAP
C000
E000
6000
7000
3000
3800
1800
1C00
0C00
0E00
0600
0700
0300
0380
0180
ENDCHAR
STARTCHAR 005D
ENCODING 93
SWIDTH 360 0
DWIDTH 6 0
BBX 3 15 1 -2
BITMAP
E0
E0
60
60
60
60
60
60
60
60
60
60
60
E0
E0
ENDCHAR
STARTCHAR 005E
ENCODING 94
SWIDTH 540 0
DWIDTH 9 0
BBX 7 6 1 8
BITMAP
38
38
6C
6C
CE
C6
ENDCHAR
STARTCHAR 005F
ENCODING 95
SWIDTH 600 0
DWIDTH 10 0
BBX 8 2 1 -2
BITMAP
FF
FF
ENDCHAR
STARTCHAR 0060
ENCODING 96
SWIDTH 240 0
DWIDTH 4 0
BBX 3 4 1 9
BITMAP
C0
C0
60
60
ENDCHAR
STARTCHAR 0061
ENCODING 97
SWIDTH 660 0
DWIDTH 11 0
BBX 9 9 1 -1
BITMAP
7F00
FF80
C180
FF80
FF80
C180
C180
FF80
7F00
ENDCHAR
STARTCHAR 0062
ENCODING 98
SWIDTH 660 0
DWIDTH 11 0
BBX 9 14 1 -1
BITMAP
C000
C000
C000
C000
C000
FF00
FF80
C180
C180
C180
C180
C180
FF80
FF00
ENDCHAR
STARTCHAR 0063
ENCODING 99
SWIDTH 660 0
DWIDTH 11 0
BBX 9 9 1 -1
BITMAP
7F00
FF80
C180
C000
C000
C180
C180
FF80
7F00
ENDCHAR
STARTCHAR 0064
ENCODING 100
SWIDTH 660 0
DWIDTH 11 0
BBX 9 14 1 -1
BITMAP
0180
0180
0180
0180
0180
7F80
FF80
C180
C180
C180
C180
C180
FF80
7F80
ENDCHAR
STARTCHAR 0065
ENCODING 101
SWIDTH 660 0
DWIDTH 11 0
BBX 9 9 1 -1
BITMAP
7F00
FF80
C180
C180
FF80
FF80
C180
FF80
7F00
ENDCHAR
STARTCHAR 0066
ENCODING 102
SWIDTH 540 0
DWIDTH 9 0
BBX 7 14 1 -1
BITMAP
3E
3E
30
30
30
FE
FE
30
30
30
30
30
30
30
ENDCHAR
STARTCHAR 0067
ENCODING 103
SWIDTH 660 0
DWIDTH 11 0
BBX 9 13 1 -5
BITMAP
7F00
FF80
C180
C180
C180
C180
C180
FF80
7F80
0180
C180
FF80
7F00
ENDCHAR
STARTCHAR 0068
ENCODING 104
SWIDTH 660 0
DWIDTH 11 0
BBX 9 14 1 -1
BITMAP
C000
C000
C000
C000
C000
FF00
FF80
C180
C180
C180
C180
C180
C180
C180
ENDCHAR
STARTCHAR 0069
ENCODING 105
SWIDTH 240 0
DWIDTH 4 0
BBX 2 14 1 -1
BITMAP
C0
C0
00
00
00
C0
C0
C0
C0
C0
C0
C0
C0
C0
ENDCHAR
STARTCHAR 006A
ENCODING 106
SWIDTH 300 0
DWIDTH 5 0
BBX 4 17 0 -4
BITMAP
30
30
00
00
00
30
30
30
30
30
30
30
30
30
30
F0
F0
ENDCHAR
STARTCHAR 006B
ENCODING 107
SWIDTH 600 0
DWIDTH 10 0
BBX 9 14 1 -1
BITMAP
C000
C000
C000
C000
C000
C700
CE00
DC00
F800
FC00
EC00
CE00
C700
C380
ENDCHAR
STARTCHAR 006C
ENCODING 108
SWIDTH 240 0
DWIDTH 4 0
BBX 2 14 1 -1
BITMAP
C0
C0
C0
C0
C0
C0
C0
C0
C0
C0
C0
C0
C0
C0
ENDCHAR
STARTCHAR 006D
ENCODING 109
SWIDTH 840 0
DWIDTH 14 0
BBX 12 9 1 -1
BITMAP
FFF0
FFF0
C630
C630
C630
C630
C630
C630
C630
ENDCHAR
STARTCHAR 006E
ENCODING 110
SWIDTH 660 0
DWIDTH 11 0
BBX 9 9 1 -1
BITMAP
FF00
FF80
C180
C180
C180
C180
C180
C180
C180
ENDCHAR
STARTCHAR 006F
ENCODING 111
SWIDTH 660 0
DWIDTH 11 0
BBX 9 9 1 -1
BITMAP
7F00
FF80
C180
C180
C180
C180
C180
FF80
7F00
ENDCHAR
STARTCHAR 0070
ENCODING 112
SWIDTH 660 0
DWIDTH 11 0
BBX 9 13 1 -5
BITMAP
FF00
FF80
C180
C180
C180
C180
C180
FF80
FF00
C000
C000
C000
C000
ENDCHAR
STARTCHAR 0071
ENCODING 113
SWIDTH 660 0
DWIDTH 11 0
BBX 9 13 1 -5
BITMAP
7F80
FF80
C180
C180
C180
C180
C180
FF80
7F80
0180
0180
0180
0180
ENDCHAR
STARTCHAR 0072
ENCODING 114
SWIDTH 420 0
DWIDTH 7 0
BBX 6 9 1 -1
BITMAP
7C
FC
C0
C0
C0
C0
C0
C0
C0
ENDCHAR
STARTCHAR 0073
ENCODING 115
SWIDTH 660 0
DWIDTH 11 0
BBX 9 9 1 -1
BITMAP
7F00
FF80
C180
FF00
7F80
0180
C180
FF80
7F00
ENDCHAR
STARTCHAR 0074
ENCODING 116
SWIDTH 540 0
DWIDTH 9 0
BBX 7 13 1 -1
BITMAP
30
30
30
30
FE
FE
30
30
30
30
30
3E
3E
ENDCHAR
STARTCHAR 0075
ENCODING 117
SWIDTH 660 0
DWIDTH 11 0
BBX 9 9 1 -1
BITMAP
C180
C180
C180
C180
C180
C180
C180
FF80
7F00
ENDCHAR
STARTCHAR 0076
ENCODING 118
SWIDTH 600 0
DWIDTH 10 0
BBX 10 9 0 -1
BITMAP
E1C0
6180
6180
3380
3300
3B00
1E00
1E00
1E00
ENDCHAR
STARTCHAR 0077
ENCODING 119
SWIDTH 840 0
DWIDTH 14 0
BBX 14 9 0 -1
BITMAP
E38C
678C
679C
66D8
76D8
3CD8
3CF8
3C70
3C70
ENDCHAR
STARTCHAR 0078
ENCODING 120
SWIDTH 600 0
DWIDTH 10 0
BBX 10 9 0 -1
BITMAP
61C0
3380
3F00
1E00
0E00
1F00
3B00
7180
E1C0
ENDCHAR
STARTCHAR 0079
ENCODING 121
SWIDTH 600 0
DWIDTH 10 0
BBX 10 13 0 -5
BITMAP
E1C0
6180
7180
3300
3300
1E00
1E00
1E00
0C00
1C00
1800
3800
3000
ENDCHAR
STARTCHAR 007A
ENCODING 122
SWIDTH 660 0
DWIDTH 11 0
BBX 9 9 1 -1
BITMAP
FF80
FF80
0780
0E00
1C00
3800
F000
FF80
FF80
ENDCHAR
STARTCHAR 007B
ENCODING 123
SWIDTH 420 0
DWIDTH 7 0
BBX 5 15 1 -2
BITMAP
38
78
60
60
60
60
E0
E0
60
60
60
60
60
78
38
ENDCHAR
STARTCHAR 007C
ENCODING 124
SWIDTH 240 0
DWIDTH 4 0
BBX 2 16 1 -3
BITMAP
C0
C0
C0
C0
C0
C0
C0
C0
C0
C0
C0
C0
C0
C0
C0
C0
ENDCHAR
STARTCHAR 007D
ENCODING 125
SWIDTH 360 0
DWIDTH 6 0
BBX 4 15 1 -2
BITMAP
E0
E0
60
60
60
60
70
70
60
60
60
60
60
E0
E0
ENDCHAR
STARTCHAR 007E
ENCODING 126
SWIDTH 660 0
DWIDTH 11 0
BBX 9 4 1 4
BITMAP
7100
F980
DF80
4700
ENDCHAR
STARTCHAR 00A1
ENCODING 161
SWIDTH 900 0
DWIDTH 15 0
BBX 3 14 6 -2
BITMAP
E0
E0
E0
00
C0
C0
C0
C0
C0
C0
C0
C0
C0
E0
ENDCHAR
STARTCHAR 00A4
ENCODING 164
SWIDTH 900 0
DWIDTH 15 0
BBX 13 13 1 -1
BITMAP
4010
E7B8
7FF0
38E0
7070
6030
6030
6030
7070
38E0
7FF0
E7B8
4010
ENDCHAR
STARTCHAR 00A7
ENCODING 167
SWIDTH 480 0
DWIDTH 8 0
BBX 6 16 1 -3
BITMAP
70
F8
9C
DC
60
70
F8
CC
E4
7C
78
38
DC
CC
FC
78
ENDCHAR
STARTCHAR 00A8
ENCODING 168
SWIDTH 960 0
DWIDTH 16 0
BBX 8 3 4 10
BITMAP
C3
C3
C3
ENDCHAR
STARTCHAR 00AA
ENCODING 170
SWIDTH 900 0
DWIDTH 15 0
BBX 10 14 3 -2
BITMAP
1E00
3F00
6180
6180
0780
3F80
7980
6380
6780
7F80
3800
0000
FFC0
FFC0
ENDCHAR
STARTCHAR 00AD
ENCODING 173
SWIDTH 600 0
DWIDTH 10 0
BBX 8 2 1 4
BITMAP
FF
FF
ENDCHAR
STARTCHAR 00AE
ENCODING 174
SWIDTH 900 0
DWIDTH 15 0
BBX 14 14 1 -2
BITMAP
07C0
1C60
3010
6FE8
C868
C864
CFE4
C984
C8C4
C8CC
6868
7018
3830
0FC0
ENDCHAR
STARTCHAR 00B0
ENCODING 176
SWIDTH 480 0
DWIDTH 8 0
BBX 4 4 2 9
BITMAP
60
90
90
60
ENDCHAR
STARTCHAR 00B1
ENCODING 177
SWIDTH 660 0
DWIDTH 11 0
BBX 9 11 1 0
BITMAP
1800
1800
1800
FF80
FF80
1800
1800
1800
0000
FF80
FF80
ENDCHAR
STARTCHAR 00B2
ENCODING 178
SWIDTH 480 0
DWIDTH 8 0
BBX 4 5 1 8
BITMAP
E0
A0
20
C0
F0
ENDCHAR
STARTCHAR 00B3
ENCODING 179
SWIDTH 480 0
DWIDTH 8 0
BBX 3 5 1 8
BITMAP
E0
A0
40
A0
E0
ENDCHAR
STARTCHAR 00B4
ENCODING 180
SWIDTH 900 0
DWIDTH 15 0
BBX 4 3 6 10
BITMAP
30
60
C0
ENDCHAR
STARTCHAR 00B6
ENCODING 182
SWIDTH 900 0
DWIDTH 15 0
BBX 10 15 2 -2
BITMAP
3EC0
7EC0
E6C0
C6C0
C6C0
E6C0
7EC0
3EC0
06C0
06C0
06C0
06C0
06C0
06C0
06C0
ENDCHAR
STARTCHAR 00B7
ENCODING 183
SWIDTH 480 0
DWIDTH 8 0
BBX 2 3 3 4
BITMAP
C0
C0
C0
ENDCHAR
STARTCHAR 00B8
ENCODING 184
SWIDTH 480 0
DWIDTH 8 0
BBX 3 4 2 -3
BITMAP
60
E0
60
E0
ENDCHAR
STARTCHAR 00B9
ENCODING 185
SWIDTH 480 0
DWIDTH 8 0
BBX 2 5 1 8
BITMAP
40
C0
40
40
40
ENDCHAR
STARTCHAR 00BA
ENCODING 186
SWIDTH 900 0
DWIDTH 15 0
BBX 10 13 3 -1
BITMAP
1E00
7F00
6300
C180
C180
C180
C180
6300
7F00
1C00
0000
FFC0
FFC0
ENDCHAR
STARTCHAR 00BC
ENCODING 188
SWIDTH 960 0
DWIDTH 16 0
BBX 13 15 2 -3
BITMAP
3000
F030
3070
3060
30C0
3180
3300
0600
0E30
0C70
18F0
30B0
61B0
C1F8
C030
ENDCHAR
STARTCHAR 00BD
ENCODING 189
SWIDTH 900 0
DWIDTH 15 0
BBX 12 15 2 -2
BITMAP
3000
F070
3060
30C0
3180
3300
3700
0600
0CE0
19B0
3030
3060
60C0
C180
81F0
ENDCHAR
STARTCHAR 00BE
ENCODING 190
SWIDTH 900 0
DWIDTH 15 0
BBX 13 16 1 -3
BITMAP
3800
4C18
0C30
3C60
3CE0
04C0
C580
7B00
0700
0630
0C70
1870
30F0
30B0
61F8
4030
ENDCHAR
STARTCHAR 00BF
ENCODING 191
SWIDTH 960 0
DWIDTH 16 0
BBX 7 15 5 -2
BITMAP
18
18
18
00
00
18
18
38
70
70
E0
E0
E4
FE
7C
ENDCHAR
STARTCHAR 00C6
ENCODING 198
SWIDTH 900 0
DWIDTH 15 0
BBX 13 13 1 -1
BITMAP
07F8
07F8
0700
0F00
0F00
1BF0
1BF0
3F00
3F00
6300
6300
C3F8
C3F8
ENDCHAR
STARTCHAR 00D0
ENCODING 208
SWIDTH 900 0
DWIDTH 15 0
BBX 12 13 1 -1
BITMAP
3F80
3FC0
30E0
3070
3030
3030
FE30
FE30
3030
3070
30E0
3FC0
3F80
ENDCHAR
STARTCHAR 00D7
ENCODING 215
SWIDTH 600 0
DWIDTH 10 0
BBX 8 8 1 1
BITMAP
C6
EF
7E
3C
7C
FE
E6
40
ENDCHAR
STARTCHAR 00D8
ENCODING 216
SWIDTH 900 0
DWIDTH 15 0
BBX 12 14 2 -1
BITMAP
0020
1F70
3FE0
71C0
61E0
E3E0
C760
CE60
CC60
F8E0
70C0
71C0
FF80
CF00
ENDCHAR
STARTCHAR 00DE
ENCODING 222
SWIDTH 900 0
DWIDTH 15 0
BBX 8 13 4 -1
BITMAP
C0
C0
FC
FE
C7
C3
C3
C3
C7
FF
FC
C0
C0
ENDCHAR
STARTCHAR 00DF
ENCODING 223
SWIDTH 960 0
DWIDTH 16 0
BBX 8 15 4 -3
BITMAP
3C
7E
E6
C6
DE
DE
C6
C3
C3
C3
C7
FE
FC
C0
C0
ENDCHAR
STARTCHAR 00E6
ENCODING 230
SWIDTH 900 0
DWIDTH 15 0
BBX 12 9 1 -1
BITMAP
3DE0
7FF0
6630
3FF0
7FF0
6600
E730
7FF0
39E0
ENDCHAR
STARTCHAR 00F0
ENCODING 240
SWIDTH 900 0
DWIDTH 15 0
BBX 8 13 3 -1
BITMAP
34
7E
1C
7E
2E
3F
7F
E7
C3
C3
E7
7E
3C
ENDCHAR
STARTCHAR 00F7
ENCODING 247
SWIDTH 660 0
DWIDTH 11 0
BBX 9 10 1 0
BITMAP
1C00
1C00
1C00
0000
FF80
FF80
0000
1C00
1C00
1C00
ENDCHAR
STARTCHAR 00F8
ENCODING 248
SWIDTH 900 0
DWIDTH 15 0
BBX 9 12 3 -2
BITMAP
0100
3F80
7F00
6780
E780
CD80
D980
F180
7380
7F00
FE00
4000
ENDCHAR
STARTCHAR 00FE
ENCODING 254
SWIDTH 900 0
DWIDTH 15 0
BBX 8 14 4 -3
BITMAP
C0
C0
C0
FC
FE
C7
C3
C3
C3
C7
FE
FC
C0
C0
ENDCHAR
STARTCHAR 0111
ENCODING 273
SWIDTH 900 0
DWIDTH 15 0
BBX 10 13 2 -1
BITMAP
0300
1FC0
1FC0
0300
3F00
7F00
F700
E300
E300
E300
F700
7F00
3F00
ENDCHAR
STARTCHAR 0126
ENCODING 294
SWIDTH 960 0
DWIDTH 16 0
BBX 12 13 2 -1
BITMAP
30C0
30C0
FFF0
FFF0
30C0
3FC0
3FC0
30C0
30C0
30C0
30C0
30C0
30C0
ENDCHAR
STARTCHAR 0127
ENCODING 295
SWIDTH 900 0
DWIDTH 15 0
BBX 9 13 2 -1
BITMAP
3000
3000
FE00
FE00
3F00
3F80
3980
3180
3180
3180
3180
3180
3180
ENDCHAR
STARTCHAR 0131
ENCODING 305
SWIDTH 900 0
DWIDTH 15 0
BBX 2 10 6 -1
BITMAP
C0
C0
C0
C0
C0
C0
C0
C0
C0
C0
ENDCHAR
STARTCHAR 0132
ENCODING 306
SWIDTH 960 0
DWIDTH 16 0
BBX 10 13 3 -1
BITMAP
C0C0
C0C0
C0C0
C0C0
C0C0
C0C0
C0C0
C0C0
D8C0
D8C0
DDC0
CF80
C700
ENDCHAR
STARTCHAR 0133
ENCODING 307
SWIDTH 900 0
DWIDTH 15 0
BBX 7 15 4 -3
BITMAP
C6
C6
00
C6
C6
C6
C6
C6
C6
C6
C6
C6
C6
0E
0E
ENDCHAR
STARTCHAR 0138
ENCODING 312
SWIDTH 960 0
DWIDTH 16 0
BBX 9 10 4 -1
BITMAP
C700
CE00
DC00
F800
F800
F800
CC00
CE00
C700
C380
ENDCHAR
STARTCHAR 013F
ENCODING 319
SWIDTH 960 0
DWIDTH 16 0
BBX 8 13 4 -1
BITMAP
C0
C0
C0
C0
C0
CC
CC
CC
C0
C0
C0
FF
FF
ENDCHAR
STARTCHAR 0140
ENCODING 320
SWIDTH 900 0
DWIDTH 15 0
BBX 6 13 5 -1
BITMAP
C0
C0
C0
C0
C0
DC
DC
DC
C0
C0
C0
C0
C0
ENDCHAR
STARTCHAR 0141
ENCODING 321
SWIDTH 900 0
DWIDTH 15 0
BBX 10 13 2 -1
BITMAP
3000
3000
3000
3C00
3C00
3800
7000
F000
3000
3000
3000
3FC0
3FC0
ENDCHAR
STARTCHAR 0142
ENCODING 322
SWIDTH 900 0
DWIDTH 15 0
BBX 8 13 3 -1
BITMAP
18
18
18
1B
1F
1C
18
38
F8
58
18
18
18
ENDCHAR
STARTCHAR 0149
ENCODING 329
SWIDTH 960 0
DWIDTH 16 0
BBX 11 12 2 -1
BITMAP
6000
6000
DFC0
9FE0
1CE0
1860
1860
1860
1860
1860
1860
1860
ENDCHAR
STARTCHAR 014A
ENCODING 330
SWIDTH 900 0
DWIDTH 15 0
BBX 9 13 3 -2
BITMAP
CE00
FF80
F380
E180
C180
C180
C180
C180
C180
C380
C780
CF00
0E00
ENDCHAR
STARTCHAR 014B
ENCODING 331
SWIDTH 900 0
DWIDTH 15 0
BBX 7 11 4 -3
BITMAP
DC
FE
E6
C6
C6
C6
C6
C6
C6
0E
0E
ENDCHAR
STARTCHAR 0152
ENCODING 338
SWIDTH 900 0
DWIDTH 15 0
BBX 13 13 1 -1
BITMAP
1FF8
7FF8
6300
E300
C300
C3F8
C3F8
C300
C300
E300
6300
7FF8
1FF8
ENDCHAR
STARTCHAR 0153
ENCODING 339
SWIDTH 900 0
DWIDTH 15 0
BBX 12 10 2 -1
BITMAP
39C0
7FE0
EF60
C630
C7F0
C7F0
C600
EF70
7FE0
39C0
ENDCHAR
STARTCHAR 0166
ENCODING 358
SWIDTH 900 0
DWIDTH 15 0
BBX 9 13 3 -1
BITMAP
FF80
FF80
1800
1800
1800
7F00
7F00
1800
1800
1800
1800
1800
1800
ENDCHAR
STARTCHAR 0167
ENCODING 359
SWIDTH 900 0
DWIDTH 15 0
BBX 6 12 4 -1
BITMAP
30
3C
F8
B0
30
FC
FC
30
30
30
3C
3C
ENDCHAR
STARTCHAR 02C7
ENCODING 711
SWIDTH 900 0
DWIDTH 15 0
BBX 7 3 4 10
BITMAP
C6
3C
10
ENDCHAR
STARTCHAR 02D0
ENCODING 720
SWIDTH 480 0
DWIDTH 8 0
BBX 4 8 2 2
BITMAP
F0
60
40
00
00
40
60
F0
ENDCHAR
STARTCHAR 02D8
ENCODING 728
SWIDTH 900 0
DWIDTH 15 0
BBX 7 3 4 11
BITMAP
C6
7E
3C
ENDCHAR
STARTCHAR 02D9
ENCODING 729
SWIDTH 900 0
DWIDTH 15 0
BBX 3 3 6 10
BITMAP
40
E0
C0
ENDCHAR
STARTCHAR 02DA
ENCODING 730
SWIDTH 960 0
DWIDTH 16 0
BBX 4 4 6 9
BITMAP
60
B0
B0
60
ENDCHAR
STARTCHAR 02DB
ENCODING 731
SWIDTH 480 0
DWIDTH 8 0
BBX 3 3 3 -2
BITMAP
80
E0
E0
ENDCHAR
STARTCHAR 02DD
ENCODING 733
SWIDTH 900 0
DWIDTH 15 0
BBX 6 3 5 10
BITMAP
34
6C
D0
ENDCHAR
STARTCHAR 0391
ENCODING 913
SWIDTH 900 0
DWIDTH 15 0
BBX 12 14 1 -1
BITMAP
00E0
00E0
01E0
03E0
0360
0770
0670
0E70
1C70
1FF0
3FF0
3030
7030
E030
ENDCHAR
STARTCHAR 0392
ENCODING 914
SWIDTH 900 0
DWIDTH 15 0
BBX 10 14 2 -1
BITMAP
1F80
1FC0
19C0
30C0
30C0
31C0
7F80
7F80
61C0
60C0
E0C0
C1C0
FFC0
FF80
ENDCHAR
STARTCHAR 0393
ENCODING 915
SWIDTH 900 0
DWIDTH 15 0
BBX 11 14 2 -1
BITMAP
0FE0
1FE0
1860
1860
1800
3800
3000
3000
7000
7000
6000
6000
E000
C000
ENDCHAR
STARTCHAR 0394
ENCODING 916
SWIDTH 960 0
DWIDTH 16 0
BBX 13 14 1 -1
BITMAP
0038
0078
00F8
00F8
01B8
03B8
0738
0638
0C38
1C38
3838
3038
7FF8
FFF8
ENDCHAR
STARTCHAR 0395
ENCODING 917
SWIDTH 900 0
DWIDTH 15 0
BBX 11 14 2 -1
BITMAP
0FE0
0FE0
1C00
1800
1800
3800
3FC0
3F80
3000
7000
6000
6000
FF00
FF00
ENDCHAR
STARTCHAR 0396
ENCODING 918
SWIDTH 900 0
DWIDTH 15 0
BBX 11 14 2 -1
BITMAP
1FE0
1FE0
00E0
01C0
0380
0700
0600
0E00
1C00
3800
7000
E000
FF80
FF80
ENDCHAR
STARTCHAR 0397
ENCODING 919
SWIDTH 900 0
DWIDTH 15 0
BBX 13 14 1 -1
BITMAP
0C18
1818
1818
1830
1830
3830
3FF0
3FE0
3060
6060
6060
60C0
E0C0
C0C0
ENDCHAR
STARTCHAR 0398
ENCODING 920
SWIDTH 960 0
DWIDTH 16 0
BBX 11 15 2 -2
BITMAP
0F80
1FC0
38E0
3060
7060
6060
E960
EF60
FF60
F1E0
E0E0
E1C0
73C0
7F80
1E00
ENDCHAR
STARTCHAR 0399
ENCODING 921
SWIDTH 900 0
DWIDTH 15 0
BBX 5 14 5 -1
BITMAP
18
18
38
38
30
30
30
30
70
60
60
60
60
E0
ENDCHAR
STARTCHAR 039A
ENCODING 922
SWIDTH 900 0
DWIDTH 15 0
BBX 11 14 2 -1
BITMAP
38E0
39C0
3380
3300
3600
3E00
3C00
7C00
6C00
6E00
6700
6300
6380
E1C0
ENDCHAR
STARTCHAR 039B
ENCODING 923
SWIDTH 960 0
DWIDTH 16 0
BBX 10 14 2 -1
BITMAP
01C0
03C0
03C0
07C0
07C0
0DC0
0DC0
19C0
39C0
31C0
71C0
61C0
E1C0
C1C0
ENDCHAR
STARTCHAR 039C
ENCODING 924
SWIDTH 900 0
DWIDTH 15 0
BBX 13 14 1 -1
BITMAP
3838
3838
3878
3878
7C78
7CF8
6CF0
6DB0
6DB0
6F30
6F30
E670
C660
C660
ENDCHAR
STARTCHAR 039D
ENCODING 925
SWIDTH 900 0
DWIDTH 15 0
BBX 11 14 2 -1
BITMAP
3860
3860
3C60
3C60
7CE0
7CE0
66C0
66C0
66C0
67C0
E3C0
E380
C380
C180
ENDCHAR
STARTCHAR 039E
ENCODING 926
SWIDTH 900 0
DWIDTH 15 0
BBX 11 14 2 -1
BITMAP
1FE0
1FC0
1840
0000
0000
0000
3F80
3F80
0000
0000
0000
6180
7F80
FF80
ENDCHAR
STARTCHAR 039F
ENCODING 927
SWIDTH 900 0
DWIDTH 15 0
BBX 11 14 2 -1
BITMAP
0F00
1FC0
39C0
70E0
60E0
E0E0
E0E0
E0E0
E0E0
E0C0
E1C0
7380
7F80
1E00
ENDCHAR
STARTCHAR 03A0
ENCODING 928
SWIDTH 900 0
DWIDTH 15 0
BBX 11 14 2 -1
BITMAP
7FE0
7FE0
30C0
30C0
70C0
70C0
61C0
6180
6180
6180
E180
C180
C380
C300
ENDCHAR
STARTCHAR 03A1
ENCODING 929
SWIDTH 960 0
DWIDTH 16 0
BBX 10 14 3 -1
BITMAP
3F80
3FC0
31C0
30C0
30C0
71C0
7FC0
7F80
6000
6000
6000
E000
C000
C000
ENDCHAR
STARTCHAR 03A3
ENCODING 931
SWIDTH 900 0
DWIDTH 15 0
BBX 11 14 2 -1
BITMAP
3FE0
3FE0
3800
1C00
0C00
0E00
0600
0E00
1C00
3800
3000
7000
FF80
FF80
ENDCHAR
STARTCHAR 03A4
ENCODING 932
SWIDTH 900 0
DWIDTH 15 0
BBX 9 14 4 -1
BITMAP
FF80
FF00
1800
1800
3800
3800
3000
3000
3000
3000
7000
6000
6000
6000
ENDCHAR
STARTCHAR 03A5
ENCODING 933
SWIDTH 900 0
DWIDTH 15 0
BBX 9 14 4 -1
BITMAP
C380
EF80
7F00
3C00
3800
3800
3000
3000
3000
3000
6000
6000
6000
6000
ENDCHAR
STARTCHAR 03A6
ENCODING 934
SWIDTH 900 0
DWIDTH 15 0
BBX 12 14 2 -1
BITMAP
0300
1F80
3FC0
72E0
6660
C630
C630
C630
C660
CC60
7CE0
7FC0
0F00
0C00
ENDCHAR
STARTCHAR 03A7
ENCODING 935
SWIDTH 900 0
DWIDTH 15 0
BBX 11 14 2 -1
BITMAP
3860
18E0
1DC0
0D80
0F80
0F00
0600
0E00
1F00
1B00
3B80
7180
6180
E1C0
ENDCHAR
STARTCHAR 03A8
ENCODING 936
SWIDTH 960 0
DWIDTH 16 0
BBX 13 14 2 -1
BITMAP
E338
6730
6630
6630
E670
E660
E660
E6E0
FFC0
3F80
0C00
0C00
0C00
0C00
ENDCHAR
STARTCHAR 03A9
ENCODING 937
SWIDTH 960 0
DWIDTH 16 0
BBX 12 14 2 -1
BITMAP
0F80
1FE0
3CE0
3070
7070
7070
7070
7070
7060
70E0
39C0
1B80
FBE0
FFC0
ENDCHAR
STARTCHAR 03B1
ENCODING 945
SWIDTH 660 0
DWIDTH 11 0
BBX 11 10 0 -1
BITMAP
1E40
3EE0
76C0
66C0
E780
E780
E700
EF00
FF80
7B00
ENDCHAR
STARTCHAR 03B2
ENCODING 946
SWIDTH 660 0
DWIDTH 11 0
BBX 10 16 0 -3
BITMAP
0780
0FC0
1DC0
19C0
39C0
3980
3780
3F00
3380
3180
7180
7180
7380
7F80
7E00
E000
ENDCHAR
STARTCHAR 03B3
ENCODING 947
SWIDTH 660 0
DWIDTH 11 0
BBX 10 10 0 -1
BITMAP
F3C0
F780
3E00
1C00
1C00
1800
1800
1800
3800
3800
ENDCHAR
STARTCHAR 03B4
ENCODING 948
SWIDTH 660 0
DWIDTH 11 0
BBX 9 15 1 -2
BITMAP
1F80
1F80
1C80
1C00
0E00
3F00
7F00
7300
E300
E300
E300
E700
EF00
7E00
3C00
ENDCHAR
STARTCHAR 03B5
ENCODING 949
SWIDTH 660 0
DWIDTH 11 0
BBX 9 10 1 -1
BITMAP
1F00
3F80
7180
3E00
7E00
F000
E000
E300
FE00
7E00
ENDCHAR
STARTCHAR 03B6
ENCODING 950
SWIDTH 660 0
DWIDTH 11 0
BBX 9 16 1 -2
BITMAP
7F80
7F80
0E00
1C00
1C00
3800
7000
6000
E000
E000
F800
7E00
1E00
0600
1E00
1C00
ENDCHAR
STARTCHAR 03B7
ENCODING 951
SWIDTH 660 0
DWIDTH 11 0
BBX 9 11 1 -3
BITMAP
3F00
3F80
7B80
7380
7380
6380
6380
6300
E300
0700
0700
ENDCHAR
STARTCHAR 03B8
ENCODING 952
SWIDTH 660 0
DWIDTH 11 0
BBX 9 15 1 -2
BITMAP
0F00
1F80
3B80
7180
7180
7180
E180
FF80
FF80
E380
C380
E300
EF00
7E00
3C00
ENDCHAR
STARTCHAR 03B9
ENCODING 953
SWIDTH 420 0
DWIDTH 7 0
BBX 4 11 1 -2
BITMAP
70
70
60
60
60
E0
E0
E0
F0
F0
F0
ENDCHAR
STARTCHAR 03BA
ENCODING 954
SWIDTH 660 0
DWIDTH 11 0
BBX 10 10 0 -1
BITMAP
39C0
3380
3700
3E00
7C00
7800
7C00
6E00
6600
E700
ENDCHAR
STARTCHAR 03BB
ENCODING 955
SWIDTH 660 0
DWIDTH 11 0
BBX 10 14 0 -1
BITMAP
1C00
1E00
0E00
0700
0F00
0F00
1F00
1B80
1980
3980
71C0
F1C0
60C0
4000
ENDCHAR
STARTCHAR 03BC
ENCODING 956
SWIDTH 660 0
DWIDTH 11 0
BBX 9 11 1 -2
BITMAP
3380
7380
7380
7300
6300
6300
E700
E700
FF80
DF80
C000
ENDCHAR
STARTCHAR 03BD
ENCODING 957
SWIDTH 720 0
DWIDTH 12 0
BBX 11 10 0 -1
BITMAP
F060
78E0
39C0
1980
1980
1D80
1F80
1F00
1F00
0E00
ENDCHAR
STARTCHAR 03BE
ENCODING 958
SWIDTH 660 0
DWIDTH 11 0
BBX 9 16 1 -3
BITMAP
3F80
3F80
1E00
3800
3000
3E00
3E00
7000
E000
E000
F000
7C00
3E00
0E00
3E00
3C00
ENDCHAR
STARTCHAR 03BF
ENCODING 959
SWIDTH 660 0
DWIDTH 11 0
BBX 8 10 1 -1
BITMAP
1E
7F
77
E3
E3
E3
E7
EF
7E
3C
ENDCHAR
STARTCHAR 03C0
ENCODING 960
SWIDTH 660 0
DWIDTH 11 0
BBX 10 11 0 -2
BITMAP
7FC0
7FC0
7380
3380
3380
7380
7300
7300
6380
E180
0100
ENDCHAR
STARTCHAR 03C1
ENCODING 961
SWIDTH 660 0
DWIDTH 11 0
BBX 9 11 1 -2
BITMAP
0F00
1F80
3B80
7180
7180
7180
7380
F780
FF00
DE00
C000
ENDCHAR
STARTCHAR 03C3
ENCODING 963
SWIDTH 660 0
DWIDTH 11 0
BBX 9 12 1 -2
BITMAP
0700
0F80
3E00
7F00
7300
E300
E300
E300
E700
EF00
7E00
3C00
ENDCHAR
STARTCHAR 03C4
ENCODING 964
SWIDTH 660 0
DWIDTH 11 0
BBX 8 10 1 -2
BITMAP
FF
FF
38
38
30
30
30
30
3C
3C
ENDCHAR
STARTCHAR 03C5
ENCODING 965
SWIDTH 660 0
DWIDTH 11 0
BBX 9 11 1 -2
BITMAP
2100
7380
7380
7380
7380
6300
E300
E700
FF00
FE00
7C00
ENDCHAR
STARTCHAR 03C6
ENCODING 966
SWIDTH 660 0
DWIDTH 11 0
BBX 11 11 0 -3
BITMAP
1FC0
7FE0
76E0
E6E0
EEE0
ECE0
FFC0
7FC0
3F00
1800
3800
ENDCHAR
STARTCHAR 03C7
ENCODING 967
SWIDTH 660 0
DWIDTH 11 0
BBX 10 10 0 -2
BITMAP
39C0
3D80
1F80
0F00
0E00
1E00
1F00
3F00
7380
F180
ENDCHAR
STARTCHAR 03C8
ENCODING 968
SWIDTH 720 0
DWIDTH 12 0
BBX 11 14 1 -3
BITMAP
0600
0600
26C0
76E0
66E0
EEE0
ECE0
ECE0
ECE0
EDE0
FFC0
7F80
1C00
1800
ENDCHAR
STARTCHAR 03C9
ENCODING 969
SWIDTH 720 0
DWIDTH 12 0
BBX 10 11 1 -2
BITMAP
1980
39C0
79C0
70C0
EEC0
ECC0
ECC0
ECC0
FFC0
7F80
7300
ENDCHAR
STARTCHAR 0401
ENCODING 1025
SWIDTH 900 0
DWIDTH 15 0
BBX 9 14 3 -1
BITMAP
3600
3600
0000
FF80
FF80
C000
C000
FE00
FE00
C000
C000
C000
FF80
FF80
ENDCHAR
STARTCHAR 0410
ENCODING 1040
SWIDTH 900 0
DWIDTH 15 0
BBX 11 13 2 -1
BITMAP
0E00
0E00
0F00
1B00
1B00
3980
3980
3180
7FC0
7FC0
60E0
E0E0
E060
ENDCHAR
STARTCHAR 0411
ENCODING 1041
SWIDTH 900 0
DWIDTH 15 0
BBX 9 13 3 -1
BITMAP
FF00
FF80
C180
C000
C000
FE00
FF00
C780
C380
C180
C780
FF00
FE00
ENDCHAR
STARTCHAR 0412
ENCODING 1042
SWIDTH 900 0
DWIDTH 15 0
BBX 9 13 3 -1
BITMAP
FF00
FF80
C780
C180
C380
FF00
FF00
C380
C180
C180
C380
FF80
FF00
ENDCHAR
STARTCHAR 0413
ENCODING 1043
SWIDTH 960 0
DWIDTH 16 0
BBX 10 13 3 -1
BITMAP
FF80
FF80
61C0
6000
6000
6000
6000
6000
6000
6000
6000
6000
6000
ENDCHAR
STARTCHAR 0414
ENCODING 1044
SWIDTH 960 0
DWIDTH 16 0
BBX 11 14 2 -3
BITMAP
7FE0
7FE0
30C0
30C0
30C0
30C0
30C0
30C0
30C0
30C0
30C0
7FE0
FFE0
E060
ENDCHAR
STARTCHAR 0415
ENCODING 1045
SWIDTH 900 0
DWIDTH 15 0
BBX 9 13 3 -1
BITMAP
FF80
FF80
C000
C000
C000
FF00
FF00
C000
C000
C000
C000
FF80
FF80
ENDCHAR
STARTCHAR 0416
ENCODING 1046
SWIDTH 900 0
DWIDTH 15 0
BBX 13 13 1 -1
BITMAP
E318
F338
3370
3360
3360
1FC0
3FE0
7370
7370
6330
6330
6330
6338
ENDCHAR
STARTCHAR 0417
ENCODING 1047
SWIDTH 960 0
DWIDTH 16 0
BBX 9 13 3 -1
BITMAP
3E00
7F80
E780
C180
0380
1F00
1F80
0180
C180
E180
F780
7F80
3E00
ENDCHAR
STARTCHAR 0418
ENCODING 1048
SWIDTH 900 0
DWIDTH 15 0
BBX 9 13 3 -1
BITMAP
C380
C380
C380
C780
C780
CD80
CD80
D980
D980
F180
F180
E180
E180
ENDCHAR
STARTCHAR 0419
ENCODING 1049
SWIDTH 900 0
DWIDTH 15 0
BBX 9 14 3 -1
BITMAP
3300
3E00
1C00
C180
C380
C780
C780
CD80
CD80
D980
F980
F180
F180
E180
ENDCHAR
STARTCHAR 041A
ENCODING 1050
SWIDTH 900 0
DWIDTH 15 0
BBX 9 13 3 -1
BITMAP
C380
C780
C700
C600
CE00
FC00
FC00
CC00
C600
C600
C700
C300
C380
ENDCHAR
STARTCHAR 041B
ENCODING 1051
SWIDTH 960 0
DWIDTH 16 0
BBX 11 13 2 -1
BITMAP
7FE0
7FE0
30C0
30C0
30C0
30C0
30C0
70C0
70C0
70C0
60C0
E0C0
40C0
ENDCHAR
STARTCHAR 041C
ENCODING 1052
SWIDTH 900 0
DWIDTH 15 0
BBX 13 13 1 -1
BITMAP
3030
7070
7870
7870
78F0
68F0
6CD8
6D98
6D98
6798
E798
C718
C718
ENDCHAR
STARTCHAR 041D
ENCODING 1053
SWIDTH 960 0
DWIDTH 16 0
BBX 10 13 3 -1
BITMAP
C0C0
C0C0
C0C0
C0C0
C0C0
FFC0
FFC0
C0C0
C0C0
C0C0
C0C0
C0C0
C0C0
ENDCHAR
STARTCHAR 041E
ENCODING 1054
SWIDTH 960 0
DWIDTH 16 0
BBX 10 13 3 -1
BITMAP
1E00
3F80
7B80
E1C0
E0C0
C0C0
C0C0
C0C0
E0C0
E1C0
7BC0
3F80
1E00
ENDCHAR
STARTCHAR 041F
ENCODING 1055
SWIDTH 900 0
DWIDTH 15 0
BBX 11 13 2 -1
BITMAP
FFE0
FFE0
60C0
60C0
60C0
60C0
60C0
60C0
60C0
60C0
60C0
60C0
60C0
ENDCHAR
STARTCHAR 0420
ENCODING 1056
SWIDTH 900 0
DWIDTH 15 0
BBX 9 13 3 -1
BITMAP
FE00
FF80
C780
C180
C180
C780
FF80
FE00
C000
C000
C000
C000
C000
ENDCHAR
STARTCHAR 0421
ENCODING 1057
SWIDTH 900 0
DWIDTH 15 0
BBX 10 13 2 -1
BITMAP
1F00
3F80
7BC0
60C0
E000
C000
C000
C000
E000
E0C0
7BC0
3F80
1F00
ENDCHAR
STARTCHAR 0422
ENCODING 1058
SWIDTH 960 0
DWIDTH 16 0
BBX 10 13 3 -1
BITMAP
FFC0
FFC0
0C00
0C00
0C00
0C00
0C00
0C00
0C00
0C00
0C00
0C00
0C00
ENDCHAR
STARTCHAR 0423
ENCODING 1059
SWIDTH 900 0
DWIDTH 15 0
BBX 10 13 3 -1
BITMAP
C1C0
E180
6380
7300
3300
3F00
1E00
1E00
0C00
0C00
5C00
7800
7000
ENDCHAR
STARTCHAR 0424
ENCODING 1060
SWIDTH 900 0
DWIDTH 15 0
BBX 12 13 2 -1
BITMAP
0600
0600
3FC0
76E0
E660
E670
C670
C670
E660
76E0
3FC0
0E00
0600
ENDCHAR
STARTCHAR 0425
ENCODING 1061
SWIDTH 900 0
DWIDTH 15 0
BBX 11 13 2 -1
BITMAP
60C0
71C0
3180
1B80
1F00
0E00
0E00
0E00
1F00
3B80
3180
71C0
E0E0
ENDCHAR
STARTCHAR 0426
ENCODING 1062
SWIDTH 900 0
DWIDTH 15 0
BBX 10 14 3 -3
BITMAP
C180
C180
C180
C180
C180
C180
C180
C180
C180
C180
C180
FF80
FFC0
00C0
ENDCHAR
STARTCHAR 0427
ENCODING 1063
SWIDTH 900 0
DWIDTH 15 0
BBX 9 13 3 -1
BITMAP
C180
C180
C180
C180
C180
C180
C180
E380
FF80
7D80
0180
0180
0180
ENDCHAR
STARTCHAR 0428
ENCODING 1064
SWIDTH 900 0
DWIDTH 15 0
BBX 12 13 1 -1
BITMAP
6630
6630
6630
6630
6630
6630
6630
6630
6630
6630
6630
FFF0
FFF0
ENDCHAR
STARTCHAR 0429
ENCODING 1065
SWIDTH 900 0
DWIDTH 15 0
BBX 13 14 2 -3
BITMAP
C660
C660
C660
C660
C660
C660
C660
C660
C660
C660
C660
FFE0
FFF0
0038
ENDCHAR
STARTCHAR 042A
ENCODING 1066
SWIDTH 960 0
DWIDTH 16 0
BBX 11 13 3 -1
BITMAP
F000
F000
3000
3000
3000
3F80
3FC0
31E0
30E0
3060
31E0
3FC0
3F80
ENDCHAR
STARTCHAR 042B
ENCODING 1067
SWIDTH 900 0
DWIDTH 15 0
BBX 11 13 2 -1
BITMAP
C060
C060
C060
C060
C060
FE60
FF60
C760
C360
C360
C760
FE60
FC60
ENDCHAR
STARTCHAR 042C
ENCODING 1068
SWIDTH 900 0
DWIDTH 15 0
BBX 9 13 3 -1
BITMAP
C000
C000
C000
C000
C000
FF00
FF00
C380
C180
C180
C380
FF00
FE00
ENDCHAR
STARTCHAR 042D
ENCODING 1069
SWIDTH 960 0
DWIDTH 16 0
BBX 10 13 3 -1
BITMAP
1E00
7F00
7380
C180
00C0
1DC0
1FC0
02C0
00C0
C1C0
F380
7F80
3E00
ENDCHAR
STARTCHAR 042E
ENCODING 1070
SWIDTH 900 0
DWIDTH 15 0
BBX 13 13 1 -1
BITMAP
C3C0
C7F0
CE30
CC38
CC38
FC18
FC18
CC18
CC38
CC38
CE30
C7F0
C3C0
ENDCHAR
STARTCHAR 042F
ENCODING 1071
SWIDTH 960 0
DWIDTH 16 0
BBX 9 13 3 -1
BITMAP
3F80
7F80
F180
C180
E180
7F80
3F80
7180
E180
E180
E180
C180
C180
ENDCHAR
STARTCHAR 0430
ENCODING 1072
SWIDTH 900 0
DWIDTH 15 0
BBX 8 10 3 -1
BITMAP
3E
7F
77
03
3F
7B
C3
EF
FF
7B
ENDCHAR
STARTCHAR 0431
ENCODING 1073
SWIDTH 960 0
DWIDTH 16 0
BBX 8 13 4 -1
BITMAP
3C
7F
60
E0
FC
FE
E7
E7
C3
E7
67
7E
3C
ENDCHAR
STARTCHAR 0432
ENCODING 1074
SWIDTH 900 0
DWIDTH 15 0
BBX 8 10 4 -1
BITMAP
FE
FF
C7
C7
FE
FF
C3
C7
FF
FE
ENDCHAR
STARTCHAR 0433
ENCODING 1075
SWIDTH 900 0
DWIDTH 15 0
BBX 8 10 4 -1
BITMAP
FE
FF
C7
C2
C0
C0
C0
C0
C0
C0
ENDCHAR
STARTCHAR 0434
ENCODING 1076
SWIDTH 900 0
DWIDTH 15 0
BBX 11 12 2 -3
BITMAP
7FC0
7FC0
3180
3180
3180
3180
3180
3180
7F80
FFC0
E0E0
C080
ENDCHAR
STARTCHAR 0435
ENCODING 1077
SWIDTH 960 0
DWIDTH 16 0
BBX 8 10 4 -1
BITMAP
3C
7E
F7
E3
FF
FF
C0
F3
7F
3E
ENDCHAR
STARTCHAR 0436
ENCODING 1078
SWIDTH 960 0
DWIDTH 16 0
BBX 11 10 2 -1
BITMAP
E660
E6E0
76C0
36C0
3F80
3FC0
76C0
66C0
66C0
66E0
ENDCHAR
STARTCHAR 0437
ENCODING 1079
SWIDTH 900 0
DWIDTH 15 0
BBX 8 10 3 -1
BITMAP
1E
3F
E7
07
1F
1F
E3
F7
7F
3E
ENDCHAR
STARTCHAR 0438
ENCODING 1080
SWIDTH 960 0
DWIDTH 16 0
BBX 8 10 4 -1
BITMAP
C7
C7
CF
CF
DF
DB
FB
F3
E3
E3
ENDCHAR
STARTCHAR 0439
ENCODING 1081
SWIDTH 960 0
DWIDTH 16 0
BBX 8 13 4 -1
BITMAP
66
7E
3C
C7
C7
CF
CF
DF
DB
FB
F3
E3
E3
ENDCHAR
STARTCHAR 043A
ENCODING 1082
SWIDTH 960 0
DWIDTH 16 0
BBX 8 10 4 -1
BITMAP
C7
C7
CE
CC
FC
FC
CC
CE
C6
C7
ENDCHAR
STARTCHAR 043B
ENCODING 1083
SWIDTH 900 0
DWIDTH 15 0
BBX 9 10 3 -1
BITMAP
FF80
FF80
6300
6300
6300
E300
E300
E300
C300
8300
ENDCHAR
STARTCHAR 043C
ENCODING 1084
SWIDTH 900 0
DWIDTH 15 0
BBX 10 10 2 -1
BITMAP
E1C0
E1C0
F1C0
F3C0
D3C0
DBC0
DEC0
CEC0
CEC0
CCC0
ENDCHAR
STARTCHAR 043D
ENCODING 1085
SWIDTH 960 0
DWIDTH 16 0
BBX 8 10 4 -1
BITMAP
C3
C3
C3
C3
FF
FF
C3
C3
C3
C3
ENDCHAR
STARTCHAR 043E
ENCODING 1086
SWIDTH 900 0
DWIDTH 15 0
BBX 8 10 3 -1
BITMAP
3C
7E
77
E3
C3
C3
E3
77
7E
3C
ENDCHAR
STARTCHAR 043F
ENCODING 1087
SWIDTH 900 0
DWIDTH 15 0
BBX 9 10 3 -1
BITMAP
FF80
FF80
6300
6300
6300
6300
6300
6300
6300
6300
ENDCHAR
STARTCHAR 0440
ENCODING 1088
SWIDTH 960 0
DWIDTH 16 0
BBX 8 13 4 -4
BITMAP
DC
FE
F7
E7
C3
C3
E7
EF
FE
DC
C0
C0
C0
ENDCHAR
STARTCHAR 0441
ENCODING 1089
SWIDTH 900 0
DWIDTH 15 0
BBX 8 10 3 -1
BITMAP
1E
7F
77
E3
C0
C0
E3
77
7F
3E
ENDCHAR
STARTCHAR 0442
ENCODING 1090
SWIDTH 960 0
DWIDTH 16 0
BBX 8 10 4 -1
BITMAP
FF
FF
18
18
18
18
18
18
18
18
ENDCHAR
STARTCHAR 0443
ENCODING 1091
SWIDTH 900 0
DWIDTH 15 0
BBX 9 11 3 -2
BITMAP
E380
7300
7700
3E00
3E00
1E00
1C00
1C00
1800
7800
7000
ENDCHAR
STARTCHAR 0444
ENCODING 1092
SWIDTH 900 0
DWIDTH 15 0
BBX 13 12 1 -2
BITMAP
0600
36E0
7FF0
EF78
E638
C618
C618
E638
EFB8
7FF0
36E0
0600
ENDCHAR
STARTCHAR 0445
ENCODING 1093
SWIDTH 900 0
DWIDTH 15 0
BBX 9 10 3 -1
BITMAP
6300
7700
3600
3E00
1C00
1C00
3E00
3700
7300
E380
ENDCHAR
STARTCHAR 0446
ENCODING 1094
SWIDTH 960 0
DWIDTH 16 0
BBX 9 12 4 -3
BITMAP
C300
C300
C300
C300
C300
C300
C300
C300
FF00
FF80
0180
0100
ENDCHAR
STARTCHAR 0447
ENCODING 1095
SWIDTH 960 0
DWIDTH 16 0
BBX 8 10 4 -1
BITMAP
C3
C3
C3
C3
E7
FF
7F
03
03
03
ENDCHAR
STARTCHAR 0448
ENCODING 1096
SWIDTH 900 0
DWIDTH 15 0
BBX 11 10 2 -1
BITMAP
66C0
66C0
66C0
66C0
66C0
66C0
66C0
FFE0
FFE0
FFE0
ENDCHAR
STARTCHAR 0449
ENCODING 1097
SWIDTH 960 0
DWIDTH 16 0
BBX 12 12 2 -3
BITMAP
6660
6660
6660
6660
6660
6660
6660
6660
FFE0
FFF0
0030
0020
ENDCHAR
STARTCHAR 044A
ENCODING 1098
SWIDTH 900 0
DWIDTH 15 0
BBX 9 10 3 -1
BITMAP
E000
E000
6000
7E00
7F00
6380
6180
6380
7F00
7E00
ENDCHAR
STARTCHAR 044B
ENCODING 1099
SWIDTH 960 0
DWIDTH 16 0
BBX 10 10 3 -1
BITMAP
C0C0
C0C0
C0C0
FCC0
FEC0
CEC0
C6C0
CEC0
FEC0
FCC0
ENDCHAR
STARTCHAR 044C
ENCODING 1100
SWIDTH 960 0
DWIDTH 16 0
BBX 8 10 4 -1
BITMAP
C0
C0
C0
FC
FE
C7
C3
C7
FE
FC
ENDCHAR
STARTCHAR 044D
ENCODING 1101
SWIDTH 900 0
DWIDTH 15 0
BBX 7 10 4 -1
BITMAP
78
FC
EE
06
7E
3E
06
EE
FC
78
ENDCHAR
STARTCHAR 044E
ENCODING 1102
SWIDTH 900 0
DWIDTH 15 0
BBX 11 10 2 -1
BITMAP
C780
CFC0
CEE0
DC60
F860
F860
DC60
CEE0
CFC0
C780
ENDCHAR
STARTCHAR 044F
ENCODING 1103
SWIDTH 900 0
DWIDTH 15 0
BBX 8 10 3 -1
BITMAP
3F
7F
73
73
3F
7F
73
63
63
E3
ENDCHAR
STARTCHAR 0451
ENCODING 1105
SWIDTH 960 0
DWIDTH 16 0
BBX 8 13 4 -1
BITMAP
66
66
00
3C
7E
F7
C3
FF
FF
C3
F7
7E
3C
ENDCHAR
STARTCHAR 2015
ENCODING 8213
SWIDTH 900 0
DWIDTH 15 0
BBX 15 1 0 5
BITMAP
FFFE
ENDCHAR
STARTCHAR 2018
ENCODING 8216
SWIDTH 300 0
DWIDTH 5 0
BBX 3 4 2 9
BITMAP
60
C0
E0
E0
ENDCHAR
STARTCHAR 2019
ENCODING 8217
SWIDTH 360 0
DWIDTH 6 0
BBX 3 4 1 8
BITMAP
C0
E0
60
C0
ENDCHAR
STARTCHAR 201C
ENCODING 8220
SWIDTH 480 0
DWIDTH 8 0
BBX 6 4 1 9
BITMAP
6C
D8
FC
FC
ENDCHAR
STARTCHAR 201D
ENCODING 8221
SWIDTH 480 0
DWIDTH 8 0
BBX 6 4 1 8
BITMAP
DC
FC
6C
D8
ENDCHAR
STARTCHAR 2020
ENCODING 8224
SWIDTH 900 0
DWIDTH 15 0
BBX 8 15 4 -2
BITMAP
18
18
18
18
FF
FF
18
18
18
18
18
18
18
18
18
ENDCHAR
STARTCHAR 2021
ENCODING 8225
SWIDTH 900 0
DWIDTH 15 0
BBX 8 15 4 -2
BITMAP
18
18
FF
FF
18
FF
FF
18
18
18
18
18
18
18
18
ENDCHAR
STARTCHAR 2025
ENCODING 8229
SWIDTH 960 0
DWIDTH 16 0
BBX 10 3 3 4
BITMAP
C0C0
C0C0
C0C0
ENDCHAR
STARTCHAR 2026
ENCODING 8230
SWIDTH 960 0
DWIDTH 16 0
BBX 12 3 2 4
BITMAP
C630
C630
C630
ENDCHAR
STARTCHAR 2030
ENCODING 8240
SWIDTH 960 0
DWIDTH 16 0
BBX 14 13 1 -1
BITMAP
3180
7980
DB00
DE00
B600
EC00
1800
1B9C
37BC
6DEC
69EC
CF78
C630
ENDCHAR
STARTCHAR 2032
ENCODING 8242
SWIDTH 480 0
DWIDTH 8 0
BBX 2 3 3 9
BITMAP
40
C0
80
ENDCHAR
STARTCHAR 2033
ENCODING 8243
SWIDTH 480 0
DWIDTH 8 0
BBX 5 4 1 9
BITMAP
68
78
58
90
ENDCHAR
STARTCHAR 203B
ENCODING 8251
SWIDTH 900 0
DWIDTH 15 0
BBX 13 13 1 -1
BITMAP
4718
E738
7770
38E0
1DC0
EFB8
E738
EFB8
1DC0
38E0
7770
E738
4710
ENDCHAR
STARTCHAR 2074
ENCODING 8308
SWIDTH 420 0
DWIDTH 7 0
BBX 4 5 0 8
BITMAP
20
60
A0
F0
20
ENDCHAR
STARTCHAR 207F
ENCODING 8319
SWIDTH 480 0
DWIDTH 8 0
BBX 4 5 0 8
BITMAP
E0
90
90
90
90
ENDCHAR
STARTCHAR 2081
ENCODING 8321
SWIDTH 480 0
DWIDTH 8 0
BBX 2 5 1 -1
BITMAP
40
C0
40
40
40
ENDCHAR
STARTCHAR 2082
ENCODING 8322
SWIDTH 480 0
DWIDTH 8 0
BBX 3 5 1 -1
BITMAP
E0
A0
60
80
E0
ENDCHAR
STARTCHAR 2083
ENCODING 8323
SWIDTH 480 0
DWIDTH 8 0
BBX 4 5 1 -1
BITMAP
60
B0
60
90
E0
ENDCHAR
STARTCHAR 2084
ENCODING 8324
SWIDTH 420 0
DWIDTH 7 0
BBX 4 5 0 -1
BITMAP
20
60
A0
F0
20
ENDCHAR
STARTCHAR 20AC
ENCODING 8364
SWIDTH 960 0
DWIDTH 16 0
BBX 13 13 1 -1
BITMAP
3FF0
7FF8
6018
6018
FE18
FE00
6000
FE00
FE18
6018
6018
7FF8
3FF0
ENDCHAR
STARTCHAR 2103
ENCODING 8451
SWIDTH 900 0
DWIDTH 15 0
BBX 15 13 0 0
BITMAP
7800
D800
7BFC
77FE
0606
0606
0600
0600
0600
0606
0606
07FE
03FC
ENDCHAR
STARTCHAR 2109
ENCODING 8457
SWIDTH 900 0
DWIDTH 15 0
BBX 13 13 0 0
BITMAP
7800
D800
7BF8
77F8
0700
0700
0700
07F8
07F8
0700
0700
0700
0700
ENDCHAR
STARTCHAR 2113
ENCODING 8467
SWIDTH 480 0
DWIDTH 8 0
BBX 8 15 0 -2
BITMAP
1C
3C
36
66
66
66
66
66
66
6C
6C
3A
F3
5E
0C
ENDCHAR
STARTCHAR 2116
ENCODING 8470
SWIDTH 900 0
DWIDTH 15 0
BBX 14 14 1 -2
BITMAP
C600
E600
E600
E600
F660
F6F0
D790
D790
DF98
DF98
CF90
CEF0
CEFC
000C
ENDCHAR
STARTCHAR 2121
ENCODING 8481
SWIDTH 900 0
DWIDTH 15 0
BBX 14 13 1 -2
BITMAP
FE0C
FE0C
100C
100C
100C
13CC
164C
166C
17EC
17EC
160C
166C
13CC
ENDCHAR
STARTCHAR 2122
ENCODING 8482
SWIDTH 900 0
DWIDTH 15 0
BBX 11 6 2 7
BITMAP
FE60
2660
27E0
25E0
25A0
25A0
ENDCHAR
STARTCHAR 2126
ENCODING 8486
SWIDTH 900 0
DWIDTH 15 0
BBX 12 13 2 -1
BITMAP
1F80
3FC0
70E0
E070
C030
C030
C030
C070
60E0
7BC0
1B00
FBE0
FBE0
ENDCHAR
STARTCHAR 212B
ENCODING 8491
SWIDTH 900 0
DWIDTH 15 0
BBX 10 14 3 -1
BITMAP
1E00
1200
1E00
0000
1E00
1E00
3E00
3300
3300
6380
7F80
FF80
C0C0
C0C0
ENDCHAR
STARTCHAR 2153
ENCODING 8531
SWIDTH 900 0
DWIDTH 15 0
BBX 13 15 1 -2
BITMAP
3000
F030
3060
30E0
30C0
3180
3300
0600
0C70
1C98
1818
3030
6038
C198
80F0
ENDCHAR
STARTCHAR 2154
ENCODING 8532
SWIDTH 900 0
DWIDTH 15 0
BBX 13 15 1 -2
BITMAP
7000
D830
1870
3860
60C0
C180
FB00
0700
06F0
0D98
1870
3070
6018
E198
C0F0
ENDCHAR
STARTCHAR 215B
ENCODING 8539
SWIDTH 900 0
DWIDTH 15 0
BBX 13 15 1 -2
BITMAP
3020
F030
3060
30C0
3180
3300
3700
0600
0CF0
1998
30F8
61F0
6198
C198
80F0
ENDCHAR
STARTCHAR 215C
ENCODING 8540
SWIDTH 900 0
DWIDTH 15 0
BBX 14 15 0 -2
BITMAP
3800
6C18
0C30
1C60
1CE0
44C0
7D80
3B00
0678
0CCC
1CCC
1878
30FC
60CC
C078
ENDCHAR
STARTCHAR 215D
ENCODING 8541
SWIDTH 960 0
DWIDTH 16 0
BBX 14 15 1 -2
BITMAP
7800
4018
F030
F870
0C60
CCC0
7980
7B00
0678
0ECC
0CCC
1878
30FC
60CC
60F8
ENDCHAR
STARTCHAR 215E
ENCODING 8542
SWIDTH 900 0
DWIDTH 15 0
BBX 13 16 1 -3
BITMAP
F800
F830
1060
30C0
21C0
6180
6300
0600
0CF0
1998
1998
30F0
61F0
C198
8198
00F0
ENDCHAR
STARTCHAR 2160
ENCODING 8544
SWIDTH 960 0
DWIDTH 16 0
BBX 2 13 7 -1
BITMAP
C0
C0
C0
C0
C0
C0
C0
C0
C0
C0
C0
C0
C0
ENDCHAR
STARTCHAR 2161
ENCODING 8545
SWIDTH 960 0
DWIDTH 16 0
BBX 8 13 4 -1
BITMAP
C3
C3
C3
C3
C3
C3
C3
C3
C3
C3
C3
C3
C3
ENDCHAR
STARTCHAR 2162
ENCODING 8546
SWIDTH 840 0
DWIDTH 14 0
BBX 8 13 3 -1
BITMAP
DB
DB
DB
DB
DB
DB
DB
DB
DB
DB
DB
DB
DB
ENDCHAR
STARTCHAR 2163
ENCODING 8547
SWIDTH 900 0
DWIDTH 15 0
BBX 11 13 2 -1
BITMAP
F860
D860
D8E0
D8E0
DCC0
CCC0
CDC0
CDC0
CF80
C780
C780
C700
C700
ENDCHAR
STARTCHAR 2164
ENCODING 8548
SWIDTH 900 0
DWIDTH 15 0
BBX 11 13 2 -1
BITMAP
E060
6060
60E0
70C0
30C0
31C0
3980
1980
1B80
1F00
0F00
0F00
0E00
ENDCHAR
STARTCHAR 2165
ENCODING 8549
SWIDTH 900 0
DWIDTH 15 0
BBX 11 13 2 -1
BITMAP
C3E0
C360
E360
6360
6760
6660
7660
3660
3E60
3C60
3C60
1C60
1C60
ENDCHAR
STARTCHAR 2166
ENCODING 8550
SWIDTH 900 0
DWIDTH 15 0
BBX 13 13 1 -1
BITMAP
C7D8
C7D8
E6D8
E6D8
66D8
6ED8
6CD8
6CD8
7CD8
3CD8
3CD8
38D8
38D8
ENDCHAR
STARTCHAR 2167
ENCODING 8551
SWIDTH 960 0
DWIDTH 16 0
BBX 14 13 1 -1
BITMAP
C7EC
CDEC
CDEC
CDEC
6DEC
6DEC
6DEC
69EC
79EC
79EC
39EC
39EC
39EC
ENDCHAR
STARTCHAR 2168
ENCODING 8552
SWIDTH 960 0
DWIDTH 16 0
BBX 12 13 2 -1
BITMAP
D870
CC60
CCE0
C6C0
C7C0
C380
C380
C380
C7C0
C6C0
CCE0
DC60
D870
ENDCHAR
STARTCHAR 2169
ENCODING 8553
SWIDTH 900 0
DWIDTH 15 0
BBX 10 13 3 -1
BITMAP
C1C0
6380
7300
3700
3E00
1C00
1C00
1E00
3E00
7300
6380
E180
C1C0
ENDCHAR
STARTCHAR 2170
ENCODING 8560
SWIDTH 960 0
DWIDTH 16 0
BBX 2 13 7 -1
BITMAP
C0
C0
00
00
C0
C0
C0
C0
C0
C0
C0
C0
C0
ENDCHAR
STARTCHAR 2171
ENCODING 8561
SWIDTH 960 0
DWIDTH 16 0
BBX 8 13 4 -1
BITMAP
C3
C3
00
00
C3
C3
C3
C3
C3
C3
C3
C3
C3
ENDCHAR
STARTCHAR 2172
ENCODING 8562
SWIDTH 960 0
DWIDTH 16 0
BBX 10 13 3 -1
BITMAP
CDC0
CDC0
0000
0000
CDC0
CDC0
CDC0
CDC0
CDC0
CDC0
CDC0
CDC0
CDC0
ENDCHAR
STARTCHAR 2173
ENCODING 8563
SWIDTH 900 0
DWIDTH 15 0
BBX 11 13 2 -1
BITMAP
C000
C000
0000
0000
D860
DC60
DCE0
CCC0
CEC0
C7C0
C780
C780
C380
ENDCHAR
STARTCHAR 2174
ENCODING 8564
SWIDTH 900 0
DWIDTH 15 0
BBX 9 10 3 -1
BITMAP
E180
E380
6300
7300
7700
3600
3E00
1E00
1C00
1C00
ENDCHAR
STARTCHAR 2175
ENCODING 8565
SWIDTH 900 0
DWIDTH 15 0
BBX 11 13 2 -1
BITMAP
0060
0060
0000
0000
C360
E360
6760
6660
7660
3E60
3C60
3C60
1C60
ENDCHAR
STARTCHAR 2176
ENCODING 8566
SWIDTH 900 0
DWIDTH 15 0
BBX 13 13 1 -1
BITMAP
00D8
00D8
0000
0000
C7D8
C6D8
E6D8
6ED8
6CD8
6CD8
3CD8
38D8
38D8
ENDCHAR
STARTCHAR 2177
ENCODING 8567
SWIDTH 900 0
DWIDTH 15 0
BBX 15 13 0 -1
BITMAP
00F6
00F6
0000
0000
E7F6
66F6
66F6
66F6
7EF6
3CF6
3CF6
3CF6
3CF6
ENDCHAR
STARTCHAR 2178
ENCODING 8568
SWIDTH 960 0
DWIDTH 16 0
BBX 11 13 3 -1
BITMAP
C000
C000
0000
0000
DCC0
CDC0
CF80
C780
C700
C780
CD80
CDC0
D8E0
ENDCHAR
STARTCHAR 2179
ENCODING 8569
SWIDTH 900 0
DWIDTH 15 0
BBX 9 10 3 -1
BITMAP
E380
7700
3600
3E00
1C00
1C00
3E00
3700
7300
E380
ENDCHAR
STARTCHAR 2190
ENCODING 8592
SWIDTH 900 0
DWIDTH 15 0
BBX 15 4 0 2
BITMAP
0800
3800
FFFE
1800
ENDCHAR
STARTCHAR 2191
ENCODING 8593
SWIDTH 900 0
DWIDTH 15 0
BBX 5 16 5 -3
BITMAP
20
20
30
70
70
A8
20
20
20
20
20
20
20
20
20
20
ENDCHAR
STARTCHAR 2192
ENCODING 8594
SWIDTH 900 0
DWIDTH 15 0
BBX 15 3 0 3
BITMAP
0038
FFFE
0030
ENDCHAR
STARTCHAR 2193
ENCODING 8595
SWIDTH 900 0
DWIDTH 15 0
BBX 5 16 5 -3
BITMAP
20
20
20
20
20
20
20
20
20
20
A8
70
70
30
20
20
ENDCHAR
STARTCHAR 2194
ENCODING 8596
SWIDTH 900 0
DWIDTH 15 0
BBX 15 5 0 2
BITMAP
0820
3818
FFFE
3818
0020
ENDCHAR
STARTCHAR 2195
ENCODING 8597
SWIDTH 900 0
DWIDTH 15 0
BBX 5 16 5 -3
BITMAP
20
20
70
70
A8
20
20
20
20
20
20
A8
70
70
20
20
ENDCHAR
STARTCHAR 2196
ENCODING 8598
SWIDTH 900 0
DWIDTH 15 0
BBX 13 13 1 -2
BITMAP
C000
7000
7800
3000
0800
0400
0200
0100
0080
0040
0020
0010
0008
ENDCHAR
STARTCHAR 2197
ENCODING 8599
SWIDTH 900 0
DWIDTH 15 0
BBX 13 14 1 -2
BITMAP
0008
0038
0070
0070
00C0
0180
0300
0600
0C00
1800
3000
6000
C000
8000
ENDCHAR
STARTCHAR 2198
ENCODING 8600
SWIDTH 900 0
DWIDTH 15 0
BBX 14 14 1 -2
BITMAP
8000
4000
2000
1000
0800
0400
0200
0100
0080
0050
0030
0078
0018
0004
ENDCHAR
STARTCHAR 2199
ENCODING 8601
SWIDTH 900 0
DWIDTH 15 0
BBX 14 14 1 -2
BITMAP
000C
0018
0030
0060
00C0
0180
0300
0600
0C00
3800
7000
7800
E000
8000
ENDCHAR
STARTCHAR 21D2
ENCODING 8658
SWIDTH 900 0
DWIDTH 15 0
BBX 14 10 1 0
BITMAP
0040
0060
0030
FFF8
000C
000C
FFF8
0030
0060
0040
ENDCHAR
STARTCHAR 21D4
ENCODING 8660
SWIDTH 900 0
DWIDTH 15 0
BBX 14 9 1 1
BITMAP
1840
3020
7FF8
800C
800C
7FF8
3030
1860
0040
ENDCHAR
STARTCHAR 2200
ENCODING 8704
SWIDTH 900 0
DWIDTH 15 0
BBX 11 13 2 -1
BITMAP
C060
E0E0
60C0
7FC0
7FC0
3180
3180
3B80
1B00
1B00
1F00
0E00
0E00
ENDCHAR
STARTCHAR 2202
ENCODING 8706
SWIDTH 480 0
DWIDTH 8 0
BBX 8 12 0 0
BITMAP
1C
3E
33
03
3B
7F
6F
C6
CE
CC
FC
78
ENDCHAR
STARTCHAR 2203
ENCODING 8707
SWIDTH 900 0
DWIDTH 15 0
BBX 8 13 4 -1
BITMAP
FF
FF
03
03
03
03
FF
FF
03
03
03
FF
FF
ENDCHAR
STARTCHAR 2207
ENCODING 8711
SWIDTH 900 0
DWIDTH 15 0
BBX 15 13 0 -2
BITMAP
FFFE
7FFE
600C
3008
1018
1830
0830
0C60
0660
06C0
0380
0380
0100
ENDCHAR
STARTCHAR 2208
ENCODING 8712
SWIDTH 900 0
DWIDTH 15 0
BBX 13 11 1 0
BITMAP
0FF8
3FF8
7000
C000
C000
FFF8
FFF8
C000
6000
3FF8
0FF8
ENDCHAR
STARTCHAR 220B
ENCODING 8715
SWIDTH 900 0
DWIDTH 15 0
BBX 13 11 1 0
BITMAP
FF80
FFE0
0070
0018
0018
FFF8
FFF8
0018
0030
FFE0
FF80
ENDCHAR
STARTCHAR 220F
ENCODING 8719
SWIDTH 900 0
DWIDTH 15 0
BBX 12 12 2 -1
BITMAP
FFF0
FFF0
3180
3180
3180
3180
3180
3180
3180
3180
3180
3180
ENDCHAR
STARTCHAR 2211
ENCODING 8721
SWIDTH 900 0
DWIDTH 15 0
BBX 11 12 2 0
BITMAP
3FE0
3FE0
1800
1C00
0C00
0600
0E00
1C00
3800
7000
FF80
FF80
ENDCHAR
STARTCHAR 221A
ENCODING 8730
SWIDTH 900 0
DWIDTH 15 0
BBX 13 15 1 -2
BITMAP
01F8
0100
0300
0300
0200
0600
4600
E400
E400
6C00
3800
3800
1800
1000
1000
ENDCHAR
STARTCHAR 221D
ENCODING 8733
SWIDTH 900 0
DWIDTH 15 0
BBX 13 8 1 1
BITMAP
3CF0
7FF8
E780
C300
C300
E780
7FF8
3CF0
ENDCHAR
STARTCHAR 221E
ENCODING 8734
SWIDTH 900 0
DWIDTH 15 0
BBX 14 8 1 1
BITMAP
1020
7CF8
E798
C30C
C30C
C79C
7DF8
1020
ENDCHAR
STARTCHAR 2220
ENCODING 8736
SWIDTH 900 0
DWIDTH 15 0
BBX 13 12 1 -1
BITMAP
0030
0070
00E0
01C0
0380
0700
0E00
1C00
3800
7000
FFF8
FFF8
ENDCHAR
STARTCHAR 2225
ENCODING 8741
SWIDTH 900 0
DWIDTH 15 0
BBX 5 17 5 -3
BITMAP
D8
D8
D8
D8
D8
D8
D8
D8
D8
D8
D8
D8
D8
D8
D8
D8
D8
ENDCHAR
STARTCHAR 2227
ENCODING 8743
SWIDTH 900 0
DWIDTH 15 0
BBX 12 13 2 -1
BITMAP
0400
0600
0E00
0F00
1B00
1980
3180
30C0
60C0
6060
C060
C030
8030
ENDCHAR
STARTCHAR 2228
ENCODING 8744
SWIDTH 900 0
DWIDTH 15 0
BBX 12 13 2 -1
BITMAP
8020
C030
C060
4060
60C0
20C0
3180
3180
1B00
1B00
0E00
0E00
0400
ENDCHAR
STARTCHAR 2229
ENCODING 8745
SWIDTH 900 0
DWIDTH 15 0
BBX 10 13 2 -1
BITMAP
1E00
7F80
6180
C0C0
C0C0
C0C0
C0C0
C0C0
C0C0
C0C0
C0C0
C0C0
C0C0
ENDCHAR
STARTCHAR 222A
ENCODING 8746
SWIDTH 900 0
DWIDTH 15 0
BBX 10 13 2 -1
BITMAP
C0C0
C0C0
C0C0
C0C0
C0C0
C0C0
C0C0
C0C0
C0C0
C0C0
6180
3F80
1E00
ENDCHAR
STARTCHAR 222B
ENCODING 8747
SWIDTH 900 0
DWIDTH 15 0
BBX 8 14 4 -2
BITMAP
07
0B
18
18
18
18
18
18
18
18
18
18
D0
E0
ENDCHAR
STARTCHAR 222C
ENCODING 8748
SWIDTH 900 0
DWIDTH 15 0
BBX 11 14 2 -2
BITMAP
0EE0
1FE0
1100
1100
1100
1100
1100
1100
1100
1100
1100
1100
EE00
4C00
ENDCHAR
STARTCHAR 222E
ENCODING 8750
SWIDTH 900 0
DWIDTH 15 0
BBX 7 14 4 -2
BITMAP
0E
1E
10
10
18
74
56
56
7C
18
10
10
F0
40
ENDCHAR
STARTCHAR 2234
ENCODING 8756
SWIDTH 900 0
DWIDTH 15 0
BBX 11 11 2 0
BITMAP
0E00
0E00
0E00
0000
0000
0000
0000
0000
E0E0
E0E0
E060
ENDCHAR
STARTCHAR 2235
ENCODING 8757
SWIDTH 900 0
DWIDTH 15 0
BBX 12 11 2 0
BITMAP
E070
E070
E070
0000
0000
0000
0000
0000
0E00
0E00
0E00
ENDCHAR
STARTCHAR 223C
ENCODING 8764
SWIDTH 900 0
DWIDTH 15 0
BBX 11 3 2 4
BITMAP
3C60
7FE0
C380
ENDCHAR
STARTCHAR 223D
ENCODING 8765
SWIDTH 900 0
DWIDTH 15 0
BBX 14 7 1 2
BITMAP
3CF0
7DF8
C78C
C30C
C78C
7EF8
3CF0
ENDCHAR
STARTCHAR 2252
ENCODING 8786
SWIDTH 900 0
DWIDTH 15 0
BBX 12 12 2 -1
BITMAP
3000
3800
3000
FFF0
FFF0
0000
FFF0
FFF0
0000
00C0
01E0
00C0
ENDCHAR
STARTCHAR 2260
ENCODING 8800
SWIDTH 900 0
DWIDTH 15 0
BBX 12 12 2 -1
BITMAP
0040
00C0
01C0
FFF0
FFF0
0600
0E00
FFF0
FFF0
3000
7000
6000
ENDCHAR
STARTCHAR 2261
ENCODING 8801
SWIDTH 900 0
DWIDTH 15 0
BBX 12 8 2 1
BITMAP
FFF0
FFF0
0000
FFF0
FFF0
0000
FFF0
FFF0
ENDCHAR
STARTCHAR 2264
ENCODING 8804
SWIDTH 900 0
DWIDTH 15 0
BBX 11 12 2 1
BITMAP
01C0
07C0
1F00
7C00
F000
3C00
0F00
03C0
00C0
0000
FFE0
FFE0
ENDCHAR
STARTCHAR 2265
ENCODING 8805
SWIDTH 900 0
DWIDTH 15 0
BBX 11 13 2 0
BITMAP
4000
7000
7800
1E00
0780
03E0
0F80
3E00
F800
6000
0000
FFE0
FFE0
ENDCHAR
STARTCHAR 226A
ENCODING 8810
SWIDTH 900 0
DWIDTH 15 0
BBX 14 13 1 -1
BITMAP
0188
03BC
0770
1CE0
3BC0
7700
CE00
E700
3B80
1CE0
0F70
03B8
018C
ENDCHAR
STARTCHAR 226B
ENCODING 8811
SWIDTH 900 0
DWIDTH 15 0
BBX 14 13 1 -1
BITMAP
8C00
EE00
7780
3DC0
0EE0
0738
039C
0738
0EF0
1DC0
7380
EF00
CC00
ENDCHAR
STARTCHAR 2282
ENCODING 8834
SWIDTH 900 0
DWIDTH 15 0
BBX 13 10 1 0
BITMAP
1FF8
7FF8
6000
C000
C000
C000
C000
6000
7FF8
1FF8
ENDCHAR
STARTCHAR 2283
ENCODING 8835
SWIDTH 900 0
DWIDTH 15 0
BBX 13 10 1 0
BITMAP
FFC0
FFF0
0030
0018
0018
0018
0018
0030
FFF0
FFC0
ENDCHAR
STARTCHAR 2286
ENCODING 8838
SWIDTH 900 0
DWIDTH 15 0
BBX 13 12 1 -1
BITMAP
1FF8
7FF8
6000
C000
C000
C000
E000
7FF8
3FF8
0000
FFF8
FFF8
ENDCHAR
STARTCHAR 2287
ENCODING 8839
SWIDTH 900 0
DWIDTH 15 0
BBX 13 12 1 -1
BITMAP
FFC0
FFF0
0038
0018
0018
0018
0018
FFF0
FFE0
0000
FFF8
FFF8
ENDCHAR
STARTCHAR 2299
ENCODING 8857
SWIDTH 900 0
DWIDTH 15 0
BBX 14 14 1 -2
BITMAP
0FC0
3060
6010
C718
CFCC
9FCC
9FC4
9FC4
8FCC
C78C
C018
6030
3CE0
0FC0
ENDCHAR
STARTCHAR 22A5
ENCODING 8869
SWIDTH 900 0
DWIDTH 15 0
BBX 12 11 2 -1
BITMAP
0600
0600
0600
0600
0600
0600
0600
0600
0600
FFF0
FFF0
ENDCHAR
STARTCHAR 2312
ENCODING 8978
SWIDTH 900 0
DWIDTH 15 0
BBX 13 5 1 8
BITMAP
0F80
3FE0
6030
4018
C018
ENDCHAR
STARTCHAR 2460
ENCODING 9312
SWIDTH 900 0
DWIDTH 15 0
BBX 14 14 1 -2
BITMAP
0FC0
3060
6310
C318
C30C
830C
8304
8304
830C
C30C
C318
6030
3CE0
0FC0
ENDCHAR
STARTCHAR 2461
ENCODING 9313
SWIDTH 900 0
DWIDTH 15 0
BBX 14 14 1 -2
BITMAP
0FC0
3060
6FD0
C8D8
C8CC
80CC
87C4
9F04
980C
D80C
DFD8
6030
3CE0
0FC0
ENDCHAR
STARTCHAR 2462
ENCODING 9314
SWIDTH 900 0
DWIDTH 15 0
BBX 14 14 1 -2
BITMAP
0FC0
3060
6FD0
C8D8
C8CC
80CC
87C4
80C4
80CC
D8CC
DFD8
6030
3CE0
0FC0
ENDCHAR
STARTCHAR 2463
ENCODING 9315
SWIDTH 900 0
DWIDTH 15 0
BBX 14 14 1 -2
BITMAP
0FC0
3060
61D0
C1D8
C3CC
86CC
84C4
8CC4
98CC
DFEC
C0D8
60F0
3CE0
0FC0
ENDCHAR
STARTCHAR 2464
ENCODING 9316
SWIDTH 900 0
DWIDTH 15 0
BBX 14 14 1 -2
BITMAP
0FC0
3060
7FD0
D818
980C
980C
9FE4
8064
986C
D86C
DFF8
6030
3CE0
0FC0
ENDCHAR
STARTCHAR 2465
ENCODING 9317
SWIDTH 900 0
DWIDTH 15 0
BBX 14 14 1 -2
BITMAP
0FC0
3060
7FD0
D8D8
D8CC
980C
9FC4
9844
984C
D84C
DFD8
6030
3CE0
0FC0
ENDCHAR
STARTCHAR 2466
ENCODING 9318
SWIDTH 900 0
DWIDTH 15 0
BBX 14 14 1 -2
BITMAP
0FC0
3060
6FD0
C0D8
C0CC
818C
8184
8104
830C
C20C
C618
6030
3CE0
0FC0
ENDCHAR
STARTCHAR 2467
ENCODING 9319
SWIDTH 900 0
DWIDTH 15 0
BBX 14 14 1 -2
BITMAP
0FC0
3060
6FD0
D8D8
D8CC
98CC
8FC4
98C4
98CC
D8CC
DFD8
6030
3CE0
0FC0
ENDCHAR
STARTCHAR 2468
ENCODING 9320
SWIDTH 900 0
DWIDTH 15 0
BBX 14 14 1 -2
BITMAP
0FC0
3060
7FD0
D878
D86C
986C
9FE4
8064
806C
D86C
DFF8
6030
3CE0
0FC0
ENDCHAR
STARTCHAR 2469
ENCODING 9321
SWIDTH 900 0
DWIDTH 15 0
BBX 14 14 1 -2
BITMAP
0FC0
3060
6010
F3F8
922C
922C
9224
9224
922C
D22C
D3F8
6030
3CE0
0FC0
ENDCHAR
STARTCHAR 246A
ENCODING 9322
SWIDTH 900 0
DWIDTH 15 0
BBX 14 14 1 -2
BITMAP
0FC0
3060
6010
CD98
C48C
848C
8484
8484
848C
C48C
C498
6030
3CE0
0FC0
ENDCHAR
STARTCHAR 246B
ENCODING 9323
SWIDTH 900 0
DWIDTH 15 0
BBX 14 14 1 -2
BITMAP
0FC0
3060
6010
F3F8
D22C
922C
90E4
93C4
920C
D20C
D3F8
6030
3CE0
0FC0
ENDCHAR
STARTCHAR 246C
ENCODING 9324
SWIDTH 900 0
DWIDTH 15 0
BBX 14 14 1 -2
BITMAP
0FC0
3060
6010
F3F8
922C
902C
91E4
9024
902C
D22C
D3F8
6030
3CE0
0FC0
ENDCHAR
STARTCHAR 246D
ENCODING 9325
SWIDTH 900 0
DWIDTH 15 0
BBX 14 14 1 -2
BITMAP
0FC0
3060
6010
F0D8
D1CC
914C
9344
9244
944C
D7EC
D058
6030
3CE0
0FC0
ENDCHAR
STARTCHAR 246E
ENCODING 9326
SWIDTH 900 0
DWIDTH 15 0
BBX 14 14 1 -2
BITMAP
0FC0
3060
6010
F7D8
940C
940C
97E4
9024
942C
D42C
D7F8
6030
3CE0
0FC0
ENDCHAR
STARTCHAR 2474
ENCODING 9332
SWIDTH 900 0
DWIDTH 15 0
BBX 15 12 0 -1
BITMAP
300C
618C
6184
4186
C186
C186
C186
C186
4186
4186
6004
200C
ENDCHAR
STARTCHAR 2475
ENCODING 9333
SWIDTH 900 0
DWIDTH 15 0
BBX 15 12 0 -1
BITMAP
200C
67CC
6FE4
4C66
C066
C1E6
CFC6
CC06
4C06
4FE6
6FEC
200C
ENDCHAR
STARTCHAR 2476
ENCODING 9334
SWIDTH 900 0
DWIDTH 15 0
BBX 15 12 0 -1
BITMAP
300C
67CC
67E4
4466
C066
C3E6
C066
C066
4C66
4FE6
63CC
200C
ENDCHAR
STARTCHAR 2477
ENCODING 9335
SWIDTH 900 0
DWIDTH 15 0
BBX 15 12 0 -1
BITMAP
200C
60CC
61C4
43C6
C2C6
C6C6
CCC6
C8C6
5FE6
40C6
60CC
200C
ENDCHAR
STARTCHAR 2478
ENCODING 9336
SWIDTH 900 0
DWIDTH 15 0
BBX 15 12 0 -1
BITMAP
200C
6FEC
6FE4
4C06
CC06
CFE6
C066
CC66
4C66
4FE6
67CC
200C
ENDCHAR
STARTCHAR 2479
ENCODING 9337
SWIDTH 900 0
DWIDTH 15 0
BBX 15 12 0 -1
BITMAP
200C
67CC
6FE4
4C66
CC06
CFE6
CC66
CC26
4C26
4FE6
67CC
200C
ENDCHAR
STARTCHAR 247A
ENCODING 9338
SWIDTH 900 0
DWIDTH 15 0
BBX 15 12 0 -1
BITMAP
300C
67EC
67E4
4066
C046
C0C6
C086
C186
4186
4306
6304
200C
ENDCHAR
STARTCHAR 247B
ENCODING 9339
SWIDTH 900 0
DWIDTH 15 0
BBX 15 12 0 -1
BITMAP
200C
67CC
6FE4
4C66
CC66
CFE6
CFE6
CC66
4C66
4FE6
67CC
200C
ENDCHAR
STARTCHAR 247C
ENCODING 9340
SWIDTH 900 0
DWIDTH 15 0
BBX 15 12 0 -1
BITMAP
200C
67CC
6FE4
4C66
CC66
CFE6
C7E6
C066
4C66
4FE6
67CC
200C
ENDCHAR
STARTCHAR 247D
ENCODING 9341
SWIDTH 900 0
DWIDTH 15 0
BBX 15 12 0 -1
BITMAP
200C
600C
7BF4
4A16
CA16
CA16
CA16
CA16
4A16
4BF6
6004
200C
ENDCHAR
STARTCHAR 247E
ENCODING 9342
SWIDTH 900 0
DWIDTH 15 0
BBX 15 12 0 -1
BITMAP
300C
600C
66C4
4246
C246
C246
C246
C246
4246
6246
600C
200C
ENDCHAR
STARTCHAR 247F
ENCODING 9343
SWIDTH 900 0
DWIDTH 15 0
BBX 15 12 0 -1
BITMAP
200C
600C
7BF4
4A16
CA16
C876
CBE6
CA06
4A06
4BF6
600C
200C
ENDCHAR
STARTCHAR 2480
ENCODING 9344
SWIDTH 900 0
DWIDTH 15 0
BBX 15 12 0 -1
BITMAP
200C
600C
79F4
4916
C816
C8F6
C816
C816
4916
49F6
6004
200C
ENDCHAR
STARTCHAR 2481
ENCODING 9345
SWIDTH 900 0
DWIDTH 15 0
BBX 15 12 0 -1
BITMAP
200C
600C
7864
48E6
C8A6
C9A6
C926
CA26
4BF6
4826
6004
200C
ENDCHAR
STARTCHAR 2482
ENCODING 9346
SWIDTH 900 0
DWIDTH 15 0
BBX 15 12 0 -1
BITMAP
200C
600C
7BE4
4A06
CA06
CBF6
C816
CA16
4A16
4BF6
600C
200C
ENDCHAR
STARTCHAR 249C
ENCODING 9372
SWIDTH 900 0
DWIDTH 15 0
BBX 15 12 0 -1
BITMAP
200C
600C
6004
47E6
C466
C3E6
CFE6
CC66
4FE6
4006
6004
200C
ENDCHAR
STARTCHAR 249D
ENCODING 9373
SWIDTH 900 0
DWIDTH 15 0
BBX 15 12 0 -1
BITMAP
200C
6C0C
6C04
4C06
CFC6
CFE6
CC66
CC66
4C66
4FE6
6FE4
200C
ENDCHAR
STARTCHAR 249E
ENCODING 9374
SWIDTH 900 0
DWIDTH 15 0
BBX 15 12 0 -1
BITMAP
200C
600C
6004
47E6
CC66
CC06
CC06
CC66
4FE6
4006
6004
200C
ENDCHAR
STARTCHAR 249F
ENCODING 9375
SWIDTH 900 0
DWIDTH 15 0
BBX 15 12 0 -1
BITMAP
200C
606C
6064
4066
C7E6
CFE6
CC66
CC66
4C66
4FE6
67E4
200C
ENDCHAR
STARTCHAR 24A0
ENCODING 9376
SWIDTH 900 0
DWIDTH 15 0
BBX 15 12 0 -1
BITMAP
200C
600C
6004
47C6
CC66
CC66
CFC6
CC66
4FE6
4006
600C
200C
ENDCHAR
STARTCHAR 24A1
ENCODING 9377
SWIDTH 900 0
DWIDTH 15 0
BBX 15 12 0 -1
BITMAP
200C
61CC
63C4
4306
C7C6
C7C6
C306
C306
4306
4306
630C
200C
ENDCHAR
STARTCHAR 24A2
ENCODING 9378
SWIDTH 900 0
DWIDTH 15 0
BBX 15 12 0 -1
BITMAP
200C
600C
67E4
4C66
CC66
CC66
CC66
C7E6
4066
4C66
67E4
200C
ENDCHAR
STARTCHAR 24A3
ENCODING 9379
SWIDTH 900 0
DWIDTH 15 0
BBX 15 12 0 -1
BITMAP
200C
6C0C
6C04
4C06
CFC6
CFE6
CC66
CC66
4C66
4C66
6C64
200C
ENDCHAR
STARTCHAR 24A4
ENCODING 9380
SWIDTH 900 0
DWIDTH 15 0
BBX 15 12 0 -1
BITMAP
300C
6184
6186
4006
C186
C182
C182
C182
4186
4186
6184
200C
ENDCHAR
STARTCHAR 24A5
ENCODING 9381
SWIDTH 900 0
DWIDTH 15 0
BBX 15 12 0 -1
BITMAP
200C
618C
6184
4006
C186
C186
C186
C186
4186
6184
618C
238C
ENDCHAR
STARTCHAR 24A6
ENCODING 9382
SWIDTH 900 0
DWIDTH 15 0
BBX 15 12 0 -1
BITMAP
200C
6C0C
6C04
4C06
CCC6
CD86
CF06
CF06
4D86
4CC6
6C6C
200C
ENDCHAR
STARTCHAR 24A7
ENCODING 9383
SWIDTH 900 0
DWIDTH 15 0
BBX 15 12 0 -1
BITMAP
300C
6184
6186
4186
C186
C182
C182
C182
4186
4186
6184
200C
ENDCHAR
STARTCHAR 24A8
ENCODING 9384
SWIDTH 900 0
DWIDTH 15 0
BBX 15 12 0 -1
BITMAP
200C
600C
6004
5FF6
D9B6
D9B6
D9B6
D9B6
59B6
6004
600C
200C
ENDCHAR
STARTCHAR 24A9
ENCODING 9385
SWIDTH 900 0
DWIDTH 15 0
BBX 15 12 0 -1
BITMAP
200C
600C
6004
4FE6
CC66
CC66
CC66
CC66
4C66
4006
6004
200C
ENDCHAR
STARTCHAR 24AA
ENCODING 9386
SWIDTH 900 0
DWIDTH 15 0
BBX 15 12 0 -1
BITMAP
200C
600C
6004
47E6
CFE6
CC66
CC66
CC66
4FE6
43C6
6004
200C
ENDCHAR
STARTCHAR 24AB
ENCODING 9387
SWIDTH 900 0
DWIDTH 15 0
BBX 15 12 0 -1
BITMAP
200C
600C
6FE4
4C66
CC66
CC66
CC66
CFE6
4C06
4C06
6C04
200C
ENDCHAR
STARTCHAR 24AC
ENCODING 9388
SWIDTH 900 0
DWIDTH 15 0
BBX 15 12 0 -1
BITMAP
200C
600C
67E4
4C66
CC66
CC66
CC66
C7E6
4066
4066
6064
200C
ENDCHAR
STARTCHAR 24AD
ENCODING 9389
SWIDTH 900 0
DWIDTH 15 0
BBX 15 12 0 -1
BITMAP
300C
600C
6004
43C6
C306
C306
C306
C306
4306
4006
6004
200C
ENDCHAR
STARTCHAR 24AE
ENCODING 9390
SWIDTH 900 0
DWIDTH 15 0
BBX 15 12 0 -1
BITMAP
200C
600C
6004
47C6
CC66
CF86
C7E6
CC66
4FE6
4006
600C
200C
ENDCHAR
STARTCHAR 24AF
ENCODING 9391
SWIDTH 900 0
DWIDTH 15 0
BBX 15 12 0 -1
BITMAP
300C
610C
6104
4106
C7C6
C106
C106
C106
4106
41C6
60CC
200C
ENDCHAR
STARTCHAR 24B0
ENCODING 9392
SWIDTH 900 0
DWIDTH 15 0
BBX 15 12 0 -1
BITMAP
200C
600C
6004
4C66
CC66
CC66
CC66
CC66
4FE6
43C6
6004
200C
ENDCHAR
STARTCHAR 24B1
ENCODING 9393
SWIDTH 900 0
DWIDTH 15 0
BBX 15 12 0 -1
BITMAP
300C
600C
6004
4C66
C466
C646
C2C6
C286
4386
4186
6004
200C
ENDCHAR
STARTCHAR 24B2
ENCODING 9394
SWIDTH 900 0
DWIDTH 15 0
BBX 15 12 0 -1
BITMAP
200C
600C
6004
5996
DB96
DAB6
CAF6
CAE6
4E66
6006
600C
200C
ENDCHAR
STARTCHAR 24B3
ENCODING 9395
SWIDTH 900 0
DWIDTH 15 0
BBX 15 12 0 -1
BITMAP
300C
600C
6004
4466
C6C6
C386
C386
C3C6
4646
4C66
6004
200C
ENDCHAR
STARTCHAR 24B4
ENCODING 9396
SWIDTH 900 0
DWIDTH 15 0
BBX 15 12 0 -1
BITMAP
300C
600C
6C64
4646
C6C6
C2C6
C386
C186
4306
4306
6604
200C
ENDCHAR
STARTCHAR 24B5
ENCODING 9397
SWIDTH 900 0
DWIDTH 15 0
BBX 15 12 0 -1
BITMAP
300C
600C
6004
47E6
C7E6
C0C6
C386
C606
47E6
47E6
6004
200C
ENDCHAR
STARTCHAR 24D0
ENCODING 9424
SWIDTH 900 0
DWIDTH 15 0
BBX 14 14 1 -2
BITMAP
0FC0
3060
6010
C018
CFCC
88CC
8FC4
98C4
98CC
CFCC
C018
6030
3CE0
0FC0
ENDCHAR
STARTCHAR 24D1
ENCODING 9425
SWIDTH 900 0
DWIDTH 15 0
BBX 14 14 1 -2
BITMAP
0FC0
3060
6C10
CC18
CC0C
8FCC
8CC4
8CC4
8CCC
CCCC
CFD8
6030
3CE0
0FC0
ENDCHAR
STARTCHAR 24D2
ENCODING 9426
SWIDTH 900 0
DWIDTH 15 0
BBX 14 14 1 -2
BITMAP
0FC0
3060
6010
C018
CFCC
98CC
9804
9804
98CC
CFCC
C018
6030
3CE0
0FC0
ENDCHAR
STARTCHAR 24D3
ENCODING 9427
SWIDTH 900 0
DWIDTH 15 0
BBX 14 14 1 -2
BITMAP
0FC0
3060
60D0
C0D8
C0CC
8FCC
98C4
98C4
98CC
D8CC
DFD8
6030
3CE0
0FC0
ENDCHAR
STARTCHAR 24D4
ENCODING 9428
SWIDTH 900 0
DWIDTH 15 0
BBX 14 14 1 -2
BITMAP
0FC0
3060
6010
C018
CFCC
98CC
98C4
9F84
98CC
CF8C
C018
6030
3CE0
0FC0
ENDCHAR
STARTCHAR 24D5
ENCODING 9429
SWIDTH 900 0
DWIDTH 15 0
BBX 14 14 1 -2
BITMAP
0FC0
3060
6390
C618
C60C
8F8C
8604
8604
860C
C60C
C618
6630
3CE0
0FC0
ENDCHAR
STARTCHAR 24D6
ENCODING 9430
SWIDTH 900 0
DWIDTH 15 0
BBX 14 14 1 -2
BITMAP
0FC0
3060
6010
DFD8
D8CC
98CC
98C4
8FC4
80CC
D8CC
DFD8
6030
3CE0
0FC0
ENDCHAR
STARTCHAR 24D7
ENCODING 9431
SWIDTH 900 0
DWIDTH 15 0
BBX 14 14 1 -2
BITMAP
0FC0
3060
7810
D818
D80C
9F8C
9FC4
98C4
98CC
D8CC
D8D8
78F0
3CE0
0FC0
ENDCHAR
STARTCHAR 24D8
ENCODING 9432
SWIDTH 900 0
DWIDTH 15 0
BBX 14 14 1 -2
BITMAP
0FC0
3060
6310
C318
C00C
830C
8304
8304
830C
C30C
C318
6030
3CE0
0FC0
ENDCHAR
STARTCHAR 24D9
ENCODING 9433
SWIDTH 900 0
DWIDTH 15 0
BBX 14 15 1 -2
BITMAP
0300
1FE0
3330
6318
C008
800C
830C
8304
830C
830C
C30C
C318
6730
3EE0
0FC0
ENDCHAR
STARTCHAR 24DA
ENCODING 9434
SWIDTH 900 0
DWIDTH 15 0
BBX 14 14 1 -2
BITMAP
0FC0
3060
7810
D818
D80C
998C
9B04
9E04
9F0C
DB0C
D998
6030
3CE0
0FC0
ENDCHAR
STARTCHAR 24DB
ENCODING 9435
SWIDTH 900 0
DWIDTH 15 0
BBX 14 14 1 -2
BITMAP
0FC0
3060
6310
C318
C30C
830C
8304
8304
830C
C30C
C318
6330
3CE0
0FC0
ENDCHAR
STARTCHAR 24DC
ENCODING 9436
SWIDTH 900 0
DWIDTH 15 0
BBX 14 14 1 -2
BITMAP
0FC0
3060
6010
C018
FFEC
B36C
B364
B364
B36C
F36C
C018
6030
3CE0
0FC0
ENDCHAR
STARTCHAR 24DD
ENCODING 9437
SWIDTH 900 0
DWIDTH 15 0
BBX 14 14 1 -2
BITMAP
0FC0
3060
6010
C018
DFCC
98CC
98C4
98C4
98CC
D8CC
C018
6030
3CE0
0FC0
ENDCHAR
STARTCHAR 24DE
ENCODING 9438
SWIDTH 900 0
DWIDTH 15 0
BBX 14 14 1 -2
BITMAP
0FC0
3060
6010
C018
CFCC
98CC
98C4
98C4
98CC
CFCC
C018
6030
3CE0
0FC0
ENDCHAR
STARTCHAR 24DF
ENCODING 9439
SWIDTH 900 0
DWIDTH 15 0
BBX 14 14 1 -2
BITMAP
0FC0
3060
6010
C018
CFCC
8CCC
8CC4
8CC4
8CCC
CFCC
CC18
6C30
3CE0
0FC0
ENDCHAR
STARTCHAR 24E0
ENCODING 9440
SWIDTH 900 0
DWIDTH 15 0
BBX 14 14 1 -2
BITMAP
0FC0
3060
6010
C018
CFCC
98CC
98C4
98CC
98CC
CFCC
C0D8
60F0
3CE0
0FC0
ENDCHAR
STARTCHAR 24E1
ENCODING 9441
SWIDTH 900 0
DWIDTH 15 0
BBX 14 14 1 -2
BITMAP
0FC0
3060
6010
C018
C78C
860C
8604
8604
860C
C60C
C018
6030
3CE0
0FC0
ENDCHAR
STARTCHAR 24E2
ENCODING 9442
SWIDTH 900 0
DWIDTH 15 0
BBX 14 14 1 -2
BITMAP
0FC0
3060
6010
C018
CF8C
98CC
8F84
80C4
98CC
CFCC
C018
6030
3CE0
0FC0
ENDCHAR
STARTCHAR 24E3
ENCODING 9443
SWIDTH 900 0
DWIDTH 15 0
BBX 14 14 1 -2
BITMAP
0FC0
3060
6210
C218
C20C
8F8C
8204
8204
820C
C20C
C398
6030
3CE0
0FC0
ENDCHAR
STARTCHAR 24E4
ENCODING 9444
SWIDTH 900 0
DWIDTH 15 0
BBX 14 14 1 -2
BITMAP
0FC0
3060
6010
C018
D8CC
98CC
98C4
98C4
98CC
CFCC
C018
6030
3CE0
0FC0
ENDCHAR
STARTCHAR 24E5
ENCODING 9445
SWIDTH 900 0
DWIDTH 15 0
BBX 14 14 1 -2
BITMAP
0FC0
3060
6010
C018
C8CC
8CCC
8C84
8584
870C
C70C
C018
6030
3CE0
0FC0
ENDCHAR
STARTCHAR 24E6
ENCODING 9446
SWIDTH 900 0
DWIDTH 15 0
BBX 14 14 1 -2
BITMAP
0FC0
3060
6010
C018
B32C
B72C
9564
95E4
9CCC
DCCC
C018
6030
3CE0
0FC0
ENDCHAR
STARTCHAR 24E7
ENCODING 9447
SWIDTH 900 0
DWIDTH 15 0
BBX 14 14 1 -2
BITMAP
0FC0
3060
6010
C018
CCCC
878C
8704
8704
8D8C
CCCC
C018
6030
3CE0
0FC0
ENDCHAR
STARTCHAR 24E8
ENCODING 9448
SWIDTH 900 0
DWIDTH 15 0
BBX 14 14 1 -2
BITMAP
0FC0
3060
6010
C018
C8CC
8C8C
8D84
8704
870C
C30C
C618
6630
3CE0
0FC0
ENDCHAR
STARTCHAR 24E9
ENCODING 9449
SWIDTH 900 0
DWIDTH 15 0
BBX 14 14 1 -2
BITMAP
0FC0
3060
6010
C018
CFCC
81CC
8304
8604
8C0C
CFCC
C018
6030
3CE0
0FC0
ENDCHAR
STARTCHAR 2500
ENCODING 9472
SWIDTH 900 0
DWIDTH 15 0
BBX 15 1 0 5
BITMAP
FFFE
ENDCHAR
STARTCHAR 2501
ENCODING 9473
SWIDTH 900 0
DWIDTH 15 0
BBX 15 1 0 5
BITMAP
FFFE
ENDCHAR
STARTCHAR 2502
ENCODING 9474
SWIDTH 900 0
DWIDTH 15 0
BBX 1 17 7 -3
BITMAP
80
80
80
80
80
80
80
80
80
80
80
80
80
80
80
80
80
ENDCHAR
STARTCHAR 2503
ENCODING 9475
SWIDTH 900 0
DWIDTH 15 0
BBX 1 17 7 -3
BITMAP
80
80
80
80
80
80
80
80
80
80
80
80
80
80
80
80
80
ENDCHAR
STARTCHAR 250C
ENCODING 9484
SWIDTH 900 0
DWIDTH 15 0
BBX 8 9 7 -3
BITMAP
FF
80
80
80
80
80
80
80
80
ENDCHAR
STARTCHAR 250D
ENCODING 9485
SWIDTH 900 0
DWIDTH 15 0
BBX 8 9 7 -3
BITMAP
FF
80
80
80
80
80
80
80
80
ENDCHAR
STARTCHAR 250E
ENCODING 9486
SWIDTH 900 0
DWIDTH 15 0
BBX 8 9 7 -3
BITMAP
FF
80
80
80
80
80
80
80
80
ENDCHAR
STARTCHAR 250F
ENCODING 9487
SWIDTH 900 0
DWIDTH 15 0
BBX 8 9 7 -3
BITMAP
FF
80
80
80
80
80
80
80
80
ENDCHAR
STARTCHAR 2510
ENCODING 9488
SWIDTH 900 0
DWIDTH 15 0
BBX 8 9 0 -3
BITMAP
FF
01
01
01
01
01
01
01
01
ENDCHAR
STARTCHAR 2511
ENCODING 9489
SWIDTH 900 0
DWIDTH 15 0
BBX 8 9 0 -3
BITMAP
FF
01
01
01
01
01
01
01
01
ENDCHAR
STARTCHAR 2512
ENCODING 9490
SWIDTH 900 0
DWIDTH 15 0
BBX 8 9 0 -3
BITMAP
FF
01
01
01
01
01
01
01
01
ENDCHAR
STARTCHAR 2513
ENCODING 9491
SWIDTH 900 0
DWIDTH 15 0
BBX 8 9 0 -3
BITMAP
FF
01
01
01
01
01
01
01
01
ENDCHAR
STARTCHAR 2514
ENCODING 9492
SWIDTH 900 0
DWIDTH 15 0
BBX 8 9 7 4
BITMAP
80
80
80
80
80
80
80
80
FF
ENDCHAR
STARTCHAR 2515
ENCODING 9493
SWIDTH 900 0
DWIDTH 15 0
BBX 8 9 7 4
BITMAP
80
80
80
80
80
80
80
80
FF
ENDCHAR
STARTCHAR 2516
ENCODING 9494
SWIDTH 900 0
DWIDTH 15 0
BBX 8 9 7 4
BITMAP
80
80
80
80
80
80
80
80
FF
ENDCHAR
STARTCHAR 2517
ENCODING 9495
SWIDTH 900 0
DWIDTH 15 0
BBX 8 9 7 4
BITMAP
80
80
80
80
80
80
80
80
FF
ENDCHAR
STARTCHAR 2518
ENCODING 9496
SWIDTH 900 0
DWIDTH 15 0
BBX 8 9 0 4
BITMAP
01
01
01
01
01
01
01
01
FF
ENDCHAR
STARTCHAR 2519
ENCODING 9497
SWIDTH 900 0
DWIDTH 15 0
BBX 8 9 0 4
BITMAP
01
01
01
01
01
01
01
01
FF
ENDCHAR
STARTCHAR 251A
ENCODING 9498
SWIDTH 900 0
DWIDTH 15 0
BBX 8 9 0 4
BITMAP
01
01
01
01
01
01
01
01
FF
ENDCHAR
STARTCHAR 251B
ENCODING 9499
SWIDTH 900 0
DWIDTH 15 0
BBX 8 9 0 4
BITMAP
01
01
01
01
01
01
01
01
FF
ENDCHAR
STARTCHAR 251C
ENCODING 9500
SWIDTH 900 0
DWIDTH 15 0
BBX 8 17 7 -3
BITMAP
80
80
80
80
80
80
80
80
FF
80
80
80
80
80
80
80
80
ENDCHAR
STARTCHAR 251D
ENCODING 9501
SWIDTH 900 0
DWIDTH 15 0
BBX 8 17 7 -3
BITMAP
80
80
80
80
80
80
80
80
FF
80
80
80
80
80
80
80
80
ENDCHAR
STARTCHAR 251E
ENCODING 9502
SWIDTH 900 0
DWIDTH 15 0
BBX 8 17 7 -3
BITMAP
80
80
80
80
80
80
80
80
FF
80
80
80
80
80
80
80
80
ENDCHAR
STARTCHAR 251F
ENCODING 9503
SWIDTH 900 0
DWIDTH 15 0
BBX 8 17 7 -3
BITMAP
80
80
80
80
80
80
80
80
FF
80
80
80
80
80
80
80
80
ENDCHAR
STARTCHAR 2520
ENCODING 9504
SWIDTH 900 0
DWIDTH 15 0
BBX 8 17 7 -3
BITMAP
80
80
80
80
80
80
80
80
FF
80
80
80
80
80
80
80
80
ENDCHAR
STARTCHAR 2521
ENCODING 9505
SWIDTH 900 0
DWIDTH 15 0
BBX 8 17 7 -3
BITMAP
80
80
80
80
80
80
80
80
FF
80
80
80
80
80
80
80
80
ENDCHAR
STARTCHAR 2522
ENCODING 9506
SWIDTH 900 0
DWIDTH 15 0
BBX 8 17 7 -3
BITMAP
80
80
80
80
80
80
80
80
FF
80
80
80
80
80
80
80
80
ENDCHAR
STARTCHAR 2523
ENCODING 9507
SWIDTH 900 0
DWIDTH 15 0
BBX 8 17 7 -3
BITMAP
80
80
80
80
80
80
80
80
FF
80
80
80
80
80
80
80
80
ENDCHAR
STARTCHAR 2524
ENCODING 9508
SWIDTH 900 0
DWIDTH 15 0
BBX 8 17 0 -3
BITMAP
01
01
01
01
01
01
01
01
FF
01
01
01
01
01
01
01
01
ENDCHAR
STARTCHAR 2525
ENCODING 9509
SWIDTH 900 0
DWIDTH 15 0
BBX 8 17 0 -3
BITMAP
01
01
01
01
01
01
01
01
FF
01
01
01
01
01
01
01
01
ENDCHAR
STARTCHAR 2526
ENCODING 9510
SWIDTH 900 0
DWIDTH 15 0
BBX 8 17 0 -3
BITMAP
01
01
01
01
01
01
01
01
FF
01
01
01
01
01
01
01
01
ENDCHAR
STARTCHAR 2527
ENCODING 9511
SWIDTH 900 0
DWIDTH 15 0
BBX 8 17 0 -4
BITMAP
01
01
01
01
01
01
01
01
FF
01
01
01
01
01
01
01
01
ENDCHAR
STARTCHAR 2528
ENCODING 9512
SWIDTH 900 0
DWIDTH 15 0
BBX 8 17 0 -3
BITMAP
01
01
01
01
01
01
01
01
FF
01
01
01
01
01
01
01
01
ENDCHAR
STARTCHAR 2529
ENCODING 9513
SWIDTH 900 0
DWIDTH 15 0
BBX 8 17 0 -3
BITMAP
01
01
01
01
01
01
01
01
FF
01
01
01
01
01
01
01
01
ENDCHAR
STARTCHAR 252A
ENCODING 9514
SWIDTH 900 0
DWIDTH 15 0
BBX 8 17 0 -3
BITMAP
01
01
01
01
01
01
01
01
FF
01
01
01
01
01
01
01
01
ENDCHAR
STARTCHAR 252B
ENCODING 9515
SWIDTH 900 0
DWIDTH 15 0
BBX 8 17 0 -3
BITMAP
01
01
01
01
01
01
01
01
FF
01
01
01
01
01
01
01
01
ENDCHAR
STARTCHAR 252C
ENCODING 9516
SWIDTH 900 0
DWIDTH 15 0
BBX 15 9 0 -3
BITMAP
FFFE
0100
0100
0100
0100
0100
0100
0100
0100
ENDCHAR
STARTCHAR 252D
ENCODING 9517
SWIDTH 900 0
DWIDTH 15 0
BBX 15 9 0 -3
BITMAP
FFFE
0100
0100
0100
0100
0100
0100
0100
0100
ENDCHAR
STARTCHAR 252E
ENCODING 9518
SWIDTH 900 0
DWIDTH 15 0
BBX 15 9 0 -3
BITMAP
FFFE
0100
0100
0100
0100
0100
0100
0100
0100
ENDCHAR
STARTCHAR 252F
ENCODING 9519
SWIDTH 900 0
DWIDTH 15 0
BBX 15 9 0 -3
BITMAP
FFFE
0100
0100
0100
0100
0100
0100
0100
0100
ENDCHAR
STARTCHAR 2530
ENCODING 9520
SWIDTH 900 0
DWIDTH 15 0
BBX 15 9 0 -3
BITMAP
FFFE
0100
0100
0100
0100
0100
0100
0100
0100
ENDCHAR
STARTCHAR 2531
ENCODING 9521
SWIDTH 900 0
DWIDTH 15 0
BBX 15 9 0 -3
BITMAP
FFFE
0100
0100
0100
0100
0100
0100
0100
0100
ENDCHAR
STARTCHAR 2532
ENCODING 9522
SWIDTH 900 0
DWIDTH 15 0
BBX 15 9 0 -3
BITMAP
FFFE
0100
0100
0100
0100
0100
0100
0100
0100
ENDCHAR
STARTCHAR 2533
ENCODING 9523
SWIDTH 900 0
DWIDTH 15 0
BBX 15 9 0 -3
BITMAP
FFFE
0100
0100
0100
0100
0100
0100
0100
0100
ENDCHAR
STARTCHAR 2534
ENCODING 9524
SWIDTH 900 0
DWIDTH 15 0
BBX 15 9 0 4
BITMAP
0100
0100
0100
0100
0100
0100
0100
0100
FFFE
ENDCHAR
STARTCHAR 2535
ENCODING 9525
SWIDTH 900 0
DWIDTH 15 0
BBX 15 9 0 4
BITMAP
0100
0100
0100
0100
0100
0100
0100
0100
FFFE
ENDCHAR
STARTCHAR 2536
ENCODING 9526
SWIDTH 900 0
DWIDTH 15 0
BBX 15 9 0 4
BITMAP
0100
0100
0100
0100
0100
0100
0100
0100
FFFE
ENDCHAR
STARTCHAR 2537
ENCODING 9527
SWIDTH 900 0
DWIDTH 15 0
BBX 15 9 0 4
BITMAP
0100
0100
0100
0100
0100
0100
0100
0100
FFFE
ENDCHAR
STARTCHAR 2538
ENCODING 9528
SWIDTH 900 0
DWIDTH 15 0
BBX 15 9 0 4
BITMAP
0100
0100
0100
0100
0100
0100
0100
0100
FFFE
ENDCHAR
STARTCHAR 2539
ENCODING 9529
SWIDTH 900 0
DWIDTH 15 0
BBX 15 9 0 4
BITMAP
0100
0100
0100
0100
0100
0100
0100
0100
FFFE
ENDCHAR
STARTCHAR 253A
ENCODING 9530
SWIDTH 900 0
DWIDTH 15 0
BBX 15 9 0 4
BITMAP
0100
0100
0100
0100
0100
0100
0100
0100
FFFE
ENDCHAR
STARTCHAR 253B
ENCODING 9531
SWIDTH 900 0
DWIDTH 15 0
BBX 15 9 0 4
BITMAP
0100
0100
0100
0100
0100
0100
0100
0100
FFFE
ENDCHAR
STARTCHAR 253C
ENCODING 9532
SWIDTH 900 0
DWIDTH 15 0
BBX 15 17 0 -3
BITMAP
0100
0100
0100
0100
0100
0100
0100
0100
FFFE
0100
0100
0100
0100
0100
0100
0100
0100
ENDCHAR
STARTCHAR 253D
ENCODING 9533
SWIDTH 900 0
DWIDTH 15 0
BBX 15 17 0 -3
BITMAP
0100
0100
0100
0100
0100
0100
0100
0100
FFFE
0100
0100
0100
0100
0100
0100
0100
0100
ENDCHAR
STARTCHAR 253E
ENCODING 9534
SWIDTH 900 0
DWIDTH 15 0
BBX 15 17 0 -3
BITMAP
0100
0100
0100
0100
0100
0100
0100
0100
FFFE
0100
0100
0100
0100
0100
0100
0100
0100
ENDCHAR
STARTCHAR 253F
ENCODING 9535
SWIDTH 900 0
DWIDTH 15 0
BBX 15 17 0 -3
BITMAP
0100
0100
0100
0100
0100
0100
0100
0100
FFFE
0100
0100
0100
0100
0100
0100
0100
0100
ENDCHAR
STARTCHAR 2540
ENCODING 9536
SWIDTH 900 0
DWIDTH 15 0
BBX 15 17 0 -3
BITMAP
0100
0100
0100
0100
0100
0100
0100
0100
FFFE
0100
0100
0100
0100
0100
0100
0100
0100
ENDCHAR
STARTCHAR 2541
ENCODING 9537
SWIDTH 900 0
DWIDTH 15 0
BBX 15 17 0 -3
BITMAP
0100
0100
0100
0100
0100
0100
0100
0100
FFFE
0100
0100
0100
0100
0100
0100
0100
0100
ENDCHAR
STARTCHAR 2542
ENCODING 9538
SWIDTH 900 0
DWIDTH 15 0
BBX 15 17 0 -3
BITMAP
0100
0100
0100
0100
0100
0100
0100
0100
FFFE
0100
0100
0100
0100
0100
0100
0100
0100
ENDCHAR
STARTCHAR 2543
ENCODING 9539
SWIDTH 900 0
DWIDTH 15 0
BBX 15 17 0 -3
BITMAP
0100
0100
0100
0100
0100
0100
0100
0100
FFFE
0100
0100
0100
0100
0100
0100
0100
0100
ENDCHAR
STARTCHAR 2544
ENCODING 9540
SWIDTH 900 0
DWIDTH 15 0
BBX 15 17 0 -3
BITMAP
0100
0100
0100
0100
0100
0100
0100
0100
FFFE
0100
0100
0100
0100
0100
0100
0100
0100
ENDCHAR
STARTCHAR 2545
ENCODING 9541
SWIDTH 900 0
DWIDTH 15 0
BBX 15 17 0 -3
BITMAP
0100
0100
0100
0100
0100
0100
0100
0100
FFFE
0100
0100
0100
0100
0100
0100
0100
0100
ENDCHAR
STARTCHAR 2546
ENCODING 9542
SWIDTH 900 0
DWIDTH 15 0
BBX 15 17 0 -3
BITMAP
0100
0100
0100
0100
0100
0100
0100
0100
FFFE
0100
0100
0100
0100
0100
0100
0100
0100
ENDCHAR
STARTCHAR 2547
ENCODING 9543
SWIDTH 900 0
DWIDTH 15 0
BBX 15 17 0 -3
BITMAP
0100
0100
0100
0100
0100
0100
0100
0100
FFFE
0100
0100
0100
0100
0100
0100
0100
0100
ENDCHAR
STARTCHAR 2548
ENCODING 9544
SWIDTH 900 0
DWIDTH 15 0
BBX 15 17 0 -3
BITMAP
0100
0100
0100
0100
0100
0100
0100
0100
FFFE
0100
0100
0100
0100
0100
0100
0100
0100
ENDCHAR
STARTCHAR 2549
ENCODING 9545
SWIDTH 900 0
DWIDTH 15 0
BBX 15 17 0 -3
BITMAP
0100
0100
0100
0100
0100
0100
0100
0100
FFFE
0100
0100
0100
0100
0100
0100
0100
0100
ENDCHAR
STARTCHAR 254A
ENCODING 9546
SWIDTH 900 0
DWIDTH 15 0
BBX 15 17 0 -3
BITMAP
0100
0100
0100
0100
0100
0100
0100
0100
FFFE
0100
0100
0100
0100
0100
0100
0100
0100
ENDCHAR
STARTCHAR 254B
ENCODING 9547
SWIDTH 900 0
DWIDTH 15 0
BBX 15 17 0 -3
BITMAP
0100
0100
0100
0100
0100
0100
0100
0100
FFFE
0100
0100
0100
0100
0100
0100
0100
0100
ENDCHAR
STARTCHAR 2592
ENCODING 9618
SWIDTH 900 0
DWIDTH 15 0
BBX 13 13 1 -1
BITMAP
FFF8
A528
8008
8008
8008
AA98
8008
8008
B568
8008
8008
AA98
FFF8
ENDCHAR
STARTCHAR 25A0
ENCODING 9632
SWIDTH 900 0
DWIDTH 15 0
BBX 13 13 1 -1
BITMAP
FFF8
FFF8
FFF8
FFF8
FFF8
FFF8
FFF8
FFF8
FFF8
FFF8
FFF8
FFF8
FFF8
ENDCHAR
STARTCHAR 25A1
ENCODING 9633
SWIDTH 900 0
DWIDTH 15 0
BBX 13 13 1 -1
BITMAP
FFF8
8008
8008
8008
8008
8008
8008
8008
8008
8008
8008
8008
FFF8
ENDCHAR
STARTCHAR 25A3
ENCODING 9635
SWIDTH 900 0
DWIDTH 15 0
BBX 13 13 1 -1
BITMAP
FFF8
8008
8008
9FC8
9FC8
9FC8
9FC8
9FC8
9FC8
9FC8
9FC8
8008
FFF8
ENDCHAR
STARTCHAR 25A4
ENCODING 9636
SWIDTH 900 0
DWIDTH 15 0
BBX 13 13 1 -1
BITMAP
FFF8
8008
8008
FFF8
8008
8008
FFF8
8008
8008
FFF8
8008
8008
FFF8
ENDCHAR
STARTCHAR 25A5
ENCODING 9637
SWIDTH 900 0
DWIDTH 15 0
BBX 13 13 1 -1
BITMAP
FFF8
9248
9248
9248
9248
9248
9248
9248
9248
9248
9248
9248
FFF8
ENDCHAR
STARTCHAR 25A6
ENCODING 9638
SWIDTH 900 0
DWIDTH 15 0
BBX 13 13 1 -1
BITMAP
FFF8
9248
9248
FFF8
9248
9248
FFF8
9248
9248
FFF8
9248
9248
FFF8
ENDCHAR
STARTCHAR 25A7
ENCODING 9639
SWIDTH 900 0
DWIDTH 15 0
BBX 13 13 1 -1
BITMAP
FFF8
C628
A338
9198
88C8
C468
E238
B118
9888
CC48
E628
B318
FFF8
ENDCHAR
STARTCHAR 25A8
ENCODING 9640
SWIDTH 900 0
DWIDTH 15 0
BBX 13 13 1 -1
BITMAP
FFF8
B318
E628
CC48
9888
B118
E238
C468
88C8
9198
A338
C668
FFF8
ENDCHAR
STARTCHAR 25A9
ENCODING 9641
SWIDTH 900 0
DWIDTH 15 0
BBX 13 13 1 -1
BITMAP
FFF8
DDD8
B368
F778
CC98
DD58
B228
F558
C888
F558
B228
DD58
FFF8
ENDCHAR
STARTCHAR 25B2
ENCODING 9650
SWIDTH 900 0
DWIDTH 15 0
BBX 14 13 1 -1
BITMAP
0200
0200
0700
0780
0F80
0FC0
1FC0
3FE0
3FE0
7FF0
7FF8
FFF8
FFFC
ENDCHAR
STARTCHAR 25B3
ENCODING 9651
SWIDTH 900 0
DWIDTH 15 0
BBX 14 13 1 -1
BITMAP
0200
0200
0700
0580
0C80
08C0
1840
3060
2020
6030
4018
C008
FFFC
ENDCHAR
STARTCHAR 25B6
ENCODING 9654
SWIDTH 900 0
DWIDTH 15 0
BBX 12 14 2 -1
BITMAP
C000
F000
F800
FE00
FF80
FFE0
FFF0
FFE0
FFC0
FF00
FC00
F000
E000
8000
ENDCHAR
STARTCHAR 25B7
ENCODING 9655
SWIDTH 900 0
DWIDTH 15 0
BBX 13 14 2 -1
BITMAP
C000
F000
9C00
8E00
8380
80E0
8038
8070
81C0
8700
8C00
B800
E000
8000
ENDCHAR
STARTCHAR 25BC
ENCODING 9660
SWIDTH 900 0
DWIDTH 15 0
BBX 15 13 0 -1
BITMAP
FFFE
7FFC
3FFC
3FF8
1FF8
1FF0
0FE0
0FE0
07C0
03C0
0380
0180
0100
ENDCHAR
STARTCHAR 25BD
ENCODING 9661
SWIDTH 900 0
DWIDTH 15 0
BBX 15 13 0 -1
BITMAP
FFFE
6004
200C
3008
1018
1830
0820
0C60
0640
02C0
0380
0180
0100
ENDCHAR
STARTCHAR 25C0
ENCODING 9664
SWIDTH 900 0
DWIDTH 15 0
BBX 13 15 1 -2
BITMAP
0008
0038
00F8
01F8
07F8
1FF8
7FF8
FFF8
7FF8
1FF8
07F8
01F8
00F8
0038
0008
ENDCHAR
STARTCHAR 25C1
ENCODING 9665
SWIDTH 900 0
DWIDTH 15 0
BBX 13 15 1 -2
BITMAP
0008
0038
0078
01C8
0708
0C08
3008
E008
3008
1C08
0708
01C8
0068
0038
0008
ENDCHAR
STARTCHAR 25C6
ENCODING 9670
SWIDTH 900 0
DWIDTH 15 0
BBX 14 14 1 -2
BITMAP
0200
0700
0F80
1FC0
3FE0
7FF0
FFF8
FFFC
7FF8
3FF0
1FE0
0FC0
0780
0300
ENDCHAR
STARTCHAR 25C7
ENCODING 9671
SWIDTH 900 0
DWIDTH 15 0
BBX 14 14 1 -2
BITMAP
0200
0700
0C80
1840
3020
6010
C008
C00C
6018
3030
1860
0CC0
0780
0300
ENDCHAR
STARTCHAR 25C8
ENCODING 9672
SWIDTH 900 0
DWIDTH 15 0
BBX 14 14 1 -2
BITMAP
0200
0700
0C80
1840
3320
6790
CFC8
DFCC
6F98
3730
1A60
0CC0
0780
0300
ENDCHAR
STARTCHAR 25CB
ENCODING 9675
SWIDTH 900 0
DWIDTH 15 0
BBX 14 14 1 -2
BITMAP
0FC0
3060
6010
C018
C00C
800C
8004
8004
800C
C00C
C018
6030
3CE0
0FC0
ENDCHAR
STARTCHAR 25CE
ENCODING 9678
SWIDTH 900 0
DWIDTH 15 0
BBX 14 14 1 -2
BITMAP
0FC0
3060
6010
C798
DCCC
986C
9024
9064
986C
CDCC
C798
6030
3CE0
0FC0
ENDCHAR
STARTCHAR 25CF
ENCODING 9679
SWIDTH 900 0
DWIDTH 15 0
BBX 14 14 1 -2
BITMAP
1FC0
3FF0
7FF8
FFF8
FFFC
FFFC
FFFC
FFFC
FFFC
FFFC
FFF8
7FF0
3FE0
0FC0
ENDCHAR
STARTCHAR 25D0
ENCODING 9680
SWIDTH 900 0
DWIDTH 15 0
BBX 15 14 0 -2
BITMAP
0FE0
1F38
3F0C
7F0C
7F06
7F06
FF02
FF02
7F06
7F06
7F0C
3F18
1F70
07E0
ENDCHAR
STARTCHAR 25D1
ENCODING 9681
SWIDTH 900 0
DWIDTH 15 0
BBX 14 14 1 -2
BITMAP
1FC0
33F0
63F8
C3F8
C3FC
83FC
83FC
83FC
83FC
C3FC
43F8
63F0
3BE0
0FC0
ENDCHAR
STARTCHAR 2605
ENCODING 9733
SWIDTH 900 0
DWIDTH 15 0
BBX 15 13 0 0
BITMAP
0100
0100
0180
0380
FFFE
3FFC
1FF0
0FE0
0FE0
0FE0
0EE0
1830
1010
ENDCHAR
STARTCHAR 2606
ENCODING 9734
SWIDTH 900 0
DWIDTH 15 0
BBX 14 13 1 -2
BITMAP
0200
0200
0300
0700
0500
FDFC
7030
18C0
08C0
1F40
1DC0
18E0
2020
ENDCHAR
STARTCHAR 260E
ENCODING 9742
SWIDTH 900 0
DWIDTH 15 0
BBX 14 10 1 0
BITMAP
1FE0
7FF8
F8BC
EFDC
FCFC
1860
1860
38F0
3FF0
3FF0
ENDCHAR
STARTCHAR 260F
ENCODING 9743
SWIDTH 900 0
DWIDTH 15 0
BBX 14 10 1 0
BITMAP
1FE0
EF98
9DE8
AAA4
D758
28A0
28A0
4720
4010
3FF0
ENDCHAR
STARTCHAR 261C
ENCODING 9756
SWIDTH 900 0
DWIDTH 15 0
BBX 13 6 1 2
BITMAP
FFD8
4938
3618
1D98
2E38
1DC0
ENDCHAR
STARTCHAR 261E
ENCODING 9758
SWIDTH 900 0
DWIDTH 15 0
BBX 13 7 1 2
BITMAP
0600
D9F8
E2F0
C540
CBC0
B1C0
4FC0
ENDCHAR
STARTCHAR 2640
ENCODING 9792
SWIDTH 900 0
DWIDTH 15 0
BBX 12 15 2 -2
BITMAP
0F00
3F80
31C0
70C0
70C0
31C0
3F80
1F00
0600
FFF0
FFF0
0600
0600
0600
0600
ENDCHAR
STARTCHAR 2642
ENCODING 9794
SWIDTH 900 0
DWIDTH 15 0
BBX 11 15 2 -2
BITMAP
0C00
1E00
3F00
7D80
ECE0
CC40
0C00
1E00
3F00
7380
6180
6180
7380
3F00
1E00
ENDCHAR
STARTCHAR 2660
ENCODING 9824
SWIDTH 900 0
DWIDTH 15 0
BBX 12 13 2 0
BITMAP
0400
0600
0F00
3F80
7FE0
FFE0
FFF0
FFF0
FFF0
7FE0
0E00
0F00
7FC0
ENDCHAR
STARTCHAR 2661
ENCODING 9825
SWIDTH 900 0
DWIDTH 15 0
BBX 12 13 2 -2
BITMAP
71E0
DF30
8630
8410
8430
C020
4060
60C0
3180
1900
0F00
0600
0400
ENDCHAR
STARTCHAR 2663
ENCODING 9827
SWIDTH 900 0
DWIDTH 15 0
BBX 13 13 1 0
BITMAP
0F80
0FC0
1FC0
1FC0
7FF0
FFF8
FFF8
FFF8
7FF8
3FF0
0700
0700
3FE0
ENDCHAR
STARTCHAR 2664
ENCODING 9828
SWIDTH 900 0
DWIDTH 15 0
BBX 11 14 2 -1
BITMAP
0400
0400
0E00
1B00
3180
60C0
C060
8020
8C20
CA60
7BC0
0A00
0A00
7FC0
ENDCHAR
STARTCHAR 2665
ENCODING 9829
SWIDTH 900 0
DWIDTH 15 0
BBX 12 13 2 -2
BITMAP
71C0
FBE0
FFF0
FFF0
FFF0
FFE0
7FE0
7FC0
3F80
1F00
0F00
0600
0400
ENDCHAR
STARTCHAR 2667
ENCODING 9831
SWIDTH 900 0
DWIDTH 15 0
BBX 13 13 1 -1
BITMAP
0F00
1880
10C0
10C0
78F0
C018
8008
8718
CF98
7DF0
0500
0D00
3FE0
ENDCHAR
STARTCHAR 2668
ENCODING 9832
SWIDTH 900 0
DWIDTH 15 0
BBX 15 14 0 -1
BITMAP
0500
0540
0940
0B40
0940
0D20
0520
05A0
2528
4544
8942
C806
701C
1FE0
ENDCHAR
STARTCHAR 2669
ENCODING 9833
SWIDTH 900 0
DWIDTH 15 0
BBX 4 13 5 -1
BITMAP
10
10
10
10
10
10
10
10
10
10
F0
F0
E0
ENDCHAR
STARTCHAR 266A
ENCODING 9834
SWIDTH 900 0
DWIDTH 15 0
BBX 10 14 3 -2
BITMAP
0800
0C00
0E00
0F00
0980
0980
08C0
0880
0880
0900
3A00
7800
F000
6000
ENDCHAR
STARTCHAR 266C
ENCODING 9836
SWIDTH 900 0
DWIDTH 15 0
BBX 12 14 1 -2
BITMAP
0070
07F0
0F10
09F0
0FF0
0C10
0810
0810
0810
08F0
39F0
79E0
F000
6000
ENDCHAR
STARTCHAR 266D
ENCODING 9837
SWIDTH 900 0
DWIDTH 15 0
BBX 6 13 6 -1
BITMAP
C0
C0
C0
C0
C0
F8
F8
CC
CC
C8
D8
F0
E0
ENDCHAR
STARTCHAR 3000
ENCODING 12288
SWIDTH 900 0
DWIDTH 15 0
BBX 0 0 0 0
BITMAP
ENDCHAR
STARTCHAR 3001
ENCODING 12289
SWIDTH 480 0
DWIDTH 8 0
BBX 3 4 2 -3
BITMAP
C0
60
60
20
ENDCHAR
STARTCHAR 3002
ENCODING 12290
SWIDTH 480 0
DWIDTH 8 0
BBX 4 4 2 -3
BITMAP
E0
90
90
60
ENDCHAR
STARTCHAR 3003
ENCODING 12291
SWIDTH 900 0
DWIDTH 15 0
BBX 5 5 5 3
BITMAP
68
58
D0
B0
20
ENDCHAR
STARTCHAR 3008
ENCODING 12296
SWIDTH 360 0
DWIDTH 6 0
BBX 5 15 0 -3
BITMAP
18
38
38
30
70
60
60
E0
60
60
70
30
38
18
18
ENDCHAR
STARTCHAR 3009
ENCODING 12297
SWIDTH 360 0
DWIDTH 6 0
BBX 5 15 0 -3
BITMAP
E0
60
70
70
30
38
18
18
18
38
30
70
60
60
E0
ENDCHAR
STARTCHAR 300A
ENCODING 12298
SWIDTH 420 0
DWIDTH 7 0
BBX 7 15 0 -3
BITMAP
16
34
3C
28
78
78
50
F0
50
78
68
2C
3C
14
16
ENDCHAR
STARTCHAR 300B
ENCODING 12299
SWIDTH 420 0
DWIDTH 7 0
BBX 7 15 0 -3
BITMAP
F0
50
78
68
2C
3C
14
16
14
3C
2C
68
78
50
F0
ENDCHAR
STARTCHAR 300C
ENCODING 12300
SWIDTH 480 0
DWIDTH 8 0
BBX 5 7 2 6
BITMAP
F8
80
80
80
80
80
80
ENDCHAR
STARTCHAR 300D
ENCODING 12301
SWIDTH 480 0
DWIDTH 8 0
BBX 5 6 0 -3
BITMAP
08
08
08
08
08
F8
ENDCHAR
STARTCHAR 300E
ENCODING 12302
SWIDTH 480 0
DWIDTH 8 0
BBX 5 6 2 7
BITMAP
F8
F8
C0
C0
C0
C0
ENDCHAR
STARTCHAR 300F
ENCODING 12303
SWIDTH 480 0
DWIDTH 8 0
BBX 5 6 0 -3
BITMAP
18
18
18
18
F8
F8
ENDCHAR
STARTCHAR 3010
ENCODING 12304
SWIDTH 480 0
DWIDTH 8 0
BBX 6 16 1 -3
BITMAP
FC
F8
F0
E0
E0
E0
C0
C0
C0
C0
C0
E0
E0
F0
F8
FC
ENDCHAR
STARTCHAR 3011
ENCODING 12305
SWIDTH 480 0
DWIDTH 8 0
BBX 6 16 1 -3
BITMAP
FC
7C
3C
1C
1C
0C
0C
0C
0C
0C
1C
1C
1C
3C
7C
FC
ENDCHAR
STARTCHAR 3013
ENCODING 12307
SWIDTH 900 0
DWIDTH 15 0
BBX 12 7 2 2
BITMAP
FFF0
FFF0
0000
0000
0000
FFF0
FFF0
ENDCHAR
STARTCHAR 3014
ENCODING 12308
SWIDTH 480 0
DWIDTH 8 0
BBX 6 16 2 -3
BITMAP
1C
FC
F0
C0
C0
C0
C0
C0
C0
C0
C0
C0
C0
F0
7C
0C
ENDCHAR
STARTCHAR 3015
ENCODING 12309
SWIDTH 480 0
DWIDTH 8 0
BBX 6 16 0 -3
BITMAP
E0
FC
3C
0C
0C
0C
0C
0C
0C
0C
0C
0C
0C
3C
F8
C0
ENDCHAR
STARTCHAR 3041
ENCODING 12353
SWIDTH 900 0
DWIDTH 15 0
BBX 9 9 3 0
BITMAP
1800
7E00
7C00
1E00
3F80
7D80
D980
FB80
F300
ENDCHAR
STARTCHAR 3042
ENCODING 12354
SWIDTH 900 0
DWIDTH 15 0
BBX 12 14 1 -2
BITMAP
0C00
0D00
7F00
7E00
1980
1FC0
3FE0
7B70
7E30
DE30
DC30
FCE0
79C0
0180
ENDCHAR
STARTCHAR 3043
ENCODING 12355
SWIDTH 900 0
DWIDTH 15 0
BBX 9 8 3 -2
BITMAP
8000
C200
C300
C300
C180
7180
7800
3000
ENDCHAR
STARTCHAR 3044
ENCODING 12356
SWIDTH 900 0
DWIDTH 15 0
BBX 13 10 1 0
BITMAP
C000
C0C0
C0E0
C070
C030
C038
6438
6C00
7C00
3800
ENDCHAR
STARTCHAR 3045
ENCODING 12357
SWIDTH 900 0
DWIDTH 15 0
BBX 7 11 4 -2
BITMAP
10
3C
0C
3C
FE
66
06
06
0C
1C
08
ENDCHAR
STARTCHAR 3046
ENCODING 12358
SWIDTH 900 0
DWIDTH 15 0
BBX 8 15 4 -2
BITMAP
10
3C
1E
04
1E
FE
E7
43
03
03
07
06
0E
3C
08
ENDCHAR
STARTCHAR 3047
ENCODING 12359
SWIDTH 900 0
DWIDTH 15 0
BBX 8 10 4 -2
BITMAP
38
1C
00
FC
78
30
78
68
CF
8F
ENDCHAR
STARTCHAR 3048
ENCODING 12360
SWIDTH 900 0
DWIDTH 15 0
BBX 12 14 2 -1
BITMAP
0800
0F80
0700
0000
1F00
7F00
3600
0E00
1E00
1F00
3300
7310
E3F0
41E0
ENDCHAR
STARTCHAR 3049
ENCODING 12361
SWIDTH 900 0
DWIDTH 15 0
BBX 9 9 3 -2
BITMAP
3000
FB80
7980
3F80
3F80
F180
F180
F700
7600
ENDCHAR
STARTCHAR 304A
ENCODING 12362
SWIDTH 900 0
DWIDTH 15 0
BBX 13 13 1 -1
BITMAP
1C00
1860
7E70
7E38
1810
1FC0
1FE0
3870
F830
D830
F8E0
79C0
3800
ENDCHAR
STARTCHAR 304B
ENCODING 12363
SWIDTH 900 0
DWIDTH 15 0
BBX 15 13 0 -1
BITMAP
0400
0600
0600
0FB0
7FF8
7EDC
1CCE
18C4
18C0
31C0
7180
E780
2700
ENDCHAR
STARTCHAR 304C
ENCODING 12364
SWIDTH 900 0
DWIDTH 15 0
BBX 15 14 0 -1
BITMAP
0004
0C06
061A
0E08
0FB0
7FF8
7CDC
1CCC
18CC
38C0
31C0
7180
E780
2700
ENDCHAR
STARTCHAR 304D
ENCODING 12365
SWIDTH 900 0
DWIDTH 15 0
BBX 10 14 3 -2
BITMAP
1900
1F00
7F00
7D80
1FC0
7E00
7300
3F80
7F80
C380
C000
E000
7E00
3E00
ENDCHAR
STARTCHAR 304E
ENCODING 12366
SWIDTH 900 0
DWIDTH 15 0
BBX 13 15 2 -2
BITMAP
0830
19F8
1F70
7F20
7D80
1FC0
7E00
7300
3F80
7FC0
C380
C000
E000
7E00
3E00
ENDCHAR
STARTCHAR 304F
ENCODING 12367
SWIDTH 900 0
DWIDTH 15 0
BBX 6 14 5 -1
BITMAP
18
1C
38
70
60
E0
C0
E0
60
30
38
1C
0C
08
ENDCHAR
STARTCHAR 3050
ENCODING 12368
SWIDTH 900 0
DWIDTH 15 0
BBX 10 14 3 -1
BITMAP
1800
1C00
3980
32C0
7380
E300
C000
C000
6000
3000
3800
1C00
1C00
0800
ENDCHAR
STARTCHAR 3051
ENCODING 12369
SWIDTH 900 0
DWIDTH 15 0
BBX 12 13 1 -2
BITMAP
60C0
60C0
60D0
CFF0
C7E0
C0C0
C0C0
E0C0
F0C0
E0C0
E1C0
6180
4700
ENDCHAR
STARTCHAR 3052
ENCODING 12370
SWIDTH 900 0
DWIDTH 15 0
BBX 14 14 1 0
BITMAP
000C
61F4
60D8
60D0
CFF0
CFE0
C0C0
C0C0
E0C0
F0C0
E1C0
E180
6380
0700
ENDCHAR
STARTCHAR 3053
ENCODING 12371
SWIDTH 900 0
DWIDTH 15 0
BBX 10 11 3 0
BITMAP
38C0
3F80
1F80
0200
0400
0000
4000
C000
C000
FFC0
7FC0
ENDCHAR
STARTCHAR 3054
ENCODING 12372
SWIDTH 900 0
DWIDTH 15 0
BBX 13 11 1 0
BITMAP
38C0
3FB8
1FF8
0330
0620
0000
4000
C000
C000
FFC0
7FC0
ENDCHAR
STARTCHAR 3055
ENCODING 12373
SWIDTH 900 0
DWIDTH 15 0
BBX 10 13 3 -1
BITMAP
1C00
0C80
0F80
7F80
7700
0300
3F80
7FC0
C180
C000
E000
7E00
1E00
ENDCHAR
STARTCHAR 3056
ENCODING 12374
SWIDTH 900 0
DWIDTH 15 0
BBX 13 14 1 -1
BITMAP
0010
1C58
0CF0
0FA0
7F80
7F00
0300
3F80
7FC0
C180
C000
E000
7E00
1E00
ENDCHAR
STARTCHAR 3057
ENCODING 12375
SWIDTH 900 0
DWIDTH 15 0
BBX 9 13 3 -1
BITMAP
C000
E000
C000
C000
C000
C000
C000
C000
C180
C180
C780
7F00
7C00
ENDCHAR
STARTCHAR 3058
ENCODING 12376
SWIDTH 900 0
DWIDTH 15 0
BBX 9 13 3 -1
BITMAP
C000
E380
C780
C600
C200
C000
C000
C000
C180
C180
C780
7F00
7C00
ENDCHAR
STARTCHAR 3059
ENCODING 12377
SWIDTH 900 0
DWIDTH 15 0
BBX 13 14 1 -2
BITMAP
0380
0300
FFF8
FFF8
0F00
1F00
1B80
1B80
1F80
0F00
0300
0700
1E00
0400
ENDCHAR
STARTCHAR 305A
ENCODING 12378
SWIDTH 900 0
DWIDTH 15 0
BBX 14 15 1 -3
BITMAP
0018
003C
0370
0320
FFF0
FFF0
0F00
1F00
1B00
1B00
1F00
0F00
0700
0E00
1C00
ENDCHAR
STARTCHAR 305B
ENCODING 12379
SWIDTH 900 0
DWIDTH 15 0
BBX 13 12 1 -1
BITMAP
18C0
18C0
18C0
FFF8
FFF8
D8C0
18C0
1BC0
1980
1800
1FE0
0FE0
ENDCHAR
STARTCHAR 305C
ENCODING 12380
SWIDTH 900 0
DWIDTH 15 0
BBX 14 13 1 0
BITMAP
000C
18F4
18D8
18C8
FFF8
FFF8
D8C0
18C0
1BC0
1980
1800
1FE0
0FE0
ENDCHAR
STARTCHAR 305D
ENCODING 12381
SWIDTH 900 0
DWIDTH 15 0
BBX 12 13 2 -2
BITMAP
0180
31C0
3B80
1B00
07F0
FFF0
FF80
4600
0C00
0C00
0E00
07C0
0380
ENDCHAR
STARTCHAR 305E
ENCODING 12382
SWIDTH 900 0
DWIDTH 15 0
BBX 15 15 0 -2
BITMAP
0004
08C6
18FA
1DCC
0D80
03F8
FFF8
7FC0
2300
0600
0600
0700
03E0
01C0
0040
ENDCHAR
STARTCHAR 305F
ENCODING 12383
SWIDTH 900 0
DWIDTH 15 0
BBX 13 13 1 -1
BITMAP
1C00
1800
1E00
FE00
7DF8
19F0
3830
3060
3200
3700
6600
67F0
61F0
ENDCHAR
STARTCHAR 3060
ENCODING 12384
SWIDTH 900 0
DWIDTH 15 0
BBX 14 14 1 -1
BITMAP
1000
1C1C
1C2C
1E38
FE10
79F8
39F0
3030
3040
3200
7600
6600
67F0
61F0
ENDCHAR
STARTCHAR 3061
ENCODING 12385
SWIDTH 900 0
DWIDTH 15 0
BBX 11 13 2 -1
BITMAP
2000
3800
3B00
FF00
FE00
3000
37C0
3FE0
3860
7060
00E0
0FC0
0780
ENDCHAR
STARTCHAR 3062
ENCODING 12386
SWIDTH 900 0
DWIDTH 15 0
BBX 13 13 2 -1
BITMAP
3030
3078
37F0
FF60
FC00
3000
7FC0
7FE0
7860
7060
00E0
0FC0
0F80
ENDCHAR
STARTCHAR 3063
ENCODING 12387
SWIDTH 900 0
DWIDTH 15 0
BBX 9 7 3 -1
BITMAP
1E00
FF00
E180
0180
0180
0700
0E00
ENDCHAR
STARTCHAR 3064
ENCODING 12388
SWIDTH 900 0
DWIDTH 15 0
BBX 13 10 1 0
BITMAP
0FE0
FFF0
F838
4018
0018
0018
0038
0070
03E0
0380
ENDCHAR
STARTCHAR 3065
ENCODING 12389
SWIDTH 900 0
DWIDTH 15 0
BBX 15 13 0 0
BITMAP
000C
000E
001C
0FFC
FFF8
F838
4018
0018
0018
0038
0070
07E0
0380
ENDCHAR
STARTCHAR 3066
ENCODING 12390
SWIDTH 900 0
DWIDTH 15 0
BBX 11 12 2 -1
BITMAP
07E0
FFE0
FF00
8600
0E00
0C00
0C00
0C00
0E00
0700
07C0
01C0
ENDCHAR
STARTCHAR 3067
ENCODING 12391
SWIDTH 900 0
DWIDTH 15 0
BBX 13 12 1 -1
BITMAP
07E0
FFE0
FF10
8618
0E68
0C30
0C00
0C00
0E00
0700
07C0
01C0
ENDCHAR
STARTCHAR 3068
ENCODING 12392
SWIDTH 900 0
DWIDTH 15 0
BBX 9 13 3 -1
BITMAP
2000
7000
3100
3380
3F80
1C00
7800
6000
C000
C000
E080
7F80
3F80
ENDCHAR
STARTCHAR 3069
ENCODING 12393
SWIDTH 900 0
DWIDTH 15 0
BBX 12 14 2 -1
BITMAP
0020
6030
70D0
3160
3780
3F80
3C00
7800
E000
C000
C000
E080
FF80
3F80
ENDCHAR
STARTCHAR 306A
ENCODING 12394
SWIDTH 900 0
DWIDTH 15 0
BBX 12 15 2 -2
BITMAP
1000
1800
1C00
FCC0
F860
3370
3300
6300
E300
C300
CF00
1FC0
1BC0
1F40
0E00
ENDCHAR
STARTCHAR 306B
ENCODING 12395
SWIDTH 900 0
DWIDTH 15 0
BBX 11 12 2 -1
BITMAP
6000
67E0
67C0
E0C0
C180
C000
C000
FC00
EC00
EFE0
67E0
4000
ENDCHAR
STARTCHAR 306C
ENCODING 12396
SWIDTH 900 0
DWIDTH 15 0
BBX 14 12 1 -1
BITMAP
0700
0700
67C0
7FF0
3E78
7618
7C18
DC18
DDF8
FFF8
F3FC
01C8
ENDCHAR
STARTCHAR 306D
ENCODING 12397
SWIDTH 900 0
DWIDTH 15 0
BBX 13 13 1 -1
BITMAP
2000
3800
3000
3DE0
FFE0
FE30
3830
7030
7030
F3F0
F378
33F8
31C0
ENDCHAR
STARTCHAR 306E
ENCODING 12398
SWIDTH 900 0
DWIDTH 15 0
BBX 13 10 1 0
BITMAP
1FE0
3FF0
7338
6618
C618
CE18
CC18
FC38
7870
30E0
ENDCHAR
STARTCHAR 306F
ENCODING 12399
SWIDTH 900 0
DWIDTH 15 0
BBX 13 13 1 -1
BITMAP
2060
7060
7060
67F8
67F8
6040
E040
E040
F1C0
77F8
7678
77C8
7380
ENDCHAR
STARTCHAR 3070
ENCODING 12400
SWIDTH 900 0
DWIDTH 15 0
BBX 14 14 1 0
BITMAP
001C
413C
61B8
6190
EFE0
CFE0
C180
C180
C080
F780
EFE0
ECF0
EFA0
6700
ENDCHAR
STARTCHAR 3071
ENCODING 12401
SWIDTH 900 0
DWIDTH 15 0
BBX 14 15 1 -1
BITMAP
0008
001C
40DC
60DC
60C0
C7F0
C7F0
C0C0
C0C0
C0C0
F7C0
EFF0
ECF0
EFD0
6780
ENDCHAR
STARTCHAR 3072
ENCODING 12402
SWIDTH 900 0
DWIDTH 15 0
BBX 13 12 2 -1
BITMAP
39C0
FCC0
F0E0
60F0
60F8
C0D0
C0C0
C1C0
C180
E380
7F00
3E00
ENDCHAR
STARTCHAR 3073
ENCODING 12403
SWIDTH 900 0
DWIDTH 15 0
BBX 14 14 1 -1
BITMAP
0008
000C
39F4
F8D8
F0E0
60F0
60F8
C0D0
C0C0
C1C0
C180
E380
7F00
3E00
ENDCHAR
STARTCHAR 3074
ENCODING 12404
SWIDTH 900 0
DWIDTH 15 0
BBX 14 13 1 -1
BITMAP
0038
31BC
F8F8
F0E0
60E0
60F0
C0F0
C0C0
C1C0
C180
E380
7F00
3E00
ENDCHAR
STARTCHAR 3075
ENCODING 12405
SWIDTH 900 0
DWIDTH 15 0
BBX 14 12 1 0
BITMAP
0780
0380
0700
0600
0600
0600
0330
03B8
D19C
FDCC
77C0
0380
ENDCHAR
STARTCHAR 3076
ENCODING 12406
SWIDTH 900 0
DWIDTH 15 0
BBX 14 12 1 0
BITMAP
0780
0398
072C
0638
0610
0600
0330
03B8
D19C
FDCC
77C0
0380
ENDCHAR
STARTCHAR 3077
ENCODING 12407
SWIDTH 900 0
DWIDTH 15 0
BBX 14 12 1 0
BITMAP
0700
03D8
073C
043C
0618
0600
0330
03B8
D19C
FDCC
77C0
0380
ENDCHAR
STARTCHAR 3078
ENCODING 12408
SWIDTH 900 0
DWIDTH 15 0
BBX 14 7 1 2
BITMAP
1C00
3F00
7380
E1C0
C0F0
407C
0018
ENDCHAR
STARTCHAR 3079
ENCODING 12409
SWIDTH 900 0
DWIDTH 15 0
BBX 14 8 1 2
BITMAP
0038
1C78
3F70
73A0
E1C0
C0F0
407C
0018
ENDCHAR
STARTCHAR 307A
ENCODING 12410
SWIDTH 900 0
DWIDTH 15 0
BBX 14 8 1 1
BITMAP
0078
0E78
1F78
3BB0
71C0
E0F0
407C
001C
ENDCHAR
STARTCHAR 307B
ENCODING 12411
SWIDTH 900 0
DWIDTH 15 0
BBX 13 13 1 -1
BITMAP
4010
67F0
67F0
E0C0
CFF0
C7F0
C0C0
C0C0
F7C0
EFE0
ECF8
6FD0
6780
ENDCHAR
STARTCHAR 307C
ENCODING 12412
SWIDTH 900 0
DWIDTH 15 0
BBX 15 13 0 -1
BITMAP
4020
6FEC
6FF6
E198
CFE8
CFE0
C180
C180
F780
EFC0
EDF0
EFE0
6700
ENDCHAR
STARTCHAR 307D
ENCODING 12413
SWIDTH 900 0
DWIDTH 15 0
BBX 15 13 0 -1
BITMAP
4020
6FEC
6FFE
E19E
CFEC
CFE0
C180
C180
F780
EFC0
FCF0
6FA0
6700
ENDCHAR
STARTCHAR 307E
ENCODING 12414
SWIDTH 900 0
DWIDTH 15 0
BBX 9 13 3 -1
BITMAP
0C00
0C80
7F80
7F00
0C80
7F00
7F00
0C00
3C00
FF00
CF80
FD80
7800
ENDCHAR
STARTCHAR 307F
ENCODING 12415
SWIDTH 900 0
DWIDTH 15 0
BBX 13 12 1 -1
BITMAP
3F00
3F80
1700
0660
0C60
3FE0
7FE0
D8F8
D8F0
F180
F380
0300
ENDCHAR
STARTCHAR 3080
ENCODING 12416
SWIDTH 900 0
DWIDTH 15 0
BBX 12 13 2 -1
BITMAP
1800
1A00
7E40
7EE0
1870
7820
F800
D800
F840
F060
3060
1FE0
0FC0
ENDCHAR
STARTCHAR 3081
ENCODING 12417
SWIDTH 900 0
DWIDTH 15 0
BBX 13 13 1 -1
BITMAP
0100
01C0
7180
3FE0
3FF0
3B38
7B18
7E18
CE18
DE38
FE70
61E0
00C0
ENDCHAR
STARTCHAR 3082
ENCODING 12418
SWIDTH 900 0
DWIDTH 15 0
BBX 9 14 3 -1
BITMAP
2000
3800
3000
F400
FC00
3C00
B000
FF00
FD80
6180
6180
3380
3F00
1E00
ENDCHAR
STARTCHAR 3083
ENCODING 12419
SWIDTH 900 0
DWIDTH 15 0
BBX 10 9 2 -2
BITMAP
0800
0C00
6380
3FC0
F8C0
7FC0
1B00
0C00
0C00
ENDCHAR
STARTCHAR 3084
ENCODING 12420
SWIDTH 900 0
DWIDTH 15 0
BBX 13 14 1 -1
BITMAP
0400
0E00
2700
62F0
37F8
3F18
7C18
F838
DDF0
0DE0
0E00
0600
0700
0300
ENDCHAR
STARTCHAR 3085
ENCODING 12421
SWIDTH 900 0
DWIDTH 15 0
BBX 9 9 3 -1
BITMAP
4600
CF00
FF80
F780
F780
FF80
4F00
5C00
0800
ENDCHAR
STARTCHAR 3086
ENCODING 12422
SWIDTH 900 0
DWIDTH 15 0
BBX 13 13 1 -1
BITMAP
0100
6180
61C0
67F0
7FB8
F998
F198
F198
E7B8
67F0
63E0
4700
0600
ENDCHAR
STARTCHAR 3087
ENCODING 12423
SWIDTH 900 0
DWIDTH 15 0
BBX 7 10 4 -2
BITMAP
18
18
1E
1E
18
18
78
DE
FE
70
ENDCHAR
STARTCHAR 3088
ENCODING 12424
SWIDTH 900 0
DWIDTH 15 0
BBX 10 13 3 -1
BITMAP
0C00
0C00
0C80
0F80
0F80
0C00
0C00
0C00
7C00
FF00
CFC0
FD80
7800
ENDCHAR
STARTCHAR 3089
ENCODING 12425
SWIDTH 900 0
DWIDTH 15 0
BBX 10 14 3 -1
BITMAP
2000
7000
3C00
C800
C000
C000
CF00
FF80
F1C0
E0C0
01C0
0380
1F80
0E00
ENDCHAR
STARTCHAR 308A
ENCODING 12426
SWIDTH 900 0
DWIDTH 15 0
BBX 8 14 4 -2
BITMAP
47
E7
C3
C3
C3
F3
E3
E3
E3
47
06
0E
1C
08
ENDCHAR
STARTCHAR 308B
ENCODING 12427
SWIDTH 900 0
DWIDTH 15 0
BBX 10 12 3 -1
BITMAP
7E00
7F00
4C00
1C00
3F00
7F80
E1C0
DCC0
3EC0
37C0
3F80
1E00
ENDCHAR
STARTCHAR 308C
ENCODING 12428
SWIDTH 900 0
DWIDTH 15 0
BBX 14 13 1 0
BITMAP
1C00
1800
1CE0
7FE0
7F60
5C60
3C60
3860
7868
F86C
587C
1878
1800
ENDCHAR
STARTCHAR 308D
ENCODING 12429
SWIDTH 900 0
DWIDTH 15 0
BBX 11 13 2 -1
BITMAP
0700
3F80
3F00
0600
0C00
1F80
3FE0
78E0
E060
4060
00E0
07C0
0780
ENDCHAR
STARTCHAR 308E
ENCODING 12430
SWIDTH 900 0
DWIDTH 15 0
BBX 9 9 3 -2
BITMAP
3000
3000
F700
7F80
3180
7180
F380
F700
3200
ENDCHAR
STARTCHAR 308F
ENCODING 12431
SWIDTH 900 0
DWIDTH 15 0
BBX 13 14 1 -2
BITMAP
1000
1C00
1800
1E00
7FE0
7FF0
5E38
3818
3818
7818
F830
58F0
19E0
1800
ENDCHAR
STARTCHAR 3090
ENCODING 12432
SWIDTH 900 0
DWIDTH 15 0
BBX 12 13 2 -1
BITMAP
0600
3F00
3E00
0600
0FC0
3FE0
7C70
7830
D830
DFB0
FDF0
EFE0
67C0
ENDCHAR
STARTCHAR 3091
ENCODING 12433
SWIDTH 900 0
DWIDTH 15 0
BBX 12 13 2 -1
BITMAP
0700
3F80
1F00
0F00
1FC0
38C0
6EC0
0BC0
1F80
7BC0
FFE0
FE60
CC70
ENDCHAR
STARTCHAR 3092
ENCODING 12434
SWIDTH 900 0
DWIDTH 15 0
BBX 12 13 1 -1
BITMAP
0C00
0D00
3F00
3E00
1800
3F60
73F0
E7C0
6F00
1B00
1800
1FC0
0FC0
ENDCHAR
STARTCHAR 3093
ENCODING 12435
SWIDTH 900 0
DWIDTH 15 0
BBX 12 12 2 0
BITMAP
0E00
0C00
1C00
1800
3800
3C00
7E00
7620
E320
C370
C3E0
C1C0
ENDCHAR
STARTCHAR 30A1
ENCODING 12449
SWIDTH 900 0
DWIDTH 15 0
BBX 9 8 4 -2
BITMAP
FF00
FF80
3700
3600
3000
3000
6000
C000
ENDCHAR
STARTCHAR 30A2
ENCODING 12450
SWIDTH 900 0
DWIDTH 15 0
BBX 12 12 2 -1
BITMAP
FFE0
FFF0
08E0
0FC0
1D80
1C00
1C00
1800
3800
7000
E000
4000
ENDCHAR
STARTCHAR 30A3
ENCODING 12451
SWIDTH 900 0
DWIDTH 15 0
BBX 7 10 4 -2
BITMAP
04
06
0E
1C
78
F8
98
18
18
18
ENDCHAR
STARTCHAR 30A4
ENCODING 12452
SWIDTH 900 0
DWIDTH 15 0
BBX 11 13 2 -1
BITMAP
0040
00E0
01E0
03C0
0780
1F00
FF00
7300
0300
0300
0300
0300
0300
ENDCHAR
STARTCHAR 30A5
ENCODING 12453
SWIDTH 900 0
DWIDTH 15 0
BBX 8 9 4 -2
BITMAP
18
FF
FF
C3
C6
06
0C
38
10
ENDCHAR
STARTCHAR 30A6
ENCODING 12454
SWIDTH 900 0
DWIDTH 15 0
BBX 11 13 2 -1
BITMAP
0C00
0C00
FFE0
FFE0
C0C0
C0C0
C0C0
01C0
0380
0780
0F00
1E00
0800
ENDCHAR
STARTCHAR 30A7
ENCODING 12455
SWIDTH 900 0
DWIDTH 15 0
BBX 8 7 4 -1
BITMAP
FE
FE
18
18
18
FF
FF
ENDCHAR
STARTCHAR 30A8
ENCODING 12456
SWIDTH 900 0
DWIDTH 15 0
BBX 12 9 2 1
BITMAP
7FE0
7FE0
0600
0600
0600
0600
0600
FFF0
FFF0
ENDCHAR
STARTCHAR 30A9
ENCODING 12457
SWIDTH 900 0
DWIDTH 15 0
BBX 9 9 3 -2
BITMAP
0400
0600
7F80
7F80
1E00
3E00
F600
4E00
0C00
ENDCHAR
STARTCHAR 30AA
ENCODING 12458
SWIDTH 900 0
DWIDTH 15 0
BBX 11 13 2 -1
BITMAP
0300
0380
0300
FFE0
FFE0
0F00
0F00
1F00
7B00
F300
C300
8F00
0F00
ENDCHAR
STARTCHAR 30AB
ENCODING 12459
SWIDTH 900 0
DWIDTH 15 0
BBX 11 13 2 -1
BITMAP
0600
0600
0600
7FE0
7FE0
0660
0C60
0C60
1C60
1860
78E0
F3C0
61C0
ENDCHAR
STARTCHAR 30AC
ENCODING 12460
SWIDTH 900 0
DWIDTH 15 0
BBX 14 13 1 0
BITMAP
0018
0C2C
0E30
0C10
7FE0
7FE0
0C60
1C60
1C60
38E0
78E0
F7C0
E3C0
ENDCHAR
STARTCHAR 30AD
ENCODING 12461
SWIDTH 900 0
DWIDTH 15 0
BBX 11 13 2 -1
BITMAP
0C00
0C00
0DC0
7FC0
7F00
0E00
0FE0
FFE0
FE00
0600
0600
0600
0700
ENDCHAR
STARTCHAR 30AE
ENCODING 12462
SWIDTH 900 0
DWIDTH 15 0
BBX 13 14 1 -1
BITMAP
0038
0C78
0C70
0CE0
7FC0
7F80
0600
07E0
FFF0
FE00
0600
0700
0700
0700
ENDCHAR
STARTCHAR 30AF
ENCODING 12463
SWIDTH 900 0
DWIDTH 15 0
BBX 11 13 2 -1
BITMAP
0600
0E00
0FC0
1FE0
38C0
71C0
6180
0380
0700
0E00
3C00
F800
6000
ENDCHAR
STARTCHAR 30B0
ENCODING 12464
SWIDTH 900 0
DWIDTH 15 0
BBX 13 14 1 -1
BITMAP
0010
0E18
0E68
1FF0
1FE0
39C0
F1C0
E380
0700
0F00
1E00
3C00
F000
6000
ENDCHAR
STARTCHAR 30B1
ENCODING 12465
SWIDTH 900 0
DWIDTH 15 0
BBX 13 13 1 -1
BITMAP
0C00
0E00
0C00
1FF8
3FF8
71C0
F180
6180
0380
0300
0700
1E00
0400
ENDCHAR
STARTCHAR 30B2
ENCODING 12466
SWIDTH 900 0
DWIDTH 15 0
BBX 15 14 0 -1
BITMAP
000C
041E
0E1C
0C08
1FF8
1FF8
39C0
F1C0
6180
0380
0380
0700
0E00
0400
ENDCHAR
STARTCHAR 30B3
ENCODING 12467
SWIDTH 900 0
DWIDTH 15 0
BBX 9 9 3 1
BITMAP
FF80
FF80
0180
0180
0180
0180
0180
FF80
FF80
ENDCHAR
STARTCHAR 30B4
ENCODING 12468
SWIDTH 900 0
DWIDTH 15 0
BBX 12 12 2 1
BITMAP
0020
0030
00D0
0060
FF80
FF80
0180
0180
0180
0180
FF80
FF80
ENDCHAR
STARTCHAR 30B5
ENCODING 12469
SWIDTH 900 0
DWIDTH 15 0
BBX 13 13 1 -1
BITMAP
1CE0
18C0
18C0
FFF8
FFF8
18C0
18C0
18C0
19C0
0180
0380
0F00
0600
ENDCHAR
STARTCHAR 30B6
ENCODING 12470
SWIDTH 900 0
DWIDTH 15 0
BBX 14 14 1 0
BITMAP
001C
1DF4
19D8
19C0
FFF0
FFF0
19C0
19C0
1980
1980
0380
0700
0E00
0C00
ENDCHAR
STARTCHAR 30B7
ENCODING 12471
SWIDTH 900 0
DWIDTH 15 0
BBX 11 12 2 -1
BITMAP
3000
3800
1800
C000
F060
60E0
01C0
0780
1F00
FC00
7800
2000
ENDCHAR
STARTCHAR 30B8
ENCODING 12472
SWIDTH 900 0
DWIDTH 15 0
BBX 11 13 2 -1
BITMAP
0040
3160
39C0
18C0
C000
F060
60E0
01C0
0780
1F00
FC00
7800
2000
ENDCHAR
STARTCHAR 30B9
ENCODING 12473
SWIDTH 900 0
DWIDTH 15 0
BBX 12 11 2 -1
BITMAP
0080
7FC0
7FC0
01C0
0380
0700
0F80
1FC0
3CE0
F0F0
E060
ENDCHAR
STARTCHAR 30BA
ENCODING 12474
SWIDTH 900 0
DWIDTH 15 0
BBX 14 13 1 -1
BITMAP
0018
002C
00B0
7FD0
7FC0
01C0
0380
0700
0780
1FC0
3CE0
F0F0
E060
ENDCHAR
STARTCHAR 30BB
ENCODING 12475
SWIDTH 900 0
DWIDTH 15 0
BBX 12 12 2 0
BITMAP
1800
1800
1840
1FF0
FFE0
FCE0
99C0
1B80
1800
1800
1FE0
0FE0
ENDCHAR
STARTCHAR 30BC
ENCODING 12476
SWIDTH 900 0
DWIDTH 15 0
BBX 14 13 1 0
BITMAP
0018
182C
1830
1850
1FF0
FFE0
FCE0
99C0
1B80
1800
1800
1FE0
0FE0
ENDCHAR
STARTCHAR 30BD
ENCODING 12477
SWIDTH 900 0
DWIDTH 15 0
BBX 11 12 2 -1
BITMAP
4040
E0E0
60E0
70C0
21C0
01C0
0380
0300
0700
0E00
3C00
1000
ENDCHAR
STARTCHAR 30BE
ENCODING 12478
SWIDTH 900 0
DWIDTH 15 0
BBX 14 14 1 -1
BITMAP
0018
002C
00B0
C0F0
E0E0
70C0
71C0
2180
0380
0700
0600
1E00
3C00
3000
ENDCHAR
STARTCHAR 30BF
ENCODING 12479
SWIDTH 900 0
DWIDTH 15 0
BBX 11 13 2 -2
BITMAP
0600
0E00
1FC0
1FE0
38C0
FDC0
6F80
0780
0700
0E00
1C00
7800
7000
ENDCHAR
STARTCHAR 30C0
ENCODING 12480
SWIDTH 900 0
DWIDTH 15 0
BBX 13 15 1 -2
BITMAP
0010
0C38
0E78
1FF0
3FE0
71C0
ED80
5F80
0700
0700
0E00
1C00
7800
F000
4000
ENDCHAR
STARTCHAR 30C1
ENCODING 12481
SWIDTH 900 0
DWIDTH 15 0
BBX 12 14 2 -2
BITMAP
0080
07C0
7FC0
3E00
0600
FFF0
FFF0
0600
0E00
0C00
1C00
3800
7000
2000
ENDCHAR
STARTCHAR 30C2
ENCODING 12482
SWIDTH 900 0
DWIDTH 15 0
BBX 14 14 1 -2
BITMAP
0080
07D8
7FFC
3E18
0600
FFF0
FFF0
0600
0E00
0E00
1C00
3800
7000
2000
ENDCHAR
STARTCHAR 30C3
ENCODING 12483
SWIDTH 900 0
DWIDTH 15 0
BBX 9 9 3 -2
BITMAP
1900
D980
7B00
6300
0700
0600
0C00
3800
1000
ENDCHAR
STARTCHAR 30C4
ENCODING 12484
SWIDTH 900 0
DWIDTH 15 0
BBX 13 12 1 -1
BITMAP
0E30
E638
6630
7770
3070
00E0
00E0
01C0
0380
0700
0E00
0C00
ENDCHAR
STARTCHAR 30C5
ENCODING 12485
SWIDTH 900 0
DWIDTH 15 0
BBX 14 14 1 -2
BITMAP
0018
002C
0030
5C50
CC70
EE60
6CE0
60C0
01C0
0180
0380
0700
0E00
1C00
ENDCHAR
STARTCHAR 30C6
ENCODING 12486
SWIDTH 900 0
DWIDTH 15 0
BBX 12 12 2 -1
BITMAP
3FC0
3FC0
0000
FFF0
FFF0
0600
0600
0600
0E00
1C00
3800
3000
ENDCHAR
STARTCHAR 30C7
ENCODING 12487
SWIDTH 900 0
DWIDTH 15 0
BBX 15 13 1 -1
BITMAP
000C
3FDE
3FFC
0008
FFF0
FFF0
0700
0700
0600
0E00
1C00
3800
3000
ENDCHAR
STARTCHAR 30C8
ENCODING 12488
SWIDTH 900 0
DWIDTH 15 0
BBX 6 13 5 -1
BITMAP
80
C0
C0
C0
E0
F0
F8
DC
C8
C0
C0
C0
C0
ENDCHAR
STARTCHAR 30C9
ENCODING 12489
SWIDTH 900 0
DWIDTH 15 0
BBX 8 13 4 -1
BITMAP
86
CF
DE
CC
E0
F0
F8
DC
C8
C0
C0
C0
C0
ENDCHAR
STARTCHAR 30CA
ENCODING 12490
SWIDTH 900 0
DWIDTH 15 0
BBX 12 13 2 -2
BITMAP
0600
0600
0600
FFF0
FFF0
0600
0600
0E00
0C00
1C00
3800
7000
2000
ENDCHAR
STARTCHAR 30CB
ENCODING 12491
SWIDTH 900 0
DWIDTH 15 0
BBX 11 9 2 1
BITMAP
3FC0
3FC0
0000
0000
0000
0000
0000
FFE0
FFE0
ENDCHAR
STARTCHAR 30CC
ENCODING 12492
SWIDTH 900 0
DWIDTH 15 0
BBX 11 12 2 -1
BITMAP
7FC0
7FC0
01C0
0980
1F80
0F80
07C0
0FE0
1EE0
3C40
F000
4000
ENDCHAR
STARTCHAR 30CD
ENCODING 12493
SWIDTH 900 0
DWIDTH 15 0
BBX 13 13 1 -1
BITMAP
0300
0300
3FE0
3FF0
01C0
03C0
0F60
3F70
FB38
6310
0300
0300
0300
ENDCHAR
STARTCHAR 30CE
ENCODING 12494
SWIDTH 900 0
DWIDTH 15 0
BBX 11 12 2 -1
BITMAP
00C0
00E0
01C0
01C0
0380
0300
0700
0E00
1C00
3800
F000
6000
ENDCHAR
STARTCHAR 30CF
ENCODING 12495
SWIDTH 900 0
DWIDTH 15 0
BBX 13 9 1 1
BITMAP
0040
1CC0
1CE0
1870
3870
3038
7038
E018
4010
ENDCHAR
STARTCHAR 30D0
ENCODING 12496
SWIDTH 900 0
DWIDTH 15 0
BBX 15 11 0 1
BITMAP
000C
0016
0018
0EE8
0C70
1C70
1838
3818
701C
F01C
6008
ENDCHAR
STARTCHAR 30D1
ENCODING 12497
SWIDTH 900 0
DWIDTH 15 0
BBX 14 11 1 1
BITMAP
0018
003C
003C
1DD8
1CE0
1860
3870
7030
7038
E038
C010
ENDCHAR
STARTCHAR 30D2
ENCODING 12498
SWIDTH 900 0
DWIDTH 15 0
BBX 9 12 3 0
BITMAP
C000
C000
C300
CF80
FF00
F800
C000
C000
C000
C000
FF80
7F80
ENDCHAR
STARTCHAR 30D3
ENCODING 12499
SWIDTH 900 0
DWIDTH 15 0
BBX 12 13 2 1
BITMAP
0070
80B0
C0C0
C340
CF80
FF00
F800
C000
C000
C000
C000
FF80
7F80
ENDCHAR
STARTCHAR 30D4
ENCODING 12500
SWIDTH 900 0
DWIDTH 15 0
BBX 12 13 2 0
BITMAP
00E0
80F0
C0F0
C360
C780
FF00
F800
E000
C000
C000
C000
FF80
7F80
ENDCHAR
STARTCHAR 30D5
ENCODING 12501
SWIDTH 900 0
DWIDTH 15 0
BBX 11 13 2 -2
BITMAP
0040
FFE0
FFE0
00C0
01C0
0180
0380
0300
0700
0E00
3C00
7800
2000
ENDCHAR
STARTCHAR 30D6
ENCODING 12502
SWIDTH 900 0
DWIDTH 15 0
BBX 13 15 2 -2
BITMAP
0030
0058
0060
0020
FFE0
FFE0
01C0
0180
0380
0700
0F00
1E00
7C00
7000
2000
ENDCHAR
STARTCHAR 30D7
ENCODING 12503
SWIDTH 900 0
DWIDTH 15 0
BBX 13 15 2 -2
BITMAP
0030
0078
0078
0030
FFE0
FFE0
01C0
01C0
0380
0700
0F00
1E00
7C00
7000
2000
ENDCHAR
STARTCHAR 30D8
ENCODING 12504
SWIDTH 900 0
DWIDTH 15 0
BBX 13 8 1 1
BITMAP
0E00
1F00
7B80
F1C0
E0F0
4078
0038
0008
ENDCHAR
STARTCHAR 30D9
ENCODING 12505
SWIDTH 900 0
DWIDTH 15 0
BBX 13 11 1 1
BITMAP
0060
0030
00C0
1EE0
3F40
7B80
F1C0
E0F0
4078
0038
0008
ENDCHAR
STARTCHAR 30DA
ENCODING 12506
SWIDTH 900 0
DWIDTH 15 0
BBX 13 11 1 1
BITMAP
00C0
01E0
01E0
1EE0
3F00
7780
E1C0
C0F0
4078
0038
0010
ENDCHAR
STARTCHAR 30DB
ENCODING 12507
SWIDTH 900 0
DWIDTH 15 0
BBX 13 12 1 -1
BITMAP
0700
0700
7FF0
7FF0
0700
3760
3770
7730
E738
C718
0F00
0E00
ENDCHAR
STARTCHAR 30DC
ENCODING 12508
SWIDTH 900 0
DWIDTH 15 0
BBX 14 14 1 -1
BITMAP
0018
006C
0730
0700
7FF8
7FF8
0700
3760
3770
7730
E738
C718
0F00
0E00
ENDCHAR
STARTCHAR 30DD
ENCODING 12509
SWIDTH 900 0
DWIDTH 15 0
BBX 13 14 1 -1
BITMAP
0030
0078
0778
0730
7FF8
7FF8
0700
3760
3770
7730
E738
C718
0F00
0E00
ENDCHAR
STARTCHAR 30DE
ENCODING 12510
SWIDTH 900 0
DWIDTH 15 0
BBX 12 9 2 1
BITMAP
FFE0
FFF0
00E0
11C0
3B80
1F00
0E00
0700
0300
ENDCHAR
STARTCHAR 30DF
ENCODING 12511
SWIDTH 900 0
DWIDTH 15 0
BBX 7 11 4 -1
BITMAP
70
7E
1C
64
F8
3C
08
40
F8
7E
0E
ENDCHAR
STARTCHAR 30E0
ENCODING 12512
SWIDTH 900 0
DWIDTH 15 0
BBX 13 11 1 1
BITMAP
0700
0700
0600
0E00
0C40
1CC0
18E0
3870
FFF8
FFF8
4010
ENDCHAR
STARTCHAR 30E1
ENCODING 12513
SWIDTH 900 0
DWIDTH 15 0
BBX 11 12 2 -1
BITMAP
00C0
00E0
00C0
0DC0
1F80
0780
0780
0FC0
1C80
7800
F000
4000
ENDCHAR
STARTCHAR 30E2
ENCODING 12514
SWIDTH 900 0
DWIDTH 15 0
BBX 12 11 2 0
BITMAP
7FC0
7FC0
0C00
0C00
FFF0
FFF0
0C00
0C00
0C00
0FE0
07E0
ENDCHAR
STARTCHAR 30E3
ENCODING 12515
SWIDTH 900 0
DWIDTH 15 0
BBX 9 9 3 -2
BITMAP
3000
3380
3F80
FF00
1F00
1A00
1800
0800
0C00
ENDCHAR
STARTCHAR 30E4
ENCODING 12516
SWIDTH 900 0
DWIDTH 15 0
BBX 13 12 1 -1
BITMAP
0C00
0C00
0FF8
FFF8
FE70
4EE0
06C0
0640
0600
0600
0600
0700
ENDCHAR
STARTCHAR 30E5
ENCODING 12517
SWIDTH 900 0
DWIDTH 15 0
BBX 9 7 3 -1
BITMAP
3E00
3E00
0600
0600
0600
FF80
FF80
ENDCHAR
STARTCHAR 30E6
ENCODING 12518
SWIDTH 900 0
DWIDTH 15 0
BBX 13 9 1 1
BITMAP
3FC0
3FC0
01C0
01C0
01C0
0180
0180
FFF8
FFF8
ENDCHAR
STARTCHAR 30E7
ENCODING 12519
SWIDTH 900 0
DWIDTH 15 0
BBX 7 8 4 -2
BITMAP
FE
FE
06
7E
7E
06
FE
FE
ENDCHAR
STARTCHAR 30E8
ENCODING 12520
SWIDTH 900 0
DWIDTH 15 0
BBX 9 10 3 0
BITMAP
FF80
FF80
0180
FF80
FF80
0180
0180
0180
FF80
FF80
ENDCHAR
STARTCHAR 30E9
ENCODING 12521
SWIDTH 900 0
DWIDTH 15 0
BBX 11 12 2 -2
BITMAP
7F80
7F80
0000
FFC0
FFE0
00C0
01C0
0180
0380
0700
1E00
1C00
ENDCHAR
STARTCHAR 30EA
ENCODING 12522
SWIDTH 900 0
DWIDTH 15 0
BBX 7 13 4 -1
BITMAP
C6
C6
C6
C6
C6
C6
C6
C6
0C
0C
1C
38
30
ENDCHAR
STARTCHAR 30EB
ENCODING 12523
SWIDTH 900 0
DWIDTH 15 0
BBX 14 11 0 -1
BITMAP
1300
1B00
1B00
1B00
1B08
1B1C
1B38
3B70
33E0
73C0
E380
ENDCHAR
STARTCHAR 30EC
ENCODING 12524
SWIDTH 900 0
DWIDTH 15 0
BBX 10 12 3 -1
BITMAP
C000
C000
C000
C040
C0C0
C1C0
C380
CF00
FE00
F800
E000
4000
ENDCHAR
STARTCHAR 30ED
ENCODING 12525
SWIDTH 900 0
DWIDTH 15 0
BBX 9 10 3 0
BITMAP
FF80
FF80
C180
C180
C180
C180
C180
FF80
FF80
C180
ENDCHAR
STARTCHAR 30EE
ENCODING 12526
SWIDTH 900 0
DWIDTH 15 0
BBX 8 8 4 -2
BITMAP
FF
FF
C2
C6
06
0E
0C
18
ENDCHAR
STARTCHAR 30EF
ENCODING 12527
SWIDTH 900 0
DWIDTH 15 0
BBX 11 12 2 -1
BITMAP
FFE0
FFE0
C0E0
C0E0
C0C0
C0C0
01C0
0180
0380
0700
0E00
0C00
ENDCHAR
STARTCHAR 30F0
ENCODING 12528
SWIDTH 900 0
DWIDTH 15 0
BBX 13 13 1 -1
BITMAP
01C0
01C0
01C0
7FF0
7FF0
39C0
39C0
FFF8
FFF8
01C0
01C0
01C0
01C0
ENDCHAR
STARTCHAR 30F1
ENCODING 12529
SWIDTH 900 0
DWIDTH 15 0
BBX 13 10 1 1
BITMAP
3FF0
3FF8
0070
07E0
0700
0700
0700
0700
FFF8
FFF8
ENDCHAR
STARTCHAR 30F2
ENCODING 12530
SWIDTH 900 0
DWIDTH 15 0
BBX 10 12 3 -1
BITMAP
FF80
FFC0
0180
0180
FF80
FF80
0300
0700
0E00
1C00
F800
7000
ENDCHAR
STARTCHAR 30F3
ENCODING 12531
SWIDTH 900 0
DWIDTH 15 0
BBX 11 12 2 -1
BITMAP
4000
E000
7800
3060
00E0
01C0
0380
0F00
3E00
F800
E000
4000
ENDCHAR
STARTCHAR 30F4
ENCODING 12532
SWIDTH 900 0
DWIDTH 15 0
BBX 14 14 1 -2
BITMAP
0018
007C
0E70
0C30
FFE0
FFC0
C0C0
C0C0
C1C0
0180
0380
0700
1E00
1C00
ENDCHAR
STARTCHAR 30F5
ENCODING 12533
SWIDTH 900 0
DWIDTH 15 0
BBX 8 9 4 -2
BITMAP
10
18
FF
FF
1B
33
73
EF
CE
ENDCHAR
STARTCHAR 30F6
ENCODING 12534
SWIDTH 900 0
DWIDTH 15 0
BBX 9 9 3 -2
BITMAP
1800
3800
3F80
7F80
E600
4600
0C00
1C00
1800
ENDCHAR
STARTCHAR 3131
ENCODING 12593
SWIDTH 900 0
DWIDTH 15 0
BBX 11 10 2 1
BITMAP
FFE0
FFE0
0060
0060
0060
0060
0060
0060
0060
0060
ENDCHAR
STARTCHAR 3132
ENCODING 12594
SWIDTH 900 0
DWIDTH 15 0
BBX 12 10 2 1
BITMAP
FBF0
FBF0
1830
1830
1830
1830
1830
1830
1830
1830
ENDCHAR
STARTCHAR 3133
ENCODING 12595
SWIDTH 900 0
DWIDTH 15 0
BBX 13 10 2 1
BITMAP
F8C0
F8C0
18C0
18C0
18C0
19E0
1BE0
1B30
1F30
1E18
ENDCHAR
STARTCHAR 3134
ENCODING 12596
SWIDTH 900 0
DWIDTH 15 0
BBX 11 10 2 1
BITMAP
C000
C000
C000
C000
C000
C000
C000
C000
FFE0
FFE0
ENDCHAR
STARTCHAR 3135
ENCODING 12597
SWIDTH 900 0
DWIDTH 15 0
BBX 12 10 2 1
BITMAP
C7F0
C7F0
C1C0
C1C0
C1C0
C1C0
C3E0
C360
FE30
FE30
ENDCHAR
STARTCHAR 3136
ENCODING 12598
SWIDTH 900 0
DWIDTH 15 0
BBX 12 11 2 0
BITMAP
C1C0
C1C0
C7F0
C3E0
C770
C670
C670
C670
FF70
FBE0
F9C0
ENDCHAR
STARTCHAR 3137
ENCODING 12599
SWIDTH 900 0
DWIDTH 15 0
BBX 11 10 2 1
BITMAP
FFE0
FFE0
C000
C000
C000
C000
C000
C000
FFE0
FFE0
ENDCHAR
STARTCHAR 3138
ENCODING 12600
SWIDTH 900 0
DWIDTH 15 0
BBX 12 10 2 1
BITMAP
FBF0
FBF0
C300
C300
C300
C300
C300
C300
FBF0
FBF0
ENDCHAR
STARTCHAR 3139
ENCODING 12601
SWIDTH 900 0
DWIDTH 15 0
BBX 11 10 2 1
BITMAP
FFE0
FFE0
0060
0060
FFE0
FFE0
C000
C000
FFE0
FFE0
ENDCHAR
STARTCHAR 313A
ENCODING 12602
SWIDTH 900 0
DWIDTH 15 0
BBX 12 10 2 1
BITMAP
F9F0
F9F0
1830
1830
F830
F830
C030
C030
FE30
FE30
ENDCHAR
STARTCHAR 313B
ENCODING 12603
SWIDTH 900 0
DWIDTH 15 0
BBX 12 10 2 1
BITMAP
FBF0
FBF0
1BB0
1BB0
FBB0
FBB0
C3B0
C3B0
FFF0
FFF0
ENDCHAR
STARTCHAR 313C
ENCODING 12604
SWIDTH 900 0
DWIDTH 15 0
BBX 12 10 2 1
BITMAP
FB30
FB30
1B30
1BF0
FBF0
FB30
C330
C330
FFF0
FFF0
ENDCHAR
STARTCHAR 313D
ENCODING 12605
SWIDTH 900 0
DWIDTH 15 0
BBX 12 10 2 1
BITMAP
F8C0
F8C0
18C0
18C0
F8C0
F9E0
C1E0
C330
FF30
FE10
ENDCHAR
STARTCHAR 313E
ENCODING 12606
SWIDTH 900 0
DWIDTH 15 0
BBX 12 10 2 1
BITMAP
FBE0
FBE0
1B00
1B00
FBE0
FBE0
C300
C300
FBF0
FBF0
ENDCHAR
STARTCHAR 313F
ENCODING 12607
SWIDTH 900 0
DWIDTH 15 0
BBX 12 10 2 1
BITMAP
FBF0
FBF0
1B60
1B60
FB60
FB60
C360
C360
FBF0
FBF0
ENDCHAR
STARTCHAR 3140
ENCODING 12608
SWIDTH 900 0
DWIDTH 15 0
BBX 12 11 2 0
BITMAP
F8C0
FFF0
1FF0
1BE0
FB60
FB70
C370
C370
FB60
FBE0
F9C0
ENDCHAR
STARTCHAR 3141
ENCODING 12609
SWIDTH 900 0
DWIDTH 15 0
BBX 11 10 2 1
BITMAP
FFE0
FFE0
C060
C060
C060
C060
C060
C060
FFE0
FFE0
ENDCHAR
STARTCHAR 3142
ENCODING 12610
SWIDTH 900 0
DWIDTH 15 0
BBX 11 10 2 1
BITMAP
C060
C060
C060
C060
FFE0
FFE0
C060
C060
FFE0
FFE0
ENDCHAR
STARTCHAR 3143
ENCODING 12611
SWIDTH 900 0
DWIDTH 15 0
BBX 12 10 2 1
BITMAP
C630
C630
C630
C630
FFF0
FFF0
C630
C630
FFF0
FFF0
ENDCHAR
STARTCHAR 3144
ENCODING 12612
SWIDTH 900 0
DWIDTH 15 0
BBX 13 10 2 1
BITMAP
D8C0
D8C0
D8C0
D8C0
F9C0
F9E0
DBE0
DB70
FF30
FE18
ENDCHAR
STARTCHAR 3145
ENCODING 12613
SWIDTH 900 0
DWIDTH 15 0
BBX 13 11 1 0
BITMAP
0300
0300
0300
0700
0780
0FC0
1CE0
3870
7030
E018
4010
ENDCHAR
STARTCHAR 3146
ENCODING 12614
SWIDTH 900 0
DWIDTH 15 0
BBX 13 11 1 0
BITMAP
18C0
18C0
18C0
18C0
18C0
3DE0
7DF0
67B0
E738
C218
4010
ENDCHAR
STARTCHAR 3147
ENCODING 12615
SWIDTH 900 0
DWIDTH 15 0
BBX 11 10 2 1
BITMAP
1F00
7FC0
60E0
C060
C060
C060
C060
E0E0
7FC0
1F00
ENDCHAR
STARTCHAR 3148
ENCODING 12616
SWIDTH 900 0
DWIDTH 15 0
BBX 12 10 2 1
BITMAP
FFF0
FFF0
0600
0600
0F00
1F80
39C0
70E0
E070
C030
ENDCHAR
STARTCHAR 3149
ENCODING 12617
SWIDTH 900 0
DWIDTH 15 0
BBX 14 10 1 1
BITMAP
7FF8
7FF8
1860
18E0
1CE0
3CF0
3FF0
77B8
E31C
4008
ENDCHAR
STARTCHAR 314A
ENCODING 12618
SWIDTH 900 0
DWIDTH 15 0
BBX 13 11 1 0
BITMAP
0300
0300
7FF8
7FF8
0300
0700
0F80
1CE0
3870
F038
6010
ENDCHAR
STARTCHAR 314B
ENCODING 12619
SWIDTH 900 0
DWIDTH 15 0
BBX 11 10 2 1
BITMAP
FFE0
FFE0
0060
0060
0060
FFE0
FFE0
0060
0060
0060
ENDCHAR
STARTCHAR 314C
ENCODING 12620
SWIDTH 900 0
DWIDTH 15 0
BBX 11 10 2 1
BITMAP
FFE0
FFE0
C000
C000
FFE0
FFE0
C000
C000
FFE0
FFE0
ENDCHAR
STARTCHAR 314D
ENCODING 12621
SWIDTH 900 0
DWIDTH 15 0
BBX 12 10 2 1
BITMAP
FFF0
FFF0
30C0
30C0
30C0
30C0
30C0
30C0
FFF0
FFF0
ENDCHAR
STARTCHAR 314E
ENCODING 12622
SWIDTH 900 0
DWIDTH 15 0
BBX 12 11 2 0
BITMAP
0600
FFF0
FFF0
0000
3FC0
7FE0
E070
E070
E070
7FE0
3FC0
ENDCHAR
STARTCHAR 314F
ENCODING 12623
SWIDTH 900 0
DWIDTH 15 0
BBX 5 15 6 -2
BITMAP
C0
C0
C0
C0
C0
F8
F8
F8
C0
C0
C0
C0
C0
C0
C0
ENDCHAR
STARTCHAR 3150
ENCODING 12624
SWIDTH 900 0
DWIDTH 15 0
BBX 6 15 5 -2
BITMAP
CC
CC
CC
CC
CC
FC
FC
FC
CC
CC
CC
CC
CC
CC
CC
ENDCHAR
STARTCHAR 3151
ENCODING 12625
SWIDTH 900 0
DWIDTH 15 0
BBX 5 15 6 -2
BITMAP
C0
C0
C0
F8
F8
C0
C0
C0
F8
F8
C0
C0
C0
C0
C0
ENDCHAR
STARTCHAR 3152
ENCODING 12626
SWIDTH 900 0
DWIDTH 15 0
BBX 6 15 5 -2
BITMAP
CC
CC
CC
FC
FC
CC
CC
CC
FC
FC
CC
CC
CC
CC
CC
ENDCHAR
STARTCHAR 3153
ENCODING 12627
SWIDTH 900 0
DWIDTH 15 0
BBX 5 15 4 -2
BITMAP
18
18
18
18
18
F8
F8
18
18
18
18
18
18
18
18
ENDCHAR
STARTCHAR 3154
ENCODING 12628
SWIDTH 900 0
DWIDTH 15 0
BBX 8 15 3 -2
BITMAP
1B
1B
1B
1B
1B
FB
FB
FB
1B
1B
1B
1B
1B
1B
1B
ENDCHAR
STARTCHAR 3155
ENCODING 12629
SWIDTH 900 0
DWIDTH 15 0
BBX 5 15 4 -2
BITMAP
18
18
18
F8
F8
18
18
18
F8
F8
18
18
18
18
18
ENDCHAR
STARTCHAR 3156
ENCODING 12630
SWIDTH 900 0
DWIDTH 15 0
BBX 8 15 3 -2
BITMAP
1B
1B
1B
FB
FB
1B
1B
1B
FB
FB
1B
1B
1B
1B
1B
ENDCHAR
STARTCHAR 3157
ENCODING 12631
SWIDTH 900 0
DWIDTH 15 0
BBX 15 6 0 1
BITMAP
0180
0180
0180
0180
FFFE
FFFE
ENDCHAR
STARTCHAR 3158
ENCODING 12632
SWIDTH 900 0
DWIDTH 15 0
BBX 15 15 0 -2
BITMAP
0018
0018
0018
0018
0018
0018
001E
0C1E
0C18
0C18
0C18
FFD8
FFD8
0018
0018
ENDCHAR
STARTCHAR 3159
ENCODING 12633
SWIDTH 900 0
DWIDTH 15 0
BBX 14 15 0 -2
BITMAP
006C
006C
006C
006C
006C
006C
007C
007C
186C
186C
186C
FF6C
FF6C
006C
006C
ENDCHAR
STARTCHAR 315A
ENCODING 12634
SWIDTH 900 0
DWIDTH 15 0
BBX 13 15 1 -2
BITMAP
0018
0018
0018
0018
0018
0018
0018
0018
0C18
0C18
0C18
FFD8
FFD8
0018
0018
ENDCHAR
STARTCHAR 315B
ENCODING 12635
SWIDTH 900 0
DWIDTH 15 0
BBX 15 6 0 1
BITMAP
0C70
0C70
0C70
0C70
FFFE
FFFE
ENDCHAR
STARTCHAR 315C
ENCODING 12636
SWIDTH 900 0
DWIDTH 15 0
BBX 15 7 0 -2
BITMAP
FFFE
FFFE
0180
0180
0180
0180
0180
ENDCHAR
STARTCHAR 315D
ENCODING 12637
SWIDTH 900 0
DWIDTH 15 0
BBX 13 15 1 -2
BITMAP
0018
0018
0018
0018
0018
0018
0018
0018
FFD8
FFD8
0C18
0CF8
0CF8
0C18
0C18
ENDCHAR
STARTCHAR 315E
ENCODING 12638
SWIDTH 900 0
DWIDTH 15 0
BBX 14 15 1 -2
BITMAP
00EC
00EC
00EC
00EC
00EC
00EC
00EC
00EC
FFEC
FFEC
38EC
3BEC
3BEC
38EC
38EC
ENDCHAR
STARTCHAR 315F
ENCODING 12639
SWIDTH 900 0
DWIDTH 15 0
BBX 13 15 1 -2
BITMAP
0018
0018
0018
0018
0018
0018
0018
0018
FFD8
FFD8
0C18
0C18
0C18
0C18
0C18
ENDCHAR
STARTCHAR 3160
ENCODING 12640
SWIDTH 900 0
DWIDTH 15 0
BBX 15 7 0 -2
BITMAP
FFFE
FFFE
0C70
0C70
0C70
0C70
0C70
ENDCHAR
STARTCHAR 3161
ENCODING 12641
SWIDTH 900 0
DWIDTH 15 0
BBX 15 2 0 1
BITMAP
FFFE
FFFE
ENDCHAR
STARTCHAR 3162
ENCODING 12642
SWIDTH 900 0
DWIDTH 15 0
BBX 13 15 1 -2
BITMAP
0018
0018
0018
0018
0018
0018
0018
0018
0018
0018
FFD8
FFD8
0018
0018
0018
ENDCHAR
STARTCHAR 3163
ENCODING 12643
SWIDTH 900 0
DWIDTH 15 0
BBX 2 15 7 -2
BITMAP
C0
C0
C0
C0
C0
C0
C0
C0
C0
C0
C0
C0
C0
C0
C0
ENDCHAR
STARTCHAR 3164
ENCODING 12644
SWIDTH 900 0
DWIDTH 15 0
BBX 0 0 0 0
BITMAP
ENDCHAR
STARTCHAR 3165
ENCODING 12645
SWIDTH 900 0
DWIDTH 15 0
BBX 11 9 2 1
BITMAP
C300
C300
C300
C300
C300
C300
C300
FBE0
FBE0
ENDCHAR
STARTCHAR 3166
ENCODING 12646
SWIDTH 900 0
DWIDTH 15 0
BBX 11 8 2 1
BITMAP
C3E0
C3E0
C300
C300
C300
C300
FBE0
FBE0
ENDCHAR
STARTCHAR 3167
ENCODING 12647
SWIDTH 900 0
DWIDTH 15 0
BBX 12 9 2 1
BITMAP
C0C0
C0C0
C0C0
C0C0
C1C0
C1E0
C3E0
FF70
FA30
ENDCHAR
STARTCHAR 3168
ENCODING 12648
SWIDTH 900 0
DWIDTH 15 0
BBX 12 9 2 1
BITMAP
C080
C0C0
C0C0
C1C0
C1E0
C1E0
C360
FBF0
FBF0
ENDCHAR
STARTCHAR 3169
ENCODING 12649
SWIDTH 900 0
DWIDTH 15 0
BBX 14 9 1 1
BITMAP
FF30
FF30
3330
3330
F330
F378
C378
FBFC
FBCC
ENDCHAR
STARTCHAR 316A
ENCODING 12650
SWIDTH 900 0
DWIDTH 15 0
BBX 11 9 2 1
BITMAP
FBE0
FBE0
1B00
1B00
FB00
FB00
C300
FFE0
FFE0
ENDCHAR
STARTCHAR 316B
ENCODING 12651
SWIDTH 900 0
DWIDTH 15 0
BBX 14 9 1 1
BITMAP
F7B0
F7B0
37B0
37B0
F7B0
F7B0
C7F8
F7FC
F7C8
ENDCHAR
STARTCHAR 316C
ENCODING 12652
SWIDTH 900 0
DWIDTH 15 0
BBX 12 9 2 2
BITMAP
F880
F8C0
18C0
19C0
F9E0
F9E0
C360
FFF0
FFF0
ENDCHAR
STARTCHAR 316D
ENCODING 12653
SWIDTH 900 0
DWIDTH 15 0
BBX 12 9 2 1
BITMAP
FFF0
FFF0
3800
39C0
FBE0
FB70
C330
FFE0
FDC0
ENDCHAR
STARTCHAR 316E
ENCODING 12654
SWIDTH 900 0
DWIDTH 15 0
BBX 11 8 2 1
BITMAP
FB60
FB60
DBE0
DBE0
DB60
DB60
FBE0
FBE0
ENDCHAR
STARTCHAR 316F
ENCODING 12655
SWIDTH 900 0
DWIDTH 15 0
BBX 12 8 2 1
BITMAP
FCC0
FCC0
CCC0
CDC0
CDE0
CFE0
FF70
FE30
ENDCHAR
STARTCHAR 3170
ENCODING 12656
SWIDTH 900 0
DWIDTH 15 0
BBX 12 8 2 2
BITMAP
FC40
FCC0
CCC0
CDE0
CDE0
CDB0
FFF0
FFF0
ENDCHAR
STARTCHAR 3171
ENCODING 12657
SWIDTH 900 0
DWIDTH 15 0
BBX 9 13 3 -1
BITMAP
FF80
FF80
C180
C180
FF80
FF80
0000
3E00
FF80
C180
C180
FF80
3E00
ENDCHAR
STARTCHAR 3172
ENCODING 12658
SWIDTH 900 0
DWIDTH 15 0
BBX 11 8 2 1
BITMAP
CFE0
CFE0
FC60
FC60
CC60
CC60
FC60
FC60
ENDCHAR
STARTCHAR 3173
ENCODING 12659
SWIDTH 900 0
DWIDTH 15 0
BBX 11 8 2 1
BITMAP
CDE0
CDE0
FD80
FD80
CD80
CD80
FDE0
FDE0
ENDCHAR
STARTCHAR 3174
ENCODING 12660
SWIDTH 900 0
DWIDTH 15 0
BBX 13 8 1 1
BITMAP
DB78
DB78
FB18
FB18
DB98
DF98
FFD8
FCD8
ENDCHAR
STARTCHAR 3175
ENCODING 12661
SWIDTH 900 0
DWIDTH 15 0
BBX 14 8 1 1
BITMAP
DB3C
DB3C
FB30
FB30
DBB0
DFB0
FFFC
FCFC
ENDCHAR
STARTCHAR 3176
ENCODING 12662
SWIDTH 900 0
DWIDTH 15 0
BBX 12 8 2 1
BITMAP
DBE0
DBE0
F980
F9C0
DBC0
DBE0
FF70
FE20
ENDCHAR
STARTCHAR 3177
ENCODING 12663
SWIDTH 900 0
DWIDTH 15 0
BBX 11 8 2 1
BITMAP
CDE0
CDE0
FD80
FDE0
CDE0
CD80
FDE0
FDE0
ENDCHAR
STARTCHAR 3178
ENCODING 12664
SWIDTH 900 0
DWIDTH 15 0
BBX 10 13 3 -1
BITMAP
E0C0
FFC0
FFC0
E0C0
FFC0
FFC0
0000
3F00
7FC0
E1C0
E1C0
7FC0
3F00
ENDCHAR
STARTCHAR 3179
ENCODING 12665
SWIDTH 900 0
DWIDTH 15 0
BBX 11 13 2 -1
BITMAP
DB60
FBE0
FBE0
DB60
FBE0
FBE0
0000
3F00
7FC0
E0C0
E0C0
7FC0
1F00
ENDCHAR
STARTCHAR 317A
ENCODING 12666
SWIDTH 900 0
DWIDTH 15 0
BBX 11 9 2 0
BITMAP
1BE0
1BE0
1860
3860
3860
3C60
7E60
E660
4060
ENDCHAR
STARTCHAR 317B
ENCODING 12667
SWIDTH 900 0
DWIDTH 15 0
BBX 12 9 2 1
BITMAP
3180
3180
3180
3180
3180
7980
7D80
EFF0
CDF0
ENDCHAR
STARTCHAR 317C
ENCODING 12668
SWIDTH 900 0
DWIDTH 15 0
BBX 13 8 1 1
BITMAP
18F8
18F8
18C0
18C0
3CC0
3EC0
F7F8
63F8
ENDCHAR
STARTCHAR 317D
ENCODING 12669
SWIDTH 900 0
DWIDTH 15 0
BBX 11 9 2 1
BITMAP
3000
3360
3360
33E0
33E0
7B60
7B60
EFE0
CFE0
ENDCHAR
STARTCHAR 317E
ENCODING 12670
SWIDTH 900 0
DWIDTH 15 0
BBX 12 8 2 0
BITMAP
33E0
33E0
31C0
31C0
79C0
7BE0
FF70
CE30
ENDCHAR
STARTCHAR 317F
ENCODING 12671
SWIDTH 900 0
DWIDTH 15 0
BBX 12 9 2 1
BITMAP
0400
0600
0F00
1F00
1980
39C0
70E0
7FE0
FFF0
ENDCHAR
STARTCHAR 3180
ENCODING 12672
SWIDTH 900 0
DWIDTH 15 0
BBX 13 9 1 1
BITMAP
3060
78F0
CDB8
CD98
CD98
CD98
CDB8
78F0
30E0
ENDCHAR
STARTCHAR 3181
ENCODING 12673
SWIDTH 900 0
DWIDTH 15 0
BBX 11 12 2 0
BITMAP
0600
0600
0600
1F00
3FC0
71E0
60E0
E0E0
60E0
71E0
3FC0
1F00
ENDCHAR
STARTCHAR 3182
ENCODING 12674
SWIDTH 900 0
DWIDTH 15 0
BBX 14 9 1 1
BITMAP
3860
3860
3860
7C60
EEE0
C6F0
CFF8
7F9C
3908
ENDCHAR
STARTCHAR 3183
ENCODING 12675
SWIDTH 900 0
DWIDTH 15 0
BBX 13 9 1 1
BITMAP
3840
3860
3860
7C60
E6F0
C6F0
C798
7FF8
39F8
ENDCHAR
STARTCHAR 3184
ENCODING 12676
SWIDTH 900 0
DWIDTH 15 0
BBX 11 13 2 -1
BITMAP
FFE0
FFE0
3180
3180
FFE0
FFE0
0000
1F00
7FC0
60C0
60C0
7FC0
1F00
ENDCHAR
STARTCHAR 3185
ENCODING 12677
SWIDTH 900 0
DWIDTH 15 0
BBX 12 10 1 0
BITMAP
30E0
30E0
FDF0
FDF0
78E0
7DF0
CDB0
CDB0
79F0
30E0
ENDCHAR
STARTCHAR 3186
ENCODING 12678
SWIDTH 900 0
DWIDTH 15 0
BBX 10 11 3 0
BITMAP
FFC0
FFC0
0000
3E00
7F80
E180
E1C0
E1C0
E180
7F80
3E00
ENDCHAR
STARTCHAR 3187
ENCODING 12679
SWIDTH 900 0
DWIDTH 15 0
BBX 14 15 1 -2
BITMAP
0030
0030
0030
003C
003C
333C
3330
3330
333C
337C
FFF0
FFB0
0030
0030
0030
ENDCHAR
STARTCHAR 3188
ENCODING 12680
SWIDTH 900 0
DWIDTH 15 0
BBX 13 15 1 -2
BITMAP
00D8
00D8
00D8
00F8
00F8
6CD8
6CD8
6CD8
6CF8
6CF8
FED8
FCD8
00D8
00D8
0018
ENDCHAR
STARTCHAR 3189
ENCODING 12681
SWIDTH 900 0
DWIDTH 15 0
BBX 12 15 1 -2
BITMAP
0030
0030
0030
0030
0030
3330
3330
3330
3330
3370
FFF0
FFB0
0030
0030
0030
ENDCHAR
STARTCHAR 318A
ENCODING 12682
SWIDTH 900 0
DWIDTH 15 0
BBX 12 15 2 -2
BITMAP
0030
0030
0030
0030
0030
0030
01B0
FFB0
FF30
66F0
66F0
6630
66F0
66F0
6630
ENDCHAR
STARTCHAR 318B
ENCODING 12683
SWIDTH 900 0
DWIDTH 15 0
BBX 13 15 1 -2
BITMAP
00D8
00D8
00D8
00D8
00D8
00D8
FED8
FED8
6CD8
6DD8
6DD8
6DD8
6DD8
6CD8
0018
ENDCHAR
STARTCHAR 318C
ENCODING 12684
SWIDTH 900 0
DWIDTH 15 0
BBX 12 15 1 -2
BITMAP
0030
0030
0030
0030
0030
0030
0070
FFF0
FFB0
3330
3330
3330
3330
3330
3330
ENDCHAR
STARTCHAR 318D
ENCODING 12685
SWIDTH 900 0
DWIDTH 15 0
BBX 3 3 6 4
BITMAP
E0
E0
60
ENDCHAR
STARTCHAR 318E
ENCODING 12686
SWIDTH 900 0
DWIDTH 15 0
BBX 6 15 4 -2
BITMAP
0C
0C
0C
0C
0C
0C
EC
EC
4C
0C
0C
0C
0C
0C
0C
ENDCHAR
STARTCHAR 3200
ENCODING 12800
SWIDTH 900 0
DWIDTH 15 0
BBX 15 12 0 -1
BITMAP
200C
600C
6FF4
4FF6
C036
C036
C036
C036
4036
4006
600C
200C
ENDCHAR
STARTCHAR 3201
ENCODING 12801
SWIDTH 900 0
DWIDTH 15 0
BBX 15 12 0 -1
BITMAP
300C
6004
6C04
4C06
CC06
CC06
CC06
CC06
4FF6
6006
6004
200C
ENDCHAR
STARTCHAR 3202
ENCODING 12802
SWIDTH 900 0
DWIDTH 15 0
BBX 15 12 0 -1
BITMAP
200C
600C
7FE4
5FE6
D806
D806
D806
D806
5FE6
5FE6
600C
200C
ENDCHAR
STARTCHAR 3203
ENCODING 12803
SWIDTH 900 0
DWIDTH 15 0
BBX 15 12 0 -1
BITMAP
200C
600C
7FF4
5FF6
C036
DFF6
DFF6
D806
5FF6
5FF6
600C
200C
ENDCHAR
STARTCHAR 3204
ENCODING 12804
SWIDTH 900 0
DWIDTH 15 0
BBX 15 12 0 -1
BITMAP
300C
600C
6FF4
4FF6
CC36
CC36
CC36
CC36
4FF6
6FF6
600C
200C
ENDCHAR
STARTCHAR 3205
ENCODING 12805
SWIDTH 900 0
DWIDTH 15 0
BBX 15 12 0 -1
BITMAP
300C
600C
6C34
4C36
CFF6
CFF6
CC36
CC36
4FF6
6006
600C
200C
ENDCHAR
STARTCHAR 3206
ENCODING 12806
SWIDTH 900 0
DWIDTH 15 0
BBX 15 12 0 -1
BITMAP
300C
6004
6186
4186
C186
C3C2
C7C2
CE62
5C36
4816
6004
200C
ENDCHAR
STARTCHAR 3207
ENCODING 12807
SWIDTH 900 0
DWIDTH 15 0
BBX 15 12 0 -1
BITMAP
200C
600C
6104
4FE6
CC66
D836
D836
CC66
4FE6
4106
600C
200C
ENDCHAR
STARTCHAR 3208
ENCODING 12808
SWIDTH 900 0
DWIDTH 15 0
BBX 15 12 0 -1
BITMAP
300C
600C
6004
4FF6
C186
C186
C3C6
C666
4C36
6816
6004
200C
ENDCHAR
STARTCHAR 3209
ENCODING 12809
SWIDTH 900 0
DWIDTH 15 0
BBX 15 12 0 -1
BITMAP
300C
600C
6184
4FF6
CFF6
C186
C3C6
C666
4C36
6816
6004
200C
ENDCHAR
STARTCHAR 320A
ENCODING 12810
SWIDTH 900 0
DWIDTH 15 0
BBX 15 12 0 -1
BITMAP
200C
600C
6FF4
4FF6
C036
C036
CFF6
C036
4036
4006
600C
200C
ENDCHAR
STARTCHAR 320B
ENCODING 12811
SWIDTH 900 0
DWIDTH 15 0
BBX 15 12 0 -1
BITMAP
200C
600C
7FE4
5FE6
D806
DFE6
DFE6
D806
5FE6
5FE6
600C
200C
ENDCHAR
STARTCHAR 320C
ENCODING 12812
SWIDTH 900 0
DWIDTH 15 0
BBX 15 12 0 -1
BITMAP
200C
600C
6004
4FF6
C646
C646
C646
C646
5FF6
6004
600C
200C
ENDCHAR
STARTCHAR 320D
ENCODING 12813
SWIDTH 900 0
DWIDTH 15 0
BBX 15 12 0 -1
BITMAP
300C
600C
6184
4FF6
C006
CFE6
CC36
C836
4FE6
47C6
6004
200C
ENDCHAR
STARTCHAR 320E
ENCODING 12814
SWIDTH 900 0
DWIDTH 15 0
BBX 15 12 0 -1
BITMAP
200C
600C
6F24
4126
C126
C136
C326
CC26
5826
4026
6024
200C
ENDCHAR
STARTCHAR 320F
ENCODING 12815
SWIDTH 900 0
DWIDTH 15 0
BBX 15 12 0 -1
BITMAP
300C
600C
6824
4826
C826
C836
C826
C826
4FA6
4026
6004
200C
ENDCHAR
STARTCHAR 3210
ENCODING 12816
SWIDTH 900 0
DWIDTH 15 0
BBX 15 12 0 -1
BITMAP
300C
600C
6F24
4826
C826
C836
C826
C826
4FA6
4026
6024
200C
ENDCHAR
STARTCHAR 3211
ENCODING 12817
SWIDTH 900 0
DWIDTH 15 0
BBX 15 12 0 -1
BITMAP
300C
600C
6F24
4126
C126
CF36
C826
C826
4FA6
4026
6024
200C
ENDCHAR
STARTCHAR 3212
ENCODING 12818
SWIDTH 900 0
DWIDTH 15 0
BBX 15 12 0 -1
BITMAP
300C
600C
6F24
4926
C926
C936
C926
C926
4F26
4026
6024
200C
ENDCHAR
STARTCHAR 3213
ENCODING 12819
SWIDTH 900 0
DWIDTH 15 0
BBX 15 12 0 -1
BITMAP
300C
600C
6924
4926
CF26
C936
C926
C926
4F26
4026
6004
200C
ENDCHAR
STARTCHAR 3214
ENCODING 12820
SWIDTH 900 0
DWIDTH 15 0
BBX 15 12 0 -1
BITMAP
300C
600C
6224
4226
C226
C736
C526
CDA6
58A6
4026
6024
200C
ENDCHAR
STARTCHAR 3215
ENCODING 12821
SWIDTH 900 0
DWIDTH 15 0
BBX 15 12 0 -1
BITMAP
300C
600C
6F24
4926
C926
C936
C926
C926
4F26
4026
6024
200C
ENDCHAR
STARTCHAR 3216
ENCODING 12822
SWIDTH 900 0
DWIDTH 15 0
BBX 15 12 0 -1
BITMAP
300C
600C
6FA4
4226
C226
C636
C726
CDA6
58A6
4026
6024
200C
ENDCHAR
STARTCHAR 3217
ENCODING 12823
SWIDTH 900 0
DWIDTH 15 0
BBX 15 12 0 -1
BITMAP
300C
600C
6224
4FA6
C226
C236
C726
CDA6
58A6
4026
6004
200C
ENDCHAR
STARTCHAR 3218
ENCODING 12824
SWIDTH 900 0
DWIDTH 15 0
BBX 15 12 0 -1
BITMAP
200C
600C
6F24
4126
C126
CF36
C326
C626
5C26
4026
6024
200C
ENDCHAR
STARTCHAR 3219
ENCODING 12825
SWIDTH 900 0
DWIDTH 15 0
BBX 15 12 0 -1
BITMAP
300C
600C
6F24
4826
C826
CF36
C826
C826
4FA6
4026
6024
200C
ENDCHAR
STARTCHAR 321A
ENCODING 12826
SWIDTH 900 0
DWIDTH 15 0
BBX 15 12 0 -1
BITMAP
200C
602C
5FA4
4926
C936
C936
C926
DFA6
5FA6
4024
600C
200C
ENDCHAR
STARTCHAR 321B
ENCODING 12827
SWIDTH 900 0
DWIDTH 15 0
BBX 15 12 0 -1
BITMAP
200C
662C
7FA4
4026
CF26
C9B6
C9A6
C9A6
4726
4024
600C
200C
ENDCHAR
STARTCHAR 321C
ENCODING 12828
SWIDTH 900 0
DWIDTH 15 0
BBX 15 11 0 -1
BITMAP
600C
6FE4
4106
C7C6
CC76
C006
DFF6
4106
4106
610C
200C
ENDCHAR
STARTCHAR 3260
ENCODING 12896
SWIDTH 900 0
DWIDTH 15 0
BBX 14 14 1 -2
BITMAP
0FC0
3060
6010
C018
DFEC
806C
8064
8064
806C
C06C
C078
6030
3CE0
0FC0
ENDCHAR
STARTCHAR 3261
ENCODING 12897
SWIDTH 900 0
DWIDTH 15 0
BBX 14 14 1 -2
BITMAP
0FC0
3060
6010
D818
D80C
980C
9804
9804
980C
DFEC
C018
6030
3CE0
0FC0
ENDCHAR
STARTCHAR 3262
ENCODING 12898
SWIDTH 900 0
DWIDTH 15 0
BBX 14 14 1 -2
BITMAP
0FC0
3060
6010
C018
DFEC
980C
9804
9804
980C
DFEC
C018
6030
3CE0
0FC0
ENDCHAR
STARTCHAR 3263
ENCODING 12899
SWIDTH 900 0
DWIDTH 15 0
BBX 14 14 1 -2
BITMAP
0FC0
3060
6010
C018
FFEC
806C
BFE4
B004
B00C
FFEC
C018
6030
3CE0
0FC0
ENDCHAR
STARTCHAR 3264
ENCODING 12900
SWIDTH 900 0
DWIDTH 15 0
BBX 14 14 1 -2
BITMAP
0FC0
3060
6010
C018
DFEC
986C
9864
9864
986C
DFEC
C018
6030
3CE0
0FC0
ENDCHAR
STARTCHAR 3265
ENCODING 12901
SWIDTH 900 0
DWIDTH 15 0
BBX 14 14 1 -2
BITMAP
0FC0
3060
6010
D878
D86C
986C
9FE4
9864
986C
DFEC
C018
6030
3CE0
0FC0
ENDCHAR
STARTCHAR 3266
ENCODING 12902
SWIDTH 900 0
DWIDTH 15 0
BBX 14 14 1 -2
BITMAP
0FC0
3060
6010
C318
C30C
830C
8784
8CC4
986C
F02C
C018
6030
3CE0
0FC0
ENDCHAR
STARTCHAR 3267
ENCODING 12903
SWIDTH 900 0
DWIDTH 15 0
BBX 14 14 1 -2
BITMAP
0FC0
3060
6010
C018
CFCC
986C
B064
B064
98EC
CFCC
C018
6030
3CE0
0FC0
ENDCHAR
STARTCHAR 3268
ENCODING 12904
SWIDTH 900 0
DWIDTH 15 0
BBX 14 14 1 -2
BITMAP
0FC0
3060
6010
C018
DFEC
830C
8304
8784
8CCC
D86C
D038
6030
3CE0
0FC0
ENDCHAR
STARTCHAR 3269
ENCODING 12905
SWIDTH 900 0
DWIDTH 15 0
BBX 14 14 1 -2
BITMAP
0FC0
3060
6010
C318
DFEC
830C
8304
8784
8CCC
F86C
C018
6030
3CE0
0FC0
ENDCHAR
STARTCHAR 326A
ENCODING 12906
SWIDTH 900 0
DWIDTH 15 0
BBX 14 14 1 -2
BITMAP
0FC0
3060
6010
C018
DFEC
806C
8064
9FE4
806C
C06C
C078
6030
3CE0
0FC0
ENDCHAR
STARTCHAR 326B
ENCODING 12907
SWIDTH 900 0
DWIDTH 15 0
BBX 14 14 1 -2
BITMAP
0FC0
3060
6010
C018
DFEC
980C
9FE4
9804
980C
DFEC
C018
6030
3CE0
0FC0
ENDCHAR
STARTCHAR 326C
ENCODING 12908
SWIDTH 900 0
DWIDTH 15 0
BBX 14 14 1 -2
BITMAP
0FC0
3060
6010
C018
DFEC
8C8C
8C84
8C84
8C8C
FFEC
C018
6030
3CE0
0FC0
ENDCHAR
STARTCHAR 326D
ENCODING 12909
SWIDTH 900 0
DWIDTH 15 0
BBX 14 14 1 -2
BITMAP
0FC0
3060
6010
C318
DFEC
800C
9FC4
9864
986C
DFCC
C018
6030
3CE0
0FC0
ENDCHAR
STARTCHAR 326E
ENCODING 12910
SWIDTH 900 0
DWIDTH 15 0
BBX 14 14 1 -2
BITMAP
0FC0
3060
6050
DE58
C24C
826C
8664
8C44
984C
D04C
C058
6030
3CE0
0FC0
ENDCHAR
STARTCHAR 326F
ENCODING 12911
SWIDTH 900 0
DWIDTH 15 0
BBX 14 14 1 -2
BITMAP
0FC0
3060
6050
D058
D04C
906C
9064
9044
9F4C
DF4C
C058
6030
3CE0
0FC0
ENDCHAR
STARTCHAR 3270
ENCODING 12912
SWIDTH 900 0
DWIDTH 15 0
BBX 14 14 1 -2
BITMAP
0FC0
3060
6050
DE58
D04C
906C
9064
9044
9F4C
DF4C
C058
6030
3CE0
0FC0
ENDCHAR
STARTCHAR 3271
ENCODING 12913
SWIDTH 900 0
DWIDTH 15 0
BBX 14 14 1 -2
BITMAP
0FC0
3060
7E50
DE58
C24C
9E6C
9E64
9044
9F4C
DF4C
C058
6030
3CE0
0FC0
ENDCHAR
STARTCHAR 3272
ENCODING 12914
SWIDTH 900 0
DWIDTH 15 0
BBX 14 14 1 -2
BITMAP
0FC0
3060
6050
DE58
D24C
926C
9264
9244
9E4C
DE4C
C058
6030
3CE0
0FC0
ENDCHAR
STARTCHAR 3273
ENCODING 12915
SWIDTH 900 0
DWIDTH 15 0
BBX 14 14 1 -2
BITMAP
0FC0
3060
6050
D258
D24C
9E4C
9264
9244
9E4C
DE4C
C058
6030
3CE0
0FC0
ENDCHAR
STARTCHAR 3274
ENCODING 12916
SWIDTH 900 0
DWIDTH 15 0
BBX 14 14 1 -2
BITMAP
0FC0
3060
6050
C458
C44C
846C
8E64
8A44
914C
D14C
C058
6030
3CE0
0FC0
ENDCHAR
STARTCHAR 3275
ENCODING 12917
SWIDTH 900 0
DWIDTH 15 0
BBX 14 14 1 -2
BITMAP
0FC0
3060
6C50
DF58
D14C
916C
9164
9144
9B4C
CE4C
C058
6030
3CE0
0FC0
ENDCHAR
STARTCHAR 3276
ENCODING 12918
SWIDTH 900 0
DWIDTH 15 0
BBX 14 14 1 -2
BITMAP
0FC0
3060
6050
DF58
C44C
846C
8E64
9B44
914C
D14C
C058
6030
3CE0
0FC0
ENDCHAR
STARTCHAR 3277
ENCODING 12919
SWIDTH 900 0
DWIDTH 15 0
BBX 14 14 1 -2
BITMAP
0FC0
3060
6450
DF58
C44C
846C
8E64
9B44
914C
D14C
C058
6030
3CE0
0FC0
ENDCHAR
STARTCHAR 3278
ENCODING 12920
SWIDTH 900 0
DWIDTH 15 0
BBX 14 14 1 -2
BITMAP
0FC0
3060
6050
DE58
C24C
9E6C
8664
8C44
984C
D04C
C058
6030
3CE0
0FC0
ENDCHAR
STARTCHAR 3279
ENCODING 12921
SWIDTH 900 0
DWIDTH 15 0
BBX 14 14 1 -2
BITMAP
0FC0
3060
7E50
DE58
D04C
9E6C
9E64
9044
9F4C
DF4C
C058
6030
3CE0
0FC0
ENDCHAR
STARTCHAR 327A
ENCODING 12922
SWIDTH 900 0
DWIDTH 15 0
BBX 14 14 1 -2
BITMAP
0FC0
3060
6050
FF58
D24C
926C
9264
9244
BF4C
FF4C
C058
6030
3CE0
0FC0
ENDCHAR
STARTCHAR 327B
ENCODING 12923
SWIDTH 900 0
DWIDTH 15 0
BBX 14 14 1 -2
BITMAP
0FC0
3060
6C50
FF58
C04C
9E4C
9364
9344
934C
CE4C
C058
6030
3CE0
0FC0
ENDCHAR
STARTCHAR 327E
ENCODING 12926
SWIDTH 900 0
DWIDTH 15 0
BBX 14 14 1 -2
BITMAP
0FC0
3060
6010
DFD8
D04C
904C
8FC4
8004
BFEC
C20C
C218
6230
3CE0
0FC0
ENDCHAR
STARTCHAR 327F
ENCODING 12927
SWIDTH 900 0
DWIDTH 15 0
BBX 14 14 1 -2
BITMAP
0FC0
3070
7CF8
5DC8
9F8C
FF04
FF00
9F1C
9D84
DCCC
5CF8
6018
3860
0FC0
ENDCHAR
STARTCHAR 3380
ENCODING 13184
SWIDTH 900 0
DWIDTH 15 0
BBX 15 17 1 -5
BITMAP
0060
0060
00E0
00F0
F8F0
F9B0
CD90
CD98
CF18
CFF8
CF0C
DF0C
FE0C
F606
C000
C000
C000
ENDCHAR
STARTCHAR 3381
ENCODING 13185
SWIDTH 900 0
DWIDTH 15 0
BBX 15 13 1 -1
BITMAP
0060
0060
00F0
F0F0
F8D0
DC98
CD98
CD98
CDF8
CFFC
CF0C
CF04
CE06
ENDCHAR
STARTCHAR 3382
ENCODING 13186
SWIDTH 900 0
DWIDTH 15 0
BBX 15 15 0 -3
BITMAP
0060
0070
0070
00F0
36D0
26D8
2698
6798
65FC
65FC
6D0C
7F04
7F06
C206
C000
ENDCHAR
STARTCHAR 3383
ENCODING 13187
SWIDTH 900 0
DWIDTH 15 0
BBX 15 13 0 -1
BITMAP
0020
0070
0070
E850
FCD0
D6D8
D6D8
D688
D7FC
D7FC
D78C
D704
D706
ENDCHAR
STARTCHAR 3384
ENCODING 13188
SWIDTH 900 0
DWIDTH 15 0
BBX 14 13 1 -1
BITMAP
C0E0
C0E0
C0E0
CCB0
CDB0
D9B0
F190
F318
F3F8
DBF8
DA0C
CE0C
CE0C
ENDCHAR
STARTCHAR 3388
ENCODING 13192
SWIDTH 900 0
DWIDTH 15 0
BBX 15 14 0 -2
BITMAP
000C
001E
001E
31D6
7BD6
4AF6
CEF6
C6F6
C6F6
C6D4
4EDC
4ADE
7BFE
31CE
ENDCHAR
STARTCHAR 3389
ENCODING 13193
SWIDTH 900 0
DWIDTH 15 0
BBX 14 14 0 -2
BITMAP
000C
800C
800C
801C
BCFC
BEF4
EBF4
EBB4
C9B4
E9B4
ABFC
ABFC
BEFC
94FC
ENDCHAR
STARTCHAR 338A
ENCODING 13194
SWIDTH 900 0
DWIDTH 15 0
BBX 14 17 1 -5
BITMAP
01FC
01FC
0180
0180
FD80
FD80
C7F8
C7F8
C780
C780
C780
ED80
FD80
D000
C000
C000
C000
ENDCHAR
STARTCHAR 338B
ENCODING 13195
SWIDTH 900 0
DWIDTH 15 0
BBX 13 14 1 -2
BITMAP
01F8
01F8
0180
0180
F980
FD80
CDF8
CDF8
CD80
CD80
CD80
CD80
CD80
CD80
ENDCHAR
STARTCHAR 338C
ENCODING 13196
SWIDTH 900 0
DWIDTH 15 0
BBX 15 14 0 -2
BITMAP
00FE
00FE
00C0
33C0
33C0
22C0
26FC
66FC
66C0
66C0
6EC0
7FC0
7EC0
C000
ENDCHAR
STARTCHAR 338D
ENCODING 13197
SWIDTH 900 0
DWIDTH 15 0
BBX 14 13 1 -4
BITMAP
0060
66FC
67DC
678C
678C
458C
CD8C
CD9C
FCFC
FE7C
C18C
80F8
0070
ENDCHAR
STARTCHAR 338E
ENCODING 13198
SWIDTH 900 0
DWIDTH 15 0
BBX 14 13 1 -4
BITMAP
EC7C
FEFC
F6DC
D78C
D78C
D78C
D78C
D6DC
D6FC
D67C
008C
00F8
0070
ENDCHAR
STARTCHAR 338F
ENCODING 13199
SWIDTH 900 0
DWIDTH 15 0
BBX 13 16 1 -4
BITMAP
C000
C000
C000
C6F8
CDF8
D9B8
FB18
F318
F318
DB18
D9B8
CDF8
CCF8
0390
01F0
00E0
ENDCHAR
STARTCHAR 3390
ENCODING 13200
SWIDTH 900 0
DWIDTH 15 0
BBX 13 13 1 -1
BITMAP
C600
C600
C600
C600
C6F8
FE18
FE30
C630
C660
C6E0
C6C0
C7F8
C7F8
ENDCHAR
STARTCHAR 3391
ENCODING 13201
SWIDTH 900 0
DWIDTH 15 0
BBX 15 13 0 -1
BITMAP
C360
C360
C360
C360
CF7E
DB7E
DBE6
F3EC
F36C
F368
DB78
DB7E
CF7E
ENDCHAR
STARTCHAR 3392
ENCODING 13202
SWIDTH 900 0
DWIDTH 15 0
BBX 14 13 1 -1
BITMAP
8B60
DB60
DB60
DB60
DB7C
DB64
DBEC
DB6C
DB68
FB78
BB78
AB7C
AB7C
ENDCHAR
STARTCHAR 3393
ENCODING 13203
SWIDTH 900 0
DWIDTH 15 0
BBX 15 14 0 -2
BITMAP
3B60
7F60
6F60
CF60
CF7E
C366
DFE4
DF64
CF6C
CF6C
CF68
6F78
7F7E
3F7E
ENDCHAR
STARTCHAR 3394
ENCODING 13204
SWIDTH 900 0
DWIDTH 15 0
BBX 15 13 0 -1
BITMAP
FF60
FF60
3360
3360
337E
337E
33E6
33E4
336C
3368
3378
337E
337E
ENDCHAR
STARTCHAR 3395
ENCODING 13205
SWIDTH 900 0
DWIDTH 15 0
BBX 15 15 0 -3
BITMAP
0038
0078
006C
00CC
33CC
23CC
62CC
66CC
66D8
66D8
66F8
6E74
FFFE
F6BC
C000
ENDCHAR
STARTCHAR 3396
ENCODING 13206
SWIDTH 900 0
DWIDTH 15 0
BBX 14 14 1 -3
BITMAP
0038
0078
006C
004C
FECC
FFCC
DBCC
DBCC
DBD8
DBD8
DB78
DB74
DBFC
DB3C
ENDCHAR
STARTCHAR 3397
ENCODING 13207
SWIDTH 900 0
DWIDTH 15 0
BBX 13 14 1 -2
BITMAP
0030
0678
06D8
06D8
3E98
7E98
CE98
C698
C690
C6B0
C6F0
CEE8
7FF8
3678
ENDCHAR
STARTCHAR 3398
ENCODING 13208
SWIDTH 900 0
DWIDTH 15 0
BBX 13 14 1 -2
BITMAP
0070
C0F0
C0D8
C198
CF98
CD98
D998
F198
F1B0
F9B0
D8F0
CDE8
CDF8
C678
ENDCHAR
STARTCHAR 3399
ENCODING 13209
SWIDTH 900 0
DWIDTH 15 0
BBX 12 13 2 -1
BITMAP
3000
7000
6000
FF60
FFF0
6DB0
6DB0
6DB0
6DB0
6DB0
6DB0
6DB0
6DB0
ENDCHAR
STARTCHAR 339A
ENCODING 13210
SWIDTH 900 0
DWIDTH 15 0
BBX 14 10 1 -1
BITMAP
F3F8
FBF8
CF6C
CF6C
CF6C
CF6C
CF6C
CF6C
CF6C
CF6C
ENDCHAR
STARTCHAR 339B
ENCODING 13211
SWIDTH 900 0
DWIDTH 15 0
BBX 15 11 0 -2
BITMAP
27EC
67FE
67B6
67B6
65B6
6DB6
4DB6
6DB6
FFB6
F7B6
C000
ENDCHAR
STARTCHAR 339C
ENCODING 13212
SWIDTH 900 0
DWIDTH 15 0
BBX 15 10 0 -1
BITMAP
FEEC
FEFE
DBD6
DBD6
DBD6
DBD6
DBD6
DBD6
DBD6
DBD6
ENDCHAR
STARTCHAR 339D
ENCODING 13213
SWIDTH 900 0
DWIDTH 15 0
BBX 15 11 0 -2
BITMAP
39AC
7DFE
67FE
C7F6
C1B6
C1B6
C1B6
C7B6
67B6
7DB6
3800
ENDCHAR
STARTCHAR 339E
ENCODING 13214
SWIDTH 900 0
DWIDTH 15 0
BBX 14 13 1 -1
BITMAP
C000
C000
C000
CFD8
DBF8
DB6C
F36C
E36C
F36C
F36C
DB6C
DB6C
CF6C
ENDCHAR
STARTCHAR 339F
ENCODING 13215
SWIDTH 900 0
DWIDTH 15 0
BBX 14 13 1 -1
BITMAP
001C
0014
000C
D758
FFFC
EFE0
AFA0
AFA0
AFA0
AFA0
AFA0
AFA0
AFA0
ENDCHAR
STARTCHAR 33A0
ENCODING 13216
SWIDTH 900 0
DWIDTH 15 0
BBX 15 14 0 -2
BITMAP
000E
000A
0006
000C
7BFE
6FF0
CF70
C370
C370
C370
CF70
6F70
7F70
3800
ENDCHAR
STARTCHAR 33A1
ENCODING 13217
SWIDTH 900 0
DWIDTH 15 0
BBX 12 13 2 -1
BITMAP
0070
0050
0030
F660
FFF0
D980
D980
D980
D980
D980
D980
D980
D980
ENDCHAR
STARTCHAR 33A2
ENCODING 13218
SWIDTH 900 0
DWIDTH 15 0
BBX 15 13 0 -1
BITMAP
C00E
C00A
C006
CEEC
DBFE
DBF0
F3F0
F3F0
F3F0
F3F0
DBF0
DBF0
CFF0
ENDCHAR
STARTCHAR 33A3
ENCODING 13219
SWIDTH 900 0
DWIDTH 15 0
BBX 14 13 1 -1
BITMAP
001C
0014
000C
D754
FFFC
AEA0
AEA0
AEA0
AEA0
AEA0
AEA0
AEA0
AEA0
ENDCHAR
STARTCHAR 33A4
ENCODING 13220
SWIDTH 900 0
DWIDTH 15 0
BBX 15 14 0 -2
BITMAP
000E
000A
0006
0002
3BFA
7FFE
CF50
CF50
C350
C350
CF50
EF50
7F50
3800
ENDCHAR
STARTCHAR 33A5
ENCODING 13221
SWIDTH 900 0
DWIDTH 15 0
BBX 12 14 2 -2
BITMAP
0070
0050
0030
0050
FF50
FFF0
D980
D980
D980
D980
D980
D980
D980
D980
ENDCHAR
STARTCHAR 33A6
ENCODING 13222
SWIDTH 900 0
DWIDTH 15 0
BBX 15 13 0 -1
BITMAP
C00E
C00A
C006
CEEA
DBFE
DBF0
F3D0
E3D0
F3D0
D3D0
DBD0
DBD0
CFD0
ENDCHAR
STARTCHAR 33A7
ENCODING 13223
SWIDTH 900 0
DWIDTH 15 0
BBX 14 14 0 -2
BITMAP
FE04
FE0C
DE18
DE30
DE60
DEC0
DFB8
037C
064C
0C78
183C
38C4
307C
6038
ENDCHAR
STARTCHAR 33A8
ENCODING 13224
SWIDTH 900 0
DWIDTH 15 0
BBX 14 14 1 -3
BITMAP
FC08
BC18
BC30
BC60
BCCC
BD8C
BF08
07EC
0D30
1980
31E0
6330
C130
81F0
ENDCHAR
STARTCHAR 33A9
ENCODING 13225
SWIDTH 900 0
DWIDTH 15 0
BBX 13 14 1 -2
BITMAP
F800
FC00
C600
C668
C6F8
C798
FD98
F998
C118
C118
C198
C1B8
C1F8
00E0
ENDCHAR
STARTCHAR 33AA
ENCODING 13226
SWIDTH 900 0
DWIDTH 15 0
BBX 15 14 0 -2
BITMAP
C780
C7C0
C640
C66A
DE7E
D676
F7F6
E7B6
F636
F636
D636
DE36
DE1E
CE18
ENDCHAR
STARTCHAR 33AB
ENCODING 13227
SWIDTH 900 0
DWIDTH 15 0
BBX 14 14 1 -2
BITMAP
8F80
DF80
DEC0
DEC0
DEFC
DEEC
DFAC
DFAC
FE2C
FE2C
AE2C
AE2C
AE3C
AE1C
ENDCHAR
STARTCHAR 33AC
ENCODING 13228
SWIDTH 900 0
DWIDTH 15 0
BBX 15 14 0 -2
BITMAP
3B80
7FC0
6F40
4F6E
C37E
C354
DFF4
DFF4
CF34
4F34
4F34
6F36
7F1E
0018
ENDCHAR
STARTCHAR 33AD
ENCODING 13229
SWIDTH 900 0
DWIDTH 15 0
BBX 15 14 0 -2
BITMAP
0006
0006
0006
0006
F7BE
FFBE
EDE6
CDE6
CDE6
CDE6
CDE6
CDEE
C7BE
C69E
ENDCHAR
STARTCHAR 33AE
ENCODING 13230
SWIDTH 900 0
DWIDTH 15 0
BBX 14 15 1 -2
BITMAP
0080
0080
FB80
AE84
AE88
AE90
BFA0
0060
00C0
01B8
0368
0638
0C68
1878
3000
ENDCHAR
STARTCHAR 33AF
ENCODING 13231
SWIDTH 900 0
DWIDTH 15 0
BBX 14 15 1 -3
BITMAP
0080
0080
FB80
AE8C
AE98
AFB0
BBEC
004C
0088
017C
02D0
0670
0C90
18F0
3000
ENDCHAR
STARTCHAR 33B0
ENCODING 13232
SWIDTH 900 0
DWIDTH 15 0
BBX 14 13 1 -4
BITMAP
1020
FCF8
EDD8
C78C
C7E0
C6F8
C61C
C78C
EDDC
FCF8
D030
C000
C000
ENDCHAR
STARTCHAR 33B1
ENCODING 13233
SWIDTH 900 0
DWIDTH 15 0
BBX 13 11 1 -2
BITMAP
F8F0
FDF8
ED98
CD98
CDE0
CCF0
CC38
CF18
CD98
CDF8
CCF0
ENDCHAR
STARTCHAR 33B2
ENCODING 13234
SWIDTH 900 0
DWIDTH 15 0
BBX 14 12 1 -3
BITMAP
0070
66F8
679C
678C
67E0
64F8
4C1C
CD8C
FD8C
FEF8
E670
C000
ENDCHAR
STARTCHAR 33B3
ENCODING 13235
SWIDTH 900 0
DWIDTH 15 0
BBX 14 11 0 -2
BITMAP
FC70
FEF8
DECC
DF8C
DEF0
DEF8
DE1C
DF8C
DFCC
DEFC
0070
ENDCHAR
STARTCHAR 33B4
ENCODING 13236
SWIDTH 900 0
DWIDTH 15 0
BBX 14 17 1 -5
BITMAP
040C
0608
0618
0618
FB18
FB30
CF30
CF30
CDA0
CDE0
CDE0
CCE0
F8C0
F8C0
C000
C000
C000
ENDCHAR
STARTCHAR 33B5
ENCODING 13237
SWIDTH 900 0
DWIDTH 15 0
BBX 13 13 1 -1
BITMAP
0608
0618
0618
1618
FB10
FF30
CF30
CD30
CDA0
CDE0
CDE0
CCC0
CCC0
ENDCHAR
STARTCHAR 33B6
ENCODING 13238
SWIDTH 900 0
DWIDTH 15 0
BBX 15 15 0 -3
BITMAP
0306
0306
0104
018C
278C
278C
6688
66D8
64D8
6CD8
6C70
7C70
7E70
C020
C000
ENDCHAR
STARTCHAR 33B7
ENCODING 13239
SWIDTH 900 0
DWIDTH 15 0
BBX 15 14 0 -2
BITMAP
0306
0306
0106
018C
FF8C
FF8C
DA88
DAD8
DAD8
DAD8
DA70
DA70
DA70
DA30
ENDCHAR
STARTCHAR 33B8
ENCODING 13240
SWIDTH 900 0
DWIDTH 15 0
BBX 14 14 1 -2
BITMAP
C60C
C60C
C20C
C318
CF18
DB18
F198
F1B0
F1B0
F0B0
D8E0
D8E0
CCE0
CC60
ENDCHAR
STARTCHAR 33B9
ENCODING 13241
SWIDTH 900 0
DWIDTH 15 0
BBX 15 13 0 -1
BITMAP
E3E2
E3E6
E3E6
E3E6
E3E6
F7A4
F7B4
F7BC
D5BC
DDBC
DD9C
DD98
DD98
ENDCHAR
STARTCHAR 33BA
ENCODING 13242
SWIDTH 900 0
DWIDTH 15 0
BBX 14 17 1 -5
BITMAP
0CCC
0CCC
0CCC
04C8
F4C8
FDF8
DFF8
DFF8
DF78
DF30
DB30
DB30
F330
F330
C000
C000
C000
ENDCHAR
STARTCHAR 33BB
ENCODING 13243
SWIDTH 900 0
DWIDTH 15 0
BBX 14 14 1 -2
BITMAP
0CCC
0CCC
0CCC
04EC
F4EC
FEE8
DFE8
DFA8
DFB8
DBB8
DB38
DB30
DB30
DB30
ENDCHAR
STARTCHAR 33BC
ENCODING 13244
SWIDTH 900 0
DWIDTH 15 0
BBX 15 15 0 -3
BITMAP
0326
0376
0376
0376
2576
6554
6D54
6D54
6DDC
6DDC
4DDC
7DDC
FCD8
C000
C000
ENDCHAR
STARTCHAR 33BD
ENCODING 13245
SWIDTH 900 0
DWIDTH 15 0
BBX 15 13 0 -1
BITMAP
0336
0336
0376
ED76
FD76
D754
D754
D7D4
D7DC
D7DC
D7DC
D6DC
D6D8
ENDCHAR
STARTCHAR 33BE
ENCODING 13246
SWIDTH 900 0
DWIDTH 15 0
BBX 15 14 0 -2
BITMAP
C266
C266
C366
C364
CF74
DB74
D97C
F1DC
F1DC
F1DC
D9D8
D998
CD98
CD98
ENDCHAR
STARTCHAR 33BF
ENCODING 13247
SWIDTH 900 0
DWIDTH 15 0
BBX 15 13 0 -1
BITMAP
C7B6
C7B6
E7B6
E7B6
E7B6
EEB4
EEBC
EEFC
FEFC
FEFC
DEEC
DECC
DECC
ENDCHAR
STARTCHAR 33C0
ENCODING 13248
SWIDTH 900 0
DWIDTH 15 0
BBX 14 14 1 -2
BITMAP
C0E0
C1F0
C198
C318
CF08
DB0C
DB0C
F308
F318
F198
D9F0
D8E0
CDF8
CDF8
ENDCHAR
STARTCHAR 33C1
ENCODING 13249
SWIDTH 900 0
DWIDTH 15 0
BBX 14 13 1 -1
BITMAP
C470
CCF8
CD98
CD8C
CD8C
CD8C
ED8C
FD8C
BD8C
BCD8
B4F0
B470
B4FC
ENDCHAR
STARTCHAR 33C2
ENCODING 13250
SWIDTH 900 0
DWIDTH 15 0
BBX 14 9 1 -2
BITMAP
2000
F1F0
9150
1150
7150
D150
9150
F55C
555C
ENDCHAR
STARTCHAR 33C3
ENCODING 13251
SWIDTH 900 0
DWIDTH 15 0
BBX 13 17 1 -5
BITMAP
F800
FC00
CC00
CC00
CCF8
CCF8
F998
FD98
CD98
CD98
CD98
CD98
FCF8
F078
0018
0018
0018
ENDCHAR
STARTCHAR 33C4
ENCODING 13252
SWIDTH 900 0
DWIDTH 15 0
BBX 14 11 1 -2
BITMAP
3870
7CF8
66CC
C78C
C180
C180
C180
C78C
E6CC
7CF8
3870
ENDCHAR
STARTCHAR 33C5
ENCODING 13253
SWIDTH 900 0
DWIDTH 15 0
BBX 14 14 0 -2
BITMAP
000C
000C
000C
383C
7CFC
66DC
C78C
C18C
C18C
C18C
C78C
66DC
7CFC
3820
ENDCHAR
STARTCHAR 33C6
ENCODING 13254
SWIDTH 900 0
DWIDTH 15 0
BBX 15 16 0 -3
BITMAP
0010
7830
4C60
C0C0
4080
4D80
7B00
0600
0D00
1900
317E
61D2
C192
415E
0172
001E
ENDCHAR
STARTCHAR 33C7
ENCODING 13255
SWIDTH 900 0
DWIDTH 15 0
BBX 14 13 0 -2
BITMAP
1C00
7E00
6600
4000
C060
C0F0
C098
C198
C198
C398
6698
7EFC
1C64
ENDCHAR
STARTCHAR 33C8
ENCODING 13256
SWIDTH 900 0
DWIDTH 15 0
BBX 13 14 1 -2
BITMAP
07F0
07F8
0798
0798
7F98
6FF0
C7F0
C798
C798
C798
C798
EF98
7FF8
37E0
ENDCHAR
STARTCHAR 33C9
ENCODING 13257
SWIDTH 900 0
DWIDTH 15 0
BBX 15 16 0 -4
BITMAP
3C00
7E00
6600
4300
C3C6
C0C4
CF4C
CF6C
C36C
C338
6738
7F38
3F30
0030
0070
0060
ENDCHAR
STARTCHAR 33CA
ENCODING 13258
SWIDTH 900 0
DWIDTH 15 0
BBX 13 14 1 -2
BITMAP
C000
C000
C000
F8F8
FDF8
ED98
CD18
CF18
CF18
CF18
CF18
CDB8
CDF8
CCE8
ENDCHAR
STARTCHAR 33CF
ENCODING 13263
SWIDTH 900 0
DWIDTH 15 0
BBX 11 13 2 -1
BITMAP
C000
C0C0
C0C0
C0C0
CDE0
D9E0
F8C0
F0C0
F0C0
D8C0
D8C0
CCE0
CCE0
ENDCHAR
STARTCHAR 33D0
ENCODING 13264
SWIDTH 900 0
DWIDTH 15 0
BBX 11 13 3 -1
BITMAP
C000
C000
C000
C680
DFC0
DB60
DB60
DB60
DB60
DB60
DB60
DB60
DB60
ENDCHAR
STARTCHAR 33D3
ENCODING 13267
SWIDTH 900 0
DWIDTH 15 0
BBX 11 13 3 -1
BITMAP
C000
C000
C000
C000
DCC0
CDC0
C780
C700
C300
C780
CD80
CCC0
D8E0
ENDCHAR
STARTCHAR 33D6
ENCODING 13270
SWIDTH 900 0
DWIDTH 15 0
BBX 13 13 1 -2
BITMAP
0008
0008
0008
F9C8
FBE8
BF68
BF68
BE68
BE68
BF68
BF68
BDC8
BDC8
ENDCHAR
STARTCHAR 33D8
ENCODING 13272
SWIDTH 900 0
DWIDTH 15 0
BBX 14 11 1 -4
BITMAP
F3A0
F3F0
9B50
8B50
8B50
8B50
9B50
FF5C
A404
8000
8000
ENDCHAR
STARTCHAR 33DB
ENCODING 13275
SWIDTH 900 0
DWIDTH 15 0
BBX 13 11 1 -2
BITMAP
1C58
7E78
6360
6360
7840
3E40
0740
E340
6340
7E40
3C40
ENDCHAR
STARTCHAR 33DC
ENCODING 13276
SWIDTH 900 0
DWIDTH 15 0
BBX 15 14 0 -2
BITMAP
3C00
7E00
6300
C300
E0C6
70C6
7E64
1F6C
036C
C32C
C338
6338
7E18
1C00
ENDCHAR
STARTCHAR 33DD
ENCODING 13277
SWIDTH 900 0
DWIDTH 15 0
BBX 15 14 0 -2
BITMAP
D9C0
DBC0
DBC0
DBC0
DBF8
5BFC
5FE4
7EC6
7EC6
7EC6
76C6
76EC
66FC
26D8
ENDCHAR
STARTCHAR AC00
ENCODING 44032
SWIDTH 900 0
DWIDTH 15 0
BBX 14 15 1 -2
BITMAP
0030
FF30
FF30
0330
0330
033C
073C
0E3C
1C30
3830
7030
E030
4030
0030
0030
ENDCHAR
STARTCHAR AC01
ENCODING 44033
SWIDTH 900 0
DWIDTH 15 0
BBX 14 14 1 -2
BITMAP
FF30
FF30
0330
033C
1F30
7C30
E030
8000
7FF0
7FF0
0030
0030
0030
0030
ENDCHAR
STARTCHAR AC02
ENCODING 44034
SWIDTH 900 0
DWIDTH 15 0
BBX 14 14 1 -2
BITMAP
FF30
FF30
0730
073C
1E30
FC30
E030
0000
7DF0
7DF0
0C30
0C30
0C30
0C30
ENDCHAR
STARTCHAR AC03
ENCODING 44035
SWIDTH 900 0
DWIDTH 15 0
BBX 14 14 1 -2
BITMAP
FF30
FF30
073C
073C
1E30
F830
E030
0000
FC60
FC60
0CF0
0DF8
0F9C
0D08
ENDCHAR
STARTCHAR AC04
ENCODING 44036
SWIDTH 900 0
DWIDTH 15 0
BBX 15 15 0 -2
BITMAP
0018
7F18
7F18
0318
031E
0F1E
3E18
F818
E018
0018
3018
3000
3000
3FF8
3FF8
ENDCHAR
STARTCHAR AC05
ENCODING 44037
SWIDTH 900 0
DWIDTH 15 0
BBX 14 15 1 -2
BITMAP
0038
FF38
FF38
033C
073C
1E38
F838
E038
0000
61F8
61F8
6060
60F8
7FFC
7D88
ENDCHAR
STARTCHAR AC06
ENCODING 44038
SWIDTH 900 0
DWIDTH 15 0
BBX 14 16 1 -3
BITMAP
0038
FF38
0338
033C
0F3C
7E38
F038
8000
0060
63FC
63FC
6198
6198
7D98
7DF8
00F0
ENDCHAR
STARTCHAR AC07
ENCODING 44039
SWIDTH 900 0
DWIDTH 15 0
BBX 15 14 0 -2
BITMAP
7F18
7F18
031E
031E
1F18
7C18
E018
0000
3FF8
3FF8
3000
3000
3FF8
3FF8
ENDCHAR
STARTCHAR AC08
ENCODING 44040
SWIDTH 900 0
DWIDTH 15 0
BBX 15 15 0 -2
BITMAP
0018
7F18
7F18
031E
0F1E
3E18
F818
C018
3FF8
3FF8
0018
3FF8
3000
3FF8
3FF8
ENDCHAR
STARTCHAR AC09
ENCODING 44041
SWIDTH 900 0
DWIDTH 15 0
BBX 15 15 0 -2
BITMAP
0018
7F98
7F98
039E
079E
3F18
F818
4018
3EF8
3EF8
0618
3E18
3018
3F98
3F98
ENDCHAR
STARTCHAR AC0A
ENCODING 44042
SWIDTH 900 0
DWIDTH 15 0
BBX 14 15 1 -2
BITMAP
0030
FF30
FF30
033C
0F3C
3E30
F830
C030
7DF0
7DF0
0DB0
7DB0
61B0
7DF0
7DF0
ENDCHAR
STARTCHAR AC0B
ENCODING 44043
SWIDTH 900 0
DWIDTH 15 0
BBX 14 14 1 -2
BITMAP
FF30
FF30
033C
073C
1E30
F830
E030
7DB0
7DB0
0DF0
7DF0
61B0
7DF0
7DF0
ENDCHAR
STARTCHAR AC0C
ENCODING 44044
SWIDTH 900 0
DWIDTH 15 0
BBX 15 15 0 -2
BITMAP
0018
7F98
7F98
019E
079E
3F18
F818
4018
3F30
3F30
0330
3F78
30FC
3FCE
3F44
ENDCHAR
STARTCHAR AC0D
ENCODING 44045
SWIDTH 900 0
DWIDTH 15 0
BBX 14 15 1 -2
BITMAP
0030
FF30
FF30
033C
0F3C
3E30
F830
C030
7DF0
7DF0
0D80
7DF0
6180
7DF8
7DF8
ENDCHAR
STARTCHAR AC0E
ENCODING 44046
SWIDTH 900 0
DWIDTH 15 0
BBX 14 15 1 -2
BITMAP
0038
FF38
FF38
033C
0F3C
3E38
F838
C038
7DF8
7DF8
0DF8
7DF8
61F8
7DF8
7DF8
ENDCHAR
STARTCHAR AC0F
ENCODING 44047
SWIDTH 900 0
DWIDTH 15 0
BBX 14 15 1 -3
BITMAP
FF38
FF38
033C
073C
1E38
F838
C038
7C60
7DFC
0DFC
7CD8
7D98
61D8
7FF8
7E70
ENDCHAR
STARTCHAR AC10
ENCODING 44048
SWIDTH 900 0
DWIDTH 15 0
BBX 15 15 0 -2
BITMAP
0018
7F18
7F18
031E
071E
1F18
FC18
E018
0000
3FF8
3FF8
3018
3018
3FF8
3FF8
ENDCHAR
STARTCHAR AC11
ENCODING 44049
SWIDTH 900 0
DWIDTH 15 0
BBX 15 15 0 -2
BITMAP
0018
7F18
7F18
031E
071E
3E18
F818
E018
0000
3018
3FF8
3FF8
3018
3FF8
3FF8
ENDCHAR
STARTCHAR AC12
ENCODING 44050
SWIDTH 900 0
DWIDTH 15 0
BBX 15 15 0 -2
BITMAP
0018
7F98
7F98
039E
079E
1F18
FC18
6018
0000
3330
3F30
3F78
337C
3FEE
3F44
ENDCHAR
STARTCHAR AC13
ENCODING 44051
SWIDTH 900 0
DWIDTH 15 0
BBX 14 14 1 -2
BITMAP
FF30
FF30
0330
033C
073C
3E30
F830
E030
0330
0300
0780
1FE0
7CF8
7038
ENDCHAR
STARTCHAR AC14
ENCODING 44052
SWIDTH 900 0
DWIDTH 15 0
BBX 15 15 0 -3
BITMAP
7F98
7F98
0398
039E
079E
3F18
F818
6018
0C30
0C30
0C30
1E78
3FFE
338E
2000
ENDCHAR
STARTCHAR AC15
ENCODING 44053
SWIDTH 900 0
DWIDTH 15 0
BBX 14 14 1 -2
BITMAP
FF30
FF30
033C
073C
1F30
7C30
F030
8030
3FE0
7FF0
6038
6038
7FF0
3FE0
ENDCHAR
STARTCHAR AC16
ENCODING 44054
SWIDTH 900 0
DWIDTH 15 0
BBX 14 15 1 -2
BITMAP
0030
FF30
FF30
073C
073C
1E30
F830
E030
0000
7FF0
7FF0
0700
1FC0
FDF8
7038
ENDCHAR
STARTCHAR AC17
ENCODING 44055
SWIDTH 900 0
DWIDTH 15 0
BBX 15 15 0 -3
BITMAP
7F98
7F98
0398
039E
079E
3F18
F818
6018
0380
3FF8
3FF8
03C0
1FF8
7C7C
2008
ENDCHAR
STARTCHAR AC18
ENCODING 44056
SWIDTH 900 0
DWIDTH 15 0
BBX 14 14 1 -2
BITMAP
FF30
FF30
0330
033C
0F3C
3E30
F830
C030
7FF0
7FF0
0030
7FF0
7FF0
0030
ENDCHAR
STARTCHAR AC19
ENCODING 44057
SWIDTH 900 0
DWIDTH 15 0
BBX 15 15 0 -2
BITMAP
0018
7F18
7F18
031E
0F1E
3E18
F818
C018
3FF8
3FF8
3000
3FF8
3000
3FF8
3FF8
ENDCHAR
STARTCHAR AC1A
ENCODING 44058
SWIDTH 900 0
DWIDTH 15 0
BBX 14 15 1 -2
BITMAP
0038
FF38
FF38
033C
073C
3E38
FC38
E038
0000
7FF8
7FF8
1860
1860
7FF8
7FF8
ENDCHAR
STARTCHAR AC1B
ENCODING 44059
SWIDTH 900 0
DWIDTH 15 0
BBX 15 15 0 -3
BITMAP
7F98
7F98
0198
039E
079E
3E18
F818
4018
0180
3FFC
3FFC
1818
3818
1FF8
0FF0
ENDCHAR
STARTCHAR AC1C
ENCODING 44060
SWIDTH 900 0
DWIDTH 15 0
BBX 13 15 1 -2
BITMAP
00D8
FCD8
FCD8
0CD8
0CD8
0CF8
0CF8
1CF8
38D8
70D8
60D8
E0D8
C0D8
00D8
00D8
ENDCHAR
STARTCHAR AC1D
ENCODING 44061
SWIDTH 900 0
DWIDTH 15 0
BBX 14 14 0 -2
BITMAP
7E6C
7E6C
067C
067C
1E7C
7C6C
F06C
4000
3FFC
3FFC
000C
000C
000C
000C
ENDCHAR
STARTCHAR AC1E
ENCODING 44062
SWIDTH 900 0
DWIDTH 15 0
BBX 14 14 0 -2
BITMAP
7E6C
7E6C
067C
067C
1E7C
7C6C
F06C
4000
3F7C
3F7C
030C
030C
030C
030C
ENDCHAR
STARTCHAR AC1F
ENCODING 44063
SWIDTH 900 0
DWIDTH 15 0
BBX 15 15 0 -2
BITMAP
006C
7E6C
7E6C
067C
067C
1E6C
786C
F06C
4000
3F10
3F10
0738
077C
07EE
0744
ENDCHAR
STARTCHAR AC20
ENCODING 44064
SWIDTH 900 0
DWIDTH 15 0
BBX 15 15 0 -2
BITMAP
006C
7F6C
7F6C
076C
077C
0E7C
3E6C
F86C
606C
006C
186C
1800
1800
1FFE
1FFE
ENDCHAR
STARTCHAR AC21
ENCODING 44065
SWIDTH 900 0
DWIDTH 15 0
BBX 15 15 0 -2
BITMAP
000C
7EEC
7EEC
06FC
0EFC
1EEC
78EC
E0EC
4000
30FC
30FC
3030
307C
3FFE
3EC4
ENDCHAR
STARTCHAR AC22
ENCODING 44066
SWIDTH 900 0
DWIDTH 15 0
BBX 15 16 0 -3
BITMAP
00EC
7EEC
06EC
06FC
0EFC
3CEC
F0EC
4000
0030
31FE
31FE
30CC
30CC
3ECC
3EFC
0078
ENDCHAR
STARTCHAR AC23
ENCODING 44067
SWIDTH 900 0
DWIDTH 15 0
BBX 14 15 1 -2
BITMAP
00D8
FCD8
FCD8
0CF8
0CF8
3CD8
F8D8
E0D8
8000
3FF8
3FF8
3000
3000
3FFC
3FFC
ENDCHAR
STARTCHAR AC24
ENCODING 44068
SWIDTH 900 0
DWIDTH 15 0
BBX 15 15 0 -2
BITMAP
006C
7F6C
7F6C
077C
0E7C
3C6C
F86C
606C
1FFC
1FFC
000C
1FFC
1800
1FFE
1FFE
ENDCHAR
STARTCHAR AC25
ENCODING 44069
SWIDTH 900 0
DWIDTH 15 0
BBX 15 15 0 -2
BITMAP
0066
7E66
7E66
067E
0E7E
3C66
F066
6066
1F7E
1F7E
0306
1F06
1806
1FC6
1FC6
ENDCHAR
STARTCHAR AC26
ENCODING 44070
SWIDTH 900 0
DWIDTH 15 0
BBX 15 15 0 -2
BITMAP
0066
7E66
7E66
067E
0E7E
3C66
F866
6066
1F7E
1F7E
0376
1F76
1876
1FFE
1FFE
ENDCHAR
STARTCHAR AC27
ENCODING 44071
SWIDTH 900 0
DWIDTH 15 0
BBX 14 14 1 -2
BITMAP
FECC
FECC
0EFC
0EFC
3CCC
F0CC
E0CC
3ECC
3ECC
06FC
3EFC
30CC
3FFC
3FFC
ENDCHAR
STARTCHAR AC28
ENCODING 44072
SWIDTH 900 0
DWIDTH 15 0
BBX 16 15 0 -2
BITMAP
0066
7F66
7F66
077E
0F7E
3E66
F866
6066
1F98
1F98
0198
1FBC
187E
1FE7
1FA2
ENDCHAR
STARTCHAR AC29
ENCODING 44073
SWIDTH 900 0
DWIDTH 15 0
BBX 15 15 0 -2
BITMAP
0066
7E66
7E66
067E
0E7E
3C66
F866
6066
1F7E
1F7E
0370
1F7C
1870
1FFE
1FFE
ENDCHAR
STARTCHAR AC2A
ENCODING 44074
SWIDTH 900 0
DWIDTH 15 0
BBX 15 15 0 -2
BITMAP
0066
7F66
7F66
077E
0F7E
3E66
F866
6066
1F7E
1F7E
033E
1F3E
183E
1FFE
1FFE
ENDCHAR
STARTCHAR AC2B
ENCODING 44075
SWIDTH 900 0
DWIDTH 15 0
BBX 15 15 1 -3
BITMAP
FEEC
FEEC
0EFC
0EFC
3CEC
F0EC
C0EC
3E38
3EFE
06FE
3E6C
3ECC
30EC
3F7C
3F38
ENDCHAR
STARTCHAR AC2C
ENCODING 44076
SWIDTH 900 0
DWIDTH 15 0
BBX 13 15 1 -2
BITMAP
0018
FED8
FED8
0EF8
0CF8
3CD8
F8D8
E0D8
8000
3FF8
3FF8
3018
3018
3FF8
3FF8
ENDCHAR
STARTCHAR AC2D
ENCODING 44077
SWIDTH 900 0
DWIDTH 15 0
BBX 13 15 1 -2
BITMAP
00D8
FED8
FED8
0EF8
1CF8
3CD8
F0D8
C0D8
8000
3018
3FF8
3FF8
3018
3FF8
3FF8
ENDCHAR
STARTCHAR AC2E
ENCODING 44078
SWIDTH 900 0
DWIDTH 15 0
BBX 15 15 0 -2
BITMAP
006C
7E6C
7E6C
067C
0E7C
3C6C
F86C
E06C
0000
3318
3F18
3F38
337C
3FEE
3F44
ENDCHAR
STARTCHAR AC2F
ENCODING 44079
SWIDTH 900 0
DWIDTH 15 0
BBX 15 14 0 -3
BITMAP
7E6C
7E6C
066C
067C
067C
1E6C
786C
E06C
400C
01C0
01C0
07F0
1F3C
3C0E
ENDCHAR
STARTCHAR AC30
ENCODING 44080
SWIDTH 900 0
DWIDTH 15 0
BBX 15 14 1 -3
BITMAP
FECC
FECC
0ECC
0EFC
1EFC
7CCC
F0CC
C0CC
0C70
0C70
0C70
1EF8
7FFE
738E
ENDCHAR
STARTCHAR AC31
ENCODING 44081
SWIDTH 900 0
DWIDTH 15 0
BBX 14 14 0 -2
BITMAP
7ECC
7ECC
06FC
06FC
1EFC
7CCC
F0CC
400C
1FF8
3FFC
300C
300C
3FFC
1FF8
ENDCHAR
STARTCHAR AC32
ENCODING 44082
SWIDTH 900 0
DWIDTH 15 0
BBX 15 15 1 -2
BITMAP
001C
FEDC
FEDC
0EFC
0EFC
3CDC
F8DC
E0DC
8000
3FFC
3FFC
03C0
0FF0
7E7E
381C
ENDCHAR
STARTCHAR AC33
ENCODING 44083
SWIDTH 900 0
DWIDTH 15 0
BBX 14 16 1 -3
BITMAP
00DC
FEDC
FEDC
0EFC
1EFC
3CDC
F0DC
E0DC
8180
0180
3FFC
3FFC
03C0
1FF8
7C3C
2004
ENDCHAR
STARTCHAR AC34
ENCODING 44084
SWIDTH 900 0
DWIDTH 15 0
BBX 14 14 0 -2
BITMAP
7E6C
7E6C
066C
067C
0E7C
3C6C
F06C
606C
3FFC
3FFC
000C
1FFC
1FFC
000C
ENDCHAR
STARTCHAR AC35
ENCODING 44085
SWIDTH 900 0
DWIDTH 15 0
BBX 15 15 0 -2
BITMAP
006C
7E6C
7E6C
067C
0E7C
3C6C
F86C
606C
1FFC
1FFC
1800
1FFC
1800
1FFE
1FFE
ENDCHAR
STARTCHAR AC36
ENCODING 44086
SWIDTH 900 0
DWIDTH 15 0
BBX 14 15 1 -2
BITMAP
001C
FCDC
FCDC
0CFC
0CFC
3CDC
F8DC
E0DC
8000
3FFC
3FFC
0C70
0C70
7FFC
7FFC
ENDCHAR
STARTCHAR AC37
ENCODING 44087
SWIDTH 900 0
DWIDTH 15 0
BBX 14 16 1 -3
BITMAP
00DC
FEDC
FEDC
0EFC
1CFC
3CDC
F8DC
E0DC
C000
0380
7FFC
7FFC
3818
3818
3FF8
0FF0
ENDCHAR
STARTCHAR AC38
ENCODING 44088
SWIDTH 900 0
DWIDTH 15 0
BBX 14 15 1 -2
BITMAP
0030
FF30
FF30
033C
033C
0330
0730
0E30
1C3C
383C
7030
E030
4030
0030
0030
ENDCHAR
STARTCHAR AC39
ENCODING 44089
SWIDTH 900 0
DWIDTH 15 0
BBX 14 14 1 -2
BITMAP
FF30
FF3C
033C
0330
1F3C
7C3C
E030
8000
7FF0
7FF0
0030
0030
0030
0030
ENDCHAR
STARTCHAR AC3A
ENCODING 44090
SWIDTH 900 0
DWIDTH 15 0
BBX 14 14 1 -2
BITMAP
FF30
FF3C
073C
0730
1E3C
FC3C
E030
0000
7DF0
7DF0
0C30
0C30
0C30
0C30
ENDCHAR
STARTCHAR AC3B
ENCODING 44091
SWIDTH 900 0
DWIDTH 15 0
BBX 14 14 1 -2
BITMAP
FF30
FF3C
073C
0730
1E3C
F83C
E030
0000
FC60
FC60
0CF0
0DF8
0F9C
0D08
ENDCHAR
STARTCHAR AC3C
ENCODING 44092
SWIDTH 900 0
DWIDTH 15 0
BBX 15 15 0 -2
BITMAP
0018
7F18
7F1E
031E
0318
0F18
3E1E
F81E
E018
0018
3018
3000
3000
3FF8
3FF8
ENDCHAR
STARTCHAR AC3D
ENCODING 44093
SWIDTH 900 0
DWIDTH 15 0
BBX 14 15 1 -2
BITMAP
0038
FF38
FF3C
033C
0738
1E3C
F83C
E038
0000
61F8
61F8
6060
60F8
7FFC
7D88
ENDCHAR
STARTCHAR AC3E
ENCODING 44094
SWIDTH 900 0
DWIDTH 15 0
BBX 14 16 1 -3
BITMAP
0038
FF3C
033C
0338
0F3C
7E3C
F038
8000
0060
63FC
63FC
6198
6198
7D98
7DF8
00F0
ENDCHAR
STARTCHAR AC3F
ENCODING 44095
SWIDTH 900 0
DWIDTH 15 0
BBX 15 14 0 -2
BITMAP
7F18
7F1E
031E
0318
1F1E
7C1E
E018
0000
3FF8
3FF8
3000
3000
3FF8
3FF8
ENDCHAR
STARTCHAR AC40
ENCODING 44096
SWIDTH 900 0
DWIDTH 15 0
BBX 15 15 0 -2
BITMAP
0018
7F1E
7F1E
0318
0F1E
3E1E
F818
C018
3FF8
3FF8
0018
3FF8
3000
3FF8
3FF8
ENDCHAR
STARTCHAR AC41
ENCODING 44097
SWIDTH 900 0
DWIDTH 15 0
BBX 15 15 0 -2
BITMAP
0018
7F9E
7F9E
0398
079E
3F1E
F818
4018
3EF8
3EF8
0618
3E18
3018
3F98
3F98
ENDCHAR
STARTCHAR AC42
ENCODING 44098
SWIDTH 900 0
DWIDTH 15 0
BBX 14 15 1 -2
BITMAP
0030
FF3C
FF3C
0330
0F3C
3E3C
F830
C030
7DF0
7DF0
0DB0
7DB0
61B0
7DF0
7DF0
ENDCHAR
STARTCHAR AC43
ENCODING 44099
SWIDTH 900 0
DWIDTH 15 0
BBX 14 14 1 -2
BITMAP
FF30
FF3C
033C
0730
1E3C
F83C
E030
7DB0
7DB0
0DF0
7DF0
61B0
7DF0
7DF0
ENDCHAR
STARTCHAR AC44
ENCODING 44100
SWIDTH 900 0
DWIDTH 15 0
BBX 15 15 0 -2
BITMAP
0018
7F9E
7F9E
0198
079E
3F1E
F818
4018
3F30
3F30
0330
3F78
30FC
3FCE
3F44
ENDCHAR
STARTCHAR AC45
ENCODING 44101
SWIDTH 900 0
DWIDTH 15 0
BBX 14 15 1 -2
BITMAP
0030
FF3C
FF3C
0330
0F3C
3E3C
F830
C030
7DF0
7DF0
0D80
7DF0
6180
7DF8
7DF8
ENDCHAR
STARTCHAR AC46
ENCODING 44102
SWIDTH 900 0
DWIDTH 15 0
BBX 14 15 1 -2
BITMAP
0038
FF3C
FF3C
0338
0F3C
3E3C
F838
C038
7DF8
7DF8
0DF8
7DF8
61F8
7DF8
7DF8
ENDCHAR
STARTCHAR AC47
ENCODING 44103
SWIDTH 900 0
DWIDTH 15 0
BBX 14 15 1 -3
BITMAP
FF38
FF3C
033C
0738
1E3C
F83C
C038
7C60
7DFC
0DFC
7CD8
7D98
61D8
7FF8
7E70
ENDCHAR
STARTCHAR AC48
ENCODING 44104
SWIDTH 900 0
DWIDTH 15 0
BBX 15 15 0 -2
BITMAP
0018
7F18
7F1E
031E
0718
1F1E
FC1E
E018
0000
3FF8
3FF8
3018
3018
3FF8
3FF8
ENDCHAR
STARTCHAR AC49
ENCODING 44105
SWIDTH 900 0
DWIDTH 15 0
BBX 15 15 0 -2
BITMAP
0018
7F1E
7F1E
0318
0718
3E1E
F81E
E018
0000
3018
3FF8
3FF8
3018
3FF8
3FF8
ENDCHAR
STARTCHAR AC4A
ENCODING 44106
SWIDTH 900 0
DWIDTH 15 0
BBX 15 15 0 -2
BITMAP
0018
7F9E
7F9E
0398
0798
1F1E
FC1E
6018
0000
3330
3F30
3F78
337C
3FEE
3F44
ENDCHAR
STARTCHAR AC4B
ENCODING 44107
SWIDTH 900 0
DWIDTH 15 0
BBX 14 14 1 -2
BITMAP
FF30
FF3C
033C
0330
073C
1E3C
F83C
E030
0330
0300
0780
1FE0
7CF8
7038
ENDCHAR
STARTCHAR AC4C
ENCODING 44108
SWIDTH 900 0
DWIDTH 15 0
BBX 15 15 0 -3
BITMAP
7F98
7F9E
039E
0398
079E
3F1E
F81E
6018
0000
0C30
0C30
1E78
3FFC
33CE
2000
ENDCHAR
STARTCHAR AC4D
ENCODING 44109
SWIDTH 900 0
DWIDTH 15 0
BBX 14 14 1 -2
BITMAP
FF30
FF3C
033C
0730
1F3C
7C3C
F030
8030
3FE0
7FF0
6038
6038
7FF0
3FE0
ENDCHAR
STARTCHAR AC4E
ENCODING 44110
SWIDTH 900 0
DWIDTH 15 0
BBX 14 15 1 -2
BITMAP
0030
FF30
FF3C
073C
0730
3E3C
F83C
E030
0000
7FF0
7FF0
0700
1FC0
FDF8
7038
ENDCHAR
STARTCHAR AC4F
ENCODING 44111
SWIDTH 900 0
DWIDTH 15 0
BBX 15 16 0 -3
BITMAP
0018
7F9E
7F9E
0398
079E
1F1E
FC18
6018
0380
0380
3FF8
3FF8
03C0
1FF8
7C7C
2008
ENDCHAR
STARTCHAR AC50
ENCODING 44112
SWIDTH 900 0
DWIDTH 15 0
BBX 14 14 1 -2
BITMAP
FF30
FF3C
033C
0330
0F30
3E3C
F83C
C030
7FF0
7FF0
0030
7FF0
7FF0
0030
ENDCHAR
STARTCHAR AC51
ENCODING 44113
SWIDTH 900 0
DWIDTH 15 0
BBX 15 15 0 -2
BITMAP
0018
7F1E
7F1E
0318
0F1E
3E1E
F818
C018
3FF8
3FF8
3000
3FF8
3000
3FF8
3FF8
ENDCHAR
STARTCHAR AC52
ENCODING 44114
SWIDTH 900 0
DWIDTH 15 0
BBX 14 15 1 -2
BITMAP
0030
FF30
FF3C
033C
0730
3E3C
F83C
E030
0000
7FF8
7FF8
1860
1860
7FF8
7FF8
ENDCHAR
STARTCHAR AC53
ENCODING 44115
SWIDTH 900 0
DWIDTH 15 0
BBX 15 16 0 -3
BITMAP
0018
7F9E
7F9E
0398
079E
1F1E
FE18
7818
4000
0180
3FFC
3FFC
1818
3818
1FF8
0FF0
ENDCHAR
STARTCHAR AC54
ENCODING 44116
SWIDTH 900 0
DWIDTH 15 0
BBX 13 15 1 -2
BITMAP
00D8
FCD8
FCD8
0CF8
0CF8
0CD8
0CD8
1CD8
38F8
70F8
60D8
E0D8
C0D8
00D8
00D8
ENDCHAR
STARTCHAR AC55
ENCODING 44117
SWIDTH 900 0
DWIDTH 15 0
BBX 14 14 0 -2
BITMAP
7E6C
7E7C
067C
066C
1E7C
7C7C
F06C
4000
3FFC
3FFC
000C
000C
000C
000C
ENDCHAR
STARTCHAR AC56
ENCODING 44118
SWIDTH 900 0
DWIDTH 15 0
BBX 14 14 0 -2
BITMAP
7E6C
7E7C
067C
066C
1E7C
7C7C
F06C
4000
3F7C
3F7C
030C
030C
030C
030C
ENDCHAR
STARTCHAR AC57
ENCODING 44119
SWIDTH 900 0
DWIDTH 15 0
BBX 15 15 0 -2
BITMAP
006C
7E6C
7E7C
067C
066C
1E7C
787C
F06C
4000
3F10
3F10
0738
077C
07EE
0744
ENDCHAR
STARTCHAR AC58
ENCODING 44120
SWIDTH 900 0
DWIDTH 15 0
BBX 15 15 0 -2
BITMAP
006C
7F6C
7F7C
077C
076C
0E6C
3E7C
F87C
606C
006C
186C
1800
1800
1FFE
1FFE
ENDCHAR
STARTCHAR AC59
ENCODING 44121
SWIDTH 900 0
DWIDTH 15 0
BBX 15 15 0 -2
BITMAP
000C
7EEC
7EFC
06FC
0EEC
1EFC
78FC
E0EC
4000
30FC
30FC
3030
307C
3FFE
3EC4
ENDCHAR
STARTCHAR AC5A
ENCODING 44122
SWIDTH 900 0
DWIDTH 15 0
BBX 15 16 0 -3
BITMAP
00EC
7EFC
06FC
06EC
0EFC
3CFC
F0EC
4000
0030
31FE
31FE
30CC
30CC
3ECC
3EFC
0078
ENDCHAR
STARTCHAR AC5B
ENCODING 44123
SWIDTH 900 0
DWIDTH 15 0
BBX 14 15 1 -2
BITMAP
00D8
FCD8
FCF8
0CF8
0CD8
3CF8
F8F8
E0D8
8000
3FF8
3FF8
3000
3000
3FFC
3FFC
ENDCHAR
STARTCHAR AC5C
ENCODING 44124
SWIDTH 900 0
DWIDTH 15 0
BBX 15 15 0 -2
BITMAP
006C
7F6C
7F7C
077C
0E6C
3C7C
F87C
606C
1FFC
1FFC
000C
1FFC
1800
1FFE
1FFE
ENDCHAR
STARTCHAR AC5D
ENCODING 44125
SWIDTH 900 0
DWIDTH 15 0
BBX 15 15 0 -2
BITMAP
0066
7E7E
7E7E
0666
0E7E
3C7E
F07E
6066
1F7E
1F7E
0306
1F06
1806
1FC6
1FC6
ENDCHAR
STARTCHAR AC5E
ENCODING 44126
SWIDTH 900 0
DWIDTH 15 0
BBX 15 15 0 -2
BITMAP
0066
7E66
7E7E
067E
0E66
3C7E
F87E
6066
1F7E
1F7E
0376
1F76
1876
1FFE
1FFE
ENDCHAR
STARTCHAR AC5F
ENCODING 44127
SWIDTH 900 0
DWIDTH 15 0
BBX 14 14 1 -2
BITMAP
FECC
FEFC
0EFC
0ECC
3CFC
F0FC
E0CC
3ECC
3ECC
06FC
3EFC
30CC
3FFC
3FFC
ENDCHAR
STARTCHAR AC60
ENCODING 44128
SWIDTH 900 0
DWIDTH 15 0
BBX 16 15 0 -2
BITMAP
0066
7F66
7F7E
077E
0F66
3E7E
F87E
6066
1F98
1F98
0198
1FBC
187E
1FE7
1FA2
ENDCHAR
STARTCHAR AC61
ENCODING 44129
SWIDTH 900 0
DWIDTH 15 0
BBX 15 15 0 -2
BITMAP
0066
7E66
7E7E
067E
0E66
3C7E
F87E
6066
1F7E
1F7E
0370
1F7C
1870
1FFE
1FFE
ENDCHAR
STARTCHAR AC62
ENCODING 44130
SWIDTH 900 0
DWIDTH 15 0
BBX 15 15 0 -2
BITMAP
0066
7F66
7F7E
077E
0F66
3E7E
F87E
6066
1F7E
1F7E
033E
1F3E
183E
1FFE
1FFE
ENDCHAR
STARTCHAR AC63
ENCODING 44131
SWIDTH 900 0
DWIDTH 15 0
BBX 15 15 1 -3
BITMAP
FEEC
FEFC
0EFC
0EEC
3CFC
F0FC
C0EC
3E38
3EFE
06FE
3E6C
3ECC
30EC
3F7C
3F38
ENDCHAR
STARTCHAR AC64
ENCODING 44132
SWIDTH 900 0
DWIDTH 15 0
BBX 13 15 1 -2
BITMAP
0018
FCD8
FCF8
0CF8
0CD8
3CF8
F8F8
E0D8
8000
3FF8
3FF8
3018
3018
3FF8
3FF8
ENDCHAR
STARTCHAR AC65
ENCODING 44133
SWIDTH 900 0
DWIDTH 15 0
BBX 13 15 1 -2
BITMAP
00D8
FCD8
FCF8
0CF8
1CD8
3CF8
F0F8
C0D8
8000
3018
3FF8
3FF8
3018
3FF8
3FF8
ENDCHAR
STARTCHAR AC66
ENCODING 44134
SWIDTH 900 0
DWIDTH 15 0
BBX 15 15 0 -2
BITMAP
006C
7E6C
7E7C
067C
0E6C
3C7C
F87C
E06C
0000
3318
3F18
3F38
337C
3FEE
3F44
ENDCHAR
STARTCHAR AC67
ENCODING 44135
SWIDTH 900 0
DWIDTH 15 0
BBX 15 15 0 -3
BITMAP
7E6C
7E7C
067C
066C
066C
1E7C
787C
F06C
400C
01C0
01C0
07F0
1F7C
3C1E
1000
ENDCHAR
STARTCHAR AC68
ENCODING 44136
SWIDTH 900 0
DWIDTH 15 0
BBX 16 14 0 -3
BITMAP
7F66
7F7E
077E
0766
0E66
3E7E
F87E
6066
0000
0638
0638
0F3C
3FFF
39C7
ENDCHAR
STARTCHAR AC69
ENCODING 44137
SWIDTH 900 0
DWIDTH 15 0
BBX 14 14 0 -2
BITMAP
7E6C
7E7C
067C
066C
1E7C
7C7C
F06C
4000
1FF8
3FFC
300C
300C
3FFC
1FF8
ENDCHAR
STARTCHAR AC6A
ENCODING 44138
SWIDTH 900 0
DWIDTH 15 0
BBX 15 15 1 -2
BITMAP
001C
FEDC
FEFC
0EFC
0EDC
3CFC
F8FC
E0DC
8000
3FFC
3FFC
03C0
0FF0
7E7E
381C
ENDCHAR
STARTCHAR AC6B
ENCODING 44139
SWIDTH 900 0
DWIDTH 15 0
BBX 14 16 1 -3
BITMAP
00DC
FEFC
FEFC
0EDC
1EFC
3CFC
F0DC
E0DC
8180
0180
3FFC
3FFC
03C0
1FF8
7C3C
2004
ENDCHAR
STARTCHAR AC6C
ENCODING 44140
SWIDTH 900 0
DWIDTH 15 0
BBX 14 14 0 -2
BITMAP
7E6C
7E7C
067C
066C
0E6C
3C7C
F07C
606C
3FFC
3FFC
000C
1FFC
1FFC
000C
ENDCHAR
STARTCHAR AC6D
ENCODING 44141
SWIDTH 900 0
DWIDTH 15 0
BBX 15 15 0 -2
BITMAP
006C
7E6C
7E7C
067C
0E6C
3C7C
F87C
606C
1FFC
1FFC
1800
1FFC
1800
1FFE
1FFE
ENDCHAR
STARTCHAR AC6E
ENCODING 44142
SWIDTH 900 0
DWIDTH 15 0
BBX 14 15 1 -2
BITMAP
001C
FCDC
FCFC
0CFC
0CDC
3CFC
F8FC
E0DC
8000
3FFC
3FFC
0C70
0C70
7FFC
7FFC
ENDCHAR
STARTCHAR AC6F
ENCODING 44143
SWIDTH 900 0
DWIDTH 15 0
BBX 14 16 1 -3
BITMAP
00DC
FEDC
FEFC
0EFC
1CDC
3CFC
F8FC
E0DC
C000
0380
7FFC
7FFC
3818
3818
3FF8
0FF0
ENDCHAR
STARTCHAR AC70
ENCODING 44144
SWIDTH 900 0
DWIDTH 15 0
BBX 13 15 1 -2
BITMAP
0018
FF18
FF18
0318
0318
0318
07F8
0FF8
1C18
3818
7018
E018
4018
0018
0018
ENDCHAR
STARTCHAR AC71
ENCODING 44145
SWIDTH 900 0
DWIDTH 15 0
BBX 13 14 1 -2
BITMAP
FF18
FF18
0318
03F8
1FF8
7C18
E018
8000
7FF8
7FF8
0018
0018
0018
0018
ENDCHAR
STARTCHAR AC72
ENCODING 44146
SWIDTH 900 0
DWIDTH 15 0
BBX 13 14 1 -2
BITMAP
FF98
FF98
0398
03F8
0FF8
7C18
F018
8000
7EF8
7EF8
0618
0618
0618
0618
ENDCHAR
STARTCHAR AC73
ENCODING 44147
SWIDTH 900 0
DWIDTH 15 0
BBX 15 14 1 -2
BITMAP
FF18
FF18
03F8
03F8
1F18
7C18
E018
8000
7E30
7E30
0670
06FC
07CE
0684
ENDCHAR
STARTCHAR AC74
ENCODING 44148
SWIDTH 900 0
DWIDTH 15 0
BBX 14 15 1 -2
BITMAP
0018
7F18
7F18
0318
03F8
0FF8
3E18
F818
E018
0018
3018
3000
3000
3FFC
3FFC
ENDCHAR
STARTCHAR AC75
ENCODING 44149
SWIDTH 900 0
DWIDTH 15 0
BBX 14 15 1 -2
BITMAP
0038
FF38
FF38
03F8
07F8
1E38
F838
E038
0000
61F8
61F8
6060
60F0
7FFC
7D88
ENDCHAR
STARTCHAR AC76
ENCODING 44150
SWIDTH 900 0
DWIDTH 15 0
BBX 14 16 1 -3
BITMAP
0038
FF38
0338
03F8
0FF8
7E38
F038
8000
0060
63FC
63FC
6198
6198
7D98
7DF8
00F0
ENDCHAR
STARTCHAR AC77
ENCODING 44151
SWIDTH 900 0
DWIDTH 15 0
BBX 14 14 1 -2
BITMAP
7F18
7F18
0318
03F8
1FF8
7C18
F018
0000
3FF8
3FF8
3000
3000
3FFC
3FFC
ENDCHAR
STARTCHAR AC78
ENCODING 44152
SWIDTH 900 0
DWIDTH 15 0
BBX 14 15 1 -2
BITMAP
0018
7F18
7F18
03F8
0FF8
3E18
F818
C018
3FF8
3FF8
0018
3FF8
3000
3FFC
3FFC
ENDCHAR
STARTCHAR AC79
ENCODING 44153
SWIDTH 900 0
DWIDTH 15 0
BBX 13 15 1 -2
BITMAP
0018
FF18
FF18
03F8
0FF8
7E18
F018
8018
7FF8
7FF8
0618
7E18
6018
7F18
7F18
ENDCHAR
STARTCHAR AC7A
ENCODING 44154
SWIDTH 900 0
DWIDTH 15 0
BBX 13 15 1 -2
BITMAP
0018
FF18
FF18
07F8
0FF8
7E18
F018
C018
7DF8
7DF8
0D98
7D98
6198
7FF8
7FF8
ENDCHAR
STARTCHAR AC7B
ENCODING 44155
SWIDTH 900 0
DWIDTH 15 0
BBX 13 14 1 -2
BITMAP
FF18
FF18
07F8
07F8
3E18
F818
E018
7D98
7D98
0DF8
7DF8
6198
7FF8
7FF8
ENDCHAR
STARTCHAR AC7C
ENCODING 44156
SWIDTH 900 0
DWIDTH 15 0
BBX 14 15 1 -2
BITMAP
0038
FF38
FF38
03F8
0FF8
3E38
F038
C038
7E60
7E60
0660
7EF0
60F8
7F9C
7E88
ENDCHAR
STARTCHAR AC7D
ENCODING 44157
SWIDTH 900 0
DWIDTH 15 0
BBX 13 15 1 -2
BITMAP
0018
FF18
FF18
07F8
0FF8
7E18
F018
C018
7DF8
7DF8
0D80
7DF0
6180
7FF8
7FF8
ENDCHAR
STARTCHAR AC7E
ENCODING 44158
SWIDTH 900 0
DWIDTH 15 0
BBX 13 15 1 -2
BITMAP
0038
FF38
FF38
07F8
0FF8
7E38
F038
C038
7DF8
7DF8
0DF0
7DF0
61F0
7FF8
7FF8
ENDCHAR
STARTCHAR AC7F
ENCODING 44159
SWIDTH 900 0
DWIDTH 15 0
BBX 14 15 1 -3
BITMAP
FF38
FF38
07F8
07F8
3E38
F838
C038
7C60
7DFC
0DFC
7CD8
7D98
6198
7FF8
7E70
ENDCHAR
STARTCHAR AC80
ENCODING 44160
SWIDTH 900 0
DWIDTH 15 0
BBX 13 15 1 -2
BITMAP
0018
7F18
7F18
0318
07F8
1FF8
FC18
E018
0000
3FF8
3FF8
3018
3018
3FF8
3FF8
ENDCHAR
STARTCHAR AC81
ENCODING 44161
SWIDTH 900 0
DWIDTH 15 0
BBX 13 15 1 -2
BITMAP
0018
7F18
7F18
03F8
07F8
3E18
F818
E018
0000
3018
3FF8
3FF8
3018
3FF8
3FF8
ENDCHAR
STARTCHAR AC82
ENCODING 44162
SWIDTH 900 0
DWIDTH 15 0
BBX 14 15 1 -2
BITMAP
0030
FF30
FF30
07F0
0FF0
3E30
F830
C030
0000
6660
7E60
7EF0
66F8
7FDC
7E88
ENDCHAR
STARTCHAR AC83
ENCODING 44163
SWIDTH 900 0
DWIDTH 15 0
BBX 14 14 1 -2
BITMAP
FF18
FF18
0318
03F8
07F8
1E18
F818
E018
0318
0300
0780
1FE0
7CFC
7038
ENDCHAR
STARTCHAR AC84
ENCODING 44164
SWIDTH 900 0
DWIDTH 15 0
BBX 14 15 1 -3
BITMAP
FF38
FF38
0738
07F8
0FF8
3E38
F838
C038
1860
1860
1860
3CF0
7FFC
679C
4000
ENDCHAR
STARTCHAR AC85
ENCODING 44165
SWIDTH 900 0
DWIDTH 15 0
BBX 13 14 1 -2
BITMAP
FF18
FF18
0318
07F8
1FF8
7C18
F018
8018
3FF0
7FF8
6018
6018
7FF8
3FF0
ENDCHAR
STARTCHAR AC86
ENCODING 44166
SWIDTH 900 0
DWIDTH 15 0
BBX 14 15 1 -2
BITMAP
0018
FF18
FF18
0318
07F8
1FF8
FC18
E018
8000
7FF8
7FF8
0380
1FE0
7CFC
7038
ENDCHAR
STARTCHAR AC87
ENCODING 44167
SWIDTH 900 0
DWIDTH 15 0
BBX 14 16 1 -3
BITMAP
0018
FF18
FF18
03F8
0FF8
3E18
F818
C018
0300
0300
7FF8
7FF8
0780
3FF0
7C7C
4008
ENDCHAR
STARTCHAR AC88
ENCODING 44168
SWIDTH 900 0
DWIDTH 15 0
BBX 13 14 1 -2
BITMAP
FF18
FF18
0318
03F8
0FF8
3E18
F818
C018
7FF8
7FF8
0018
3FF8
3FF8
0018
ENDCHAR
STARTCHAR AC89
ENCODING 44169
SWIDTH 900 0
DWIDTH 15 0
BBX 14 15 1 -2
BITMAP
0018
7F18
7F18
03F8
0FF8
3E18
F818
C018
3FF8
3FF8
3000
3FF8
3000
3FFC
3FFC
ENDCHAR
STARTCHAR AC8A
ENCODING 44170
SWIDTH 900 0
DWIDTH 15 0
BBX 13 15 1 -2
BITMAP
0018
FF18
FF18
0318
07F8
1FF8
FC18
E018
0000
7FF8
7FF8
1860
1860
7FF8
7FF8
ENDCHAR
STARTCHAR AC8B
ENCODING 44171
SWIDTH 900 0
DWIDTH 15 0
BBX 14 15 1 -3
BITMAP
FF18
FF18
0318
03F8
0FF8
7E18
F018
C018
0380
7FFC
7FFC
3038
3038
3FF8
1FE0
ENDCHAR
STARTCHAR AC8C
ENCODING 44172
SWIDTH 900 0
DWIDTH 15 0
BBX 13 15 1 -2
BITMAP
00D8
FCD8
FCD8
0CD8
0CD8
0FD8
0FD8
1FD8
38D8
70D8
60D8
E0D8
C0D8
00D8
00D8
ENDCHAR
STARTCHAR AC8D
ENCODING 44173
SWIDTH 900 0
DWIDTH 15 0
BBX 14 14 0 -2
BITMAP
7E6C
7E6C
066C
07EC
1FEC
7C6C
F06C
4000
3FFC
3FFC
000C
000C
000C
000C
ENDCHAR
STARTCHAR AC8E
ENCODING 44174
SWIDTH 900 0
DWIDTH 15 0
BBX 14 14 0 -2
BITMAP
7E6C
7E6C
066C
07EC
1FEC
7C6C
F06C
4000
3FFC
3FFC
030C
030C
030C
030C
ENDCHAR
STARTCHAR AC8F
ENCODING 44175
SWIDTH 900 0
DWIDTH 15 0
BBX 15 15 0 -2
BITMAP
006C
7E6C
7E6C
07EC
07EC
1E6C
786C
F06C
4000
3F30
3F30
0738
077C
07EE
0744
ENDCHAR
STARTCHAR AC90
ENCODING 44176
SWIDTH 900 0
DWIDTH 15 0
BBX 15 15 0 -2
BITMAP
006C
7E6C
7E6C
066C
07EC
0FEC
3E6C
F86C
606C
006C
186C
1800
1800
1FFE
1FFE
ENDCHAR
STARTCHAR AC91
ENCODING 44177
SWIDTH 900 0
DWIDTH 15 0
BBX 15 15 0 -2
BITMAP
000C
7E6C
7E6C
07EC
0FEC
1E6C
786C
E06C
4000
30FC
30FC
3030
3078
3FFE
3EC4
ENDCHAR
STARTCHAR AC92
ENCODING 44178
SWIDTH 900 0
DWIDTH 15 0
BBX 15 16 0 -3
BITMAP
006C
7E6C
066C
07EC
0FEC
3C6C
F06C
4000
0030
31FE
31FE
30CC
30CC
3ECC
3EFC
0078
ENDCHAR
STARTCHAR AC93
ENCODING 44179
SWIDTH 900 0
DWIDTH 15 0
BBX 14 15 1 -2
BITMAP
00D8
FCD8
FCD8
0FD8
0FD8
3CD8
F8D8
E0D8
8000
3FF8
3FF8
3000
3000
3FFC
3FFC
ENDCHAR
STARTCHAR AC94
ENCODING 44180
SWIDTH 900 0
DWIDTH 15 0
BBX 15 15 0 -2
BITMAP
006C
7E6C
7E6C
07EC
0FEC
3C6C
F86C
606C
1FFC
1FFC
000C
1FFC
1800
1FFE
1FFE
ENDCHAR
STARTCHAR AC95
ENCODING 44181
SWIDTH 900 0
DWIDTH 15 0
BBX 15 15 0 -2
BITMAP
0036
7E36
7E36
07F6
0FF6
3C36
F036
6036
1F7E
1F7E
0306
1F06
1806
1FC6
1FC6
ENDCHAR
STARTCHAR AC96
ENCODING 44182
SWIDTH 900 0
DWIDTH 15 0
BBX 15 15 0 -2
BITMAP
0076
7E76
7E76
07F6
0FF6
3C76
F876
6076
1F7E
1F7E
0376
1F76
1876
1FFE
1FFE
ENDCHAR
STARTCHAR AC97
ENCODING 44183
SWIDTH 900 0
DWIDTH 15 0
BBX 14 14 1 -2
BITMAP
FEEC
FEEC
0FEC
0FEC
3CEC
F0EC
E0EC
3ECC
3ECC
06FC
3EFC
30CC
3FFC
3FFC
ENDCHAR
STARTCHAR AC98
ENCODING 44184
SWIDTH 900 0
DWIDTH 15 0
BBX 16 15 0 -2
BITMAP
0076
7F76
7F76
07F6
0FF6
3E76
F876
6076
1F98
1F98
0198
1FBC
187E
1FE7
1FA2
ENDCHAR
STARTCHAR AC99
ENCODING 44185
SWIDTH 900 0
DWIDTH 15 0
BBX 15 15 0 -2
BITMAP
0076
7E76
7E76
07F6
0FF6
3C76
F876
6076
1F7E
1F7E
0370
1F7C
1870
1FFE
1FFE
ENDCHAR
STARTCHAR AC9A
ENCODING 44186
SWIDTH 900 0
DWIDTH 15 0
BBX 15 15 0 -2
BITMAP
0076
7F76
7F76
07F6
0FF6
3E76
F876
6076
1F7E
1F7E
0376
1F76
1876
1FFE
1FFE
ENDCHAR
STARTCHAR AC9B
ENCODING 44187
SWIDTH 900 0
DWIDTH 15 0
BBX 15 15 1 -3
BITMAP
FE6C
FE6C
0FEC
0FEC
3C6C
F06C
C06C
3E30
3EFE
06FE
3E6C
3ECC
30EC
3F7C
3F38
ENDCHAR
STARTCHAR AC9C
ENCODING 44188
SWIDTH 900 0
DWIDTH 15 0
BBX 13 15 1 -2
BITMAP
0018
FCD8
FCD8
0FD8
0FD8
3FD8
F8D8
E0D8
8000
3FF8
3FF8
3018
3018
3FF8
3FF8
ENDCHAR
STARTCHAR AC9D
ENCODING 44189
SWIDTH 900 0
DWIDTH 15 0
BBX 14 14 0 -2
BITMAP
7E6C
7E6C
066C
07EC
0FEC
3C6C
F06C
406C
180C
1FFC
1FFC
180C
1FFC
1FFC
ENDCHAR
STARTCHAR AC9E
ENCODING 44190
SWIDTH 900 0
DWIDTH 15 0
BBX 15 15 0 -2
BITMAP
006C
7E6C
7E6C
07EC
0FEC
3C6C
F86C
E06C
0000
3338
3F38
3F38
337C
3FEE
3F44
ENDCHAR
STARTCHAR AC9F
ENCODING 44191
SWIDTH 900 0
DWIDTH 15 0
BBX 15 14 0 -3
BITMAP
7E6C
7E6C
066C
07EC
07EC
1E6C
786C
F06C
400C
01C0
01C0
07F0
1F7C
3C1E
ENDCHAR
STARTCHAR ACA0
ENCODING 44192
SWIDTH 900 0
DWIDTH 15 0
BBX 15 14 1 -3
BITMAP
FECC
FECC
0ECC
0FCC
1FCC
3CCC
F0CC
C0CC
0C70
0C70
0C70
1EF8
7FFE
738E
ENDCHAR
STARTCHAR ACA1
ENCODING 44193
SWIDTH 900 0
DWIDTH 15 0
BBX 14 14 0 -2
BITMAP
7E6C
7E6C
066C
07EC
1FEC
7C6C
F06C
400C
1FF8
3FFC
300C
300C
3FFC
1FF8
ENDCHAR
STARTCHAR ACA2
ENCODING 44194
SWIDTH 900 0
DWIDTH 15 0
BBX 15 15 1 -2
BITMAP
001C
FEDC
FEDC
0FDC
0FDC
3CDC
F8DC
E0DC
8000
3FFC
3FFC
03C0
0FF0
7E7E
381C
ENDCHAR
STARTCHAR ACA3
ENCODING 44195
SWIDTH 900 0
DWIDTH 15 0
BBX 14 16 1 -3
BITMAP
00DC
FEDC
FEDC
0FDC
1FDC
3CDC
F0DC
C0DC
8180
0180
3FFC
3FFC
03C0
1FF8
7C3C
2004
ENDCHAR
STARTCHAR ACA4
ENCODING 44196
SWIDTH 900 0
DWIDTH 15 0
BBX 14 14 0 -2
BITMAP
7E6C
7E6C
066C
07EC
0FEC
3C6C
F06C
406C
3FFC
3FFC
000C
1FFC
1FFC
000C
ENDCHAR
STARTCHAR ACA5
ENCODING 44197
SWIDTH 900 0
DWIDTH 15 0
BBX 15 15 0 -2
BITMAP
006C
7E6C
7E6C
07EC
0FEC
3C6C
F86C
606C
1FFC
1FFC
1800
1FFC
1800
1FFE
1FFE
ENDCHAR
STARTCHAR ACA6
ENCODING 44198
SWIDTH 900 0
DWIDTH 15 0
BBX 14 15 1 -2
BITMAP
001C
FCDC
FCDC
0FDC
0FDC
3CDC
F8DC
E0DC
8000
3FFC
3FFC
0C70
0C70
7FFC
7FFC
ENDCHAR
STARTCHAR ACA7
ENCODING 44199
SWIDTH 900 0
DWIDTH 15 0
BBX 14 16 1 -3
BITMAP
00DC
FEDC
FEDC
0FDC
1FDC
3CDC
F8DC
E0DC
8000
0380
7FFC
7FFC
3818
3818
3FF8
0FF0
ENDCHAR
STARTCHAR ACA8
ENCODING 44200
SWIDTH 900 0
DWIDTH 15 0
BBX 13 15 1 -2
BITMAP
0018
FF18
FF18
0378
0378
0318
0718
0E18
1CF8
38F8
7018
E018
4018
0018
0018
ENDCHAR
STARTCHAR ACA9
ENCODING 44201
SWIDTH 900 0
DWIDTH 15 0
BBX 13 14 1 -2
BITMAP
FF18
FF78
0378
0718
1FF8
FCF8
E018
8000
7FF8
7FF8
0018
0018
0018
0018
ENDCHAR
STARTCHAR ACAA
ENCODING 44202
SWIDTH 900 0
DWIDTH 15 0
BBX 13 14 1 -2
BITMAP
FF18
FF78
0378
0318
1F78
FC78
E018
8018
7EF8
7EF8
0618
0618
0618
0618
ENDCHAR
STARTCHAR ACAB
ENCODING 44203
SWIDTH 900 0
DWIDTH 15 0
BBX 15 14 1 -2
BITMAP
FF18
FF78
0378
0318
1FF8
7CF8
E018
8000
7E30
7E30
0670
06FC
07CE
0684
ENDCHAR
STARTCHAR ACAC
ENCODING 44204
SWIDTH 900 0
DWIDTH 15 0
BBX 14 15 1 -2
BITMAP
0018
7F18
7F78
0378
0318
0F18
3E78
F878
E018
0018
3018
3000
3000
3FFC
3FFC
ENDCHAR
STARTCHAR ACAD
ENCODING 44205
SWIDTH 900 0
DWIDTH 15 0
BBX 14 15 1 -2
BITMAP
0038
FF38
FFF8
03F8
0738
1EF8
F8F8
E038
0000
61F8
61F8
6060
60F0
7FFC
7D88
ENDCHAR
STARTCHAR ACAE
ENCODING 44206
SWIDTH 900 0
DWIDTH 15 0
BBX 14 16 1 -3
BITMAP
0038
FFF8
03F8
0338
0FF8
7EF8
F038
8000
0060
63FC
63FC
6198
6198
7D98
7DF8
00F0
ENDCHAR
STARTCHAR ACAF
ENCODING 44207
SWIDTH 900 0
DWIDTH 15 0
BBX 14 14 1 -2
BITMAP
7F18
7F78
0378
0318
1F78
7C78
E018
0000
3FF8
3FF8
3000
3000
3FFC
3FFC
ENDCHAR
STARTCHAR ACB0
ENCODING 44208
SWIDTH 900 0
DWIDTH 15 0
BBX 14 15 1 -2
BITMAP
0018
7F18
7F78
0378
0F18
3E78
F878
C018
3FF8
3FF8
0018
3FF8
3000
3FFC
3FFC
ENDCHAR
STARTCHAR ACB1
ENCODING 44209
SWIDTH 900 0
DWIDTH 15 0
BBX 13 15 1 -2
BITMAP
0018
FF78
FF78
0318
0FF8
7EF8
F018
8018
7EF8
7EF8
0618
7E18
6018
7F18
7F18
ENDCHAR
STARTCHAR ACB2
ENCODING 44210
SWIDTH 900 0
DWIDTH 15 0
BBX 13 15 1 -2
BITMAP
0018
FF18
FF78
0778
0F18
7EF8
F8F8
C018
7DF8
7DF8
0D98
7D98
6198
7FF8
7FF8
ENDCHAR
STARTCHAR ACB3
ENCODING 44211
SWIDTH 900 0
DWIDTH 15 0
BBX 13 14 1 -2
BITMAP
FF18
FF78
0778
0718
3FF8
FCF8
E018
7D98
7D98
0DF8
7DF8
6198
7FF8
7FF8
ENDCHAR
STARTCHAR ACB4
ENCODING 44212
SWIDTH 900 0
DWIDTH 15 0
BBX 14 15 1 -2
BITMAP
0038
FF38
FF78
0378
0F38
3EF8
F8F8
C038
7E60
7E60
0660
7EF0
60F8
7FDC
7E88
ENDCHAR
STARTCHAR ACB5
ENCODING 44213
SWIDTH 900 0
DWIDTH 15 0
BBX 13 15 1 -2
BITMAP
0018
FF18
FF78
0778
0F18
7EF8
F8F8
C018
7DF8
7DF8
0D80
7DF0
6180
7FF8
7FF8
ENDCHAR
STARTCHAR ACB6
ENCODING 44214
SWIDTH 900 0
DWIDTH 15 0
BBX 13 15 1 -2
BITMAP
0038
FF38
FFF8
07F8
0F38
7EF8
F8F8
C038
7DF8
7DF8
0DF0
7DF0
61F0
7FF8
7FF8
ENDCHAR
STARTCHAR ACB7
ENCODING 44215
SWIDTH 900 0
DWIDTH 15 0
BBX 14 15 1 -3
BITMAP
FF38
FFF8
07F8
0738
3EF8
F8F8
C038
7C60
7DFC
0DFC
7CD8
7D98
6198
7FF8
7E70
ENDCHAR
STARTCHAR ACB8
ENCODING 44216
SWIDTH 900 0
DWIDTH 15 0
BBX 13 14 1 -2
BITMAP
7F18
7F78
0378
0718
1F78
7C78
E018
0000
3FF8
3FF8
3018
3018
3FF8
3FF8
ENDCHAR
STARTCHAR ACB9
ENCODING 44217
SWIDTH 900 0
DWIDTH 15 0
BBX 13 15 1 -2
BITMAP
0018
7F18
7F78
0378
0718
3E78
F878
E018
0000
3018
3FF8
3FF8
3018
3FF8
3FF8
ENDCHAR
STARTCHAR ACBA
ENCODING 44218
SWIDTH 900 0
DWIDTH 15 0
BBX 14 15 1 -2
BITMAP
0030
FF70
FF70
0770
0F30
3EF0
F8F0
E030
0000
6660
7E60
7EF0
66F8
7FDC
7E88
ENDCHAR
STARTCHAR ACBB
ENCODING 44219
SWIDTH 900 0
DWIDTH 15 0
BBX 14 14 1 -2
BITMAP
FF18
FF78
0378
0318
0718
1EF8
F8F8
E018
0398
0380
0780
1FE0
7CFC
7038
ENDCHAR
STARTCHAR ACBC
ENCODING 44220
SWIDTH 900 0
DWIDTH 15 0
BBX 14 15 1 -3
BITMAP
FF38
FF78
0778
0738
0F38
3EF8
F8F8
C038
1860
1860
1860
3CF0
7FFC
639C
4000
ENDCHAR
STARTCHAR ACBD
ENCODING 44221
SWIDTH 900 0
DWIDTH 15 0
BBX 13 14 1 -2
BITMAP
FF18
FF78
0378
0718
1FF8
7CF8
F018
8018
3FF0
7FF8
6018
6018
7FF8
3FF0
ENDCHAR
STARTCHAR ACBE
ENCODING 44222
SWIDTH 900 0
DWIDTH 15 0
BBX 14 15 1 -2
BITMAP
0018
FF18
FF78
0378
0718
1FF8
FCF8
E018
0000
7FF8
7FF8
0380
1FE0
7EFC
7038
ENDCHAR
STARTCHAR ACBF
ENCODING 44223
SWIDTH 900 0
DWIDTH 15 0
BBX 14 16 1 -3
BITMAP
0018
FF78
FF78
0318
0F18
3EF8
F8F8
C018
0300
0300
7FF8
7FF8
0780
3FF0
7C7C
4008
ENDCHAR
STARTCHAR ACC0
ENCODING 44224
SWIDTH 900 0
DWIDTH 15 0
BBX 13 14 1 -2
BITMAP
FF18
FF78
0378
0318
0F18
3EF8
F8F8
C018
7FF8
7FF8
0018
3FF8
3FF8
0018
ENDCHAR
STARTCHAR ACC1
ENCODING 44225
SWIDTH 900 0
DWIDTH 15 0
BBX 14 15 1 -2
BITMAP
0018
7F18
7F78
0378
0F18
3E78
F878
C018
3FF8
3FF8
3000
3FF8
3000
3FFC
3FFC
ENDCHAR
STARTCHAR ACC2
ENCODING 44226
SWIDTH 900 0
DWIDTH 15 0
BBX 13 15 1 -2
BITMAP
0018
FF18
FF78
0378
0718
1FF8
FCF8
E018
0000
7FF8
7FF8
1C60
1C60
7FF8
7FF8
ENDCHAR
STARTCHAR ACC3
ENCODING 44227
SWIDTH 900 0
DWIDTH 15 0
BBX 14 16 1 -3
BITMAP
0018
FF18
FF78
0378
0718
3FF8
FCF8
F018
8000
0380
7FFC
7FFC
3038
3038
3FF8
1FE0
ENDCHAR
STARTCHAR ACC4
ENCODING 44228
SWIDTH 900 0
DWIDTH 15 0
BBX 13 15 1 -2
BITMAP
00D8
FCD8
FCD8
0FD8
0FD8
0CD8
0CD8
1CD8
3FD8
77D8
60D8
E0D8
C0D8
00D8
00D8
ENDCHAR
STARTCHAR ACC5
ENCODING 44229
SWIDTH 900 0
DWIDTH 15 0
BBX 14 14 0 -2
BITMAP
7E6C
7FEC
07EC
066C
1FEC
3DEC
F06C
4000
3FFC
3FFC
000C
000C
000C
000C
ENDCHAR
STARTCHAR ACC6
ENCODING 44230
SWIDTH 900 0
DWIDTH 15 0
BBX 14 14 0 -2
BITMAP
7E6C
7FEC
07EC
066C
0FEC
3DEC
F06C
4000
3FFC
3FFC
030C
030C
030C
030C
ENDCHAR
STARTCHAR ACC7
ENCODING 44231
SWIDTH 900 0
DWIDTH 15 0
BBX 14 15 1 -2
BITMAP
00D8
FCD8
FFD8
0FD8
0CD8
3FD8
FBD8
E0D8
8000
7E60
7E60
0670
06F8
07DC
0688
ENDCHAR
STARTCHAR ACC8
ENCODING 44232
SWIDTH 900 0
DWIDTH 15 0
BBX 15 15 0 -2
BITMAP
006C
7E6C
7FEC
07EC
066C
0E6C
3FEC
FBEC
606C
006C
186C
1800
1800
1FFE
1FFE
ENDCHAR
STARTCHAR ACC9
ENCODING 44233
SWIDTH 900 0
DWIDTH 15 0
BBX 15 15 0 -2
BITMAP
000C
7E6C
7FEC
07EC
0E6C
1FEC
79EC
E06C
4000
30FC
30FC
3030
3078
3FFE
3EC4
ENDCHAR
STARTCHAR ACCA
ENCODING 44234
SWIDTH 900 0
DWIDTH 15 0
BBX 15 16 0 -3
BITMAP
006C
7E6C
07EC
066C
1E6C
3DEC
F06C
4000
0030
31FE
31FE
30CC
30CC
3ECC
3EFC
0078
ENDCHAR
STARTCHAR ACCB
ENCODING 44235
SWIDTH 900 0
DWIDTH 15 0
BBX 13 15 1 -2
BITMAP
00D8
FCD8
FFD8
0FD8
0CD8
3FD8
FBD8
E0D8
8000
3FF8
3FF8
3000
3000
3FF8
3FF8
ENDCHAR
STARTCHAR ACCC
ENCODING 44236
SWIDTH 900 0
DWIDTH 15 0
BBX 14 15 0 -2
BITMAP
006C
7E6C
7FEC
07EC
0E6C
3FEC
FBEC
606C
1FFC
1FFC
000C
1FFC
1800
1FFC
1FFC
ENDCHAR
STARTCHAR ACCD
ENCODING 44237
SWIDTH 900 0
DWIDTH 15 0
BBX 14 15 0 -2
BITMAP
006C
7E6C
7FEC
07EC
0E6C
3DEC
F1EC
406C
3F7C
3F7C
030C
1F0C
180C
1FCC
1FCC
ENDCHAR
STARTCHAR ACCE
ENCODING 44238
SWIDTH 900 0
DWIDTH 15 0
BBX 14 15 0 -2
BITMAP
006C
7E6C
7FEC
07EC
0E6C
3DEC
F9EC
606C
3F7C
3F7C
036C
1F6C
186C
1F7C
1F7C
ENDCHAR
STARTCHAR ACCF
ENCODING 44239
SWIDTH 900 0
DWIDTH 15 0
BBX 13 14 1 -2
BITMAP
FCD8
FFD8
0FD8
0CD8
3FD8
F3D8
C0D8
7ED8
7ED8
06F8
3EF8
30D8
3EF8
3EF8
ENDCHAR
STARTCHAR ACD0
ENCODING 44240
SWIDTH 900 0
DWIDTH 15 0
BBX 15 15 0 -2
BITMAP
006C
7E6C
7FEC
07EC
0E6C
3DEC
F9EC
606C
3F18
3F18
0338
1F38
187C
1FEE
1FC4
ENDCHAR
STARTCHAR ACD1
ENCODING 44241
SWIDTH 900 0
DWIDTH 15 0
BBX 15 15 0 -2
BITMAP
006C
7E6C
7FEC
07EC
0E6C
3DEC
F9EC
606C
3F7C
3F7C
0360
1F7C
1860
1F7E
1F7E
ENDCHAR
STARTCHAR ACD2
ENCODING 44242
SWIDTH 900 0
DWIDTH 15 0
BBX 15 15 0 -2
BITMAP
006C
7E6C
7FEC
07EC
0E6C
3DEC
F9EC
606C
3F7E
3F7E
036C
1F6C
186C
1F7E
1F7E
ENDCHAR
STARTCHAR ACD3
ENCODING 44243
SWIDTH 900 0
DWIDTH 15 0
BBX 14 15 1 -3
BITMAP
FCD8
FFD8
0FD8
0CD8
3FD8
F3D8
C0D8
7E70
7FFC
07FC
3ED8
3FD8
31D8
3EF8
3E70
ENDCHAR
STARTCHAR ACD4
ENCODING 44244
SWIDTH 900 0
DWIDTH 15 0
BBX 13 15 1 -2
BITMAP
0018
FCD8
FFD8
0FD8
0CD8
3FD8
FBD8
E0D8
8000
3FF8
3FF8
3018
3018
3FF8
3FF8
ENDCHAR
STARTCHAR ACD5
ENCODING 44245
SWIDTH 900 0
DWIDTH 15 0
BBX 14 14 0 -2
BITMAP
7E6C
7FEC
07EC
066C
0FEC
3DEC
F06C
406C
180C
1FFC
1FFC
180C
1FFC
1FFC
ENDCHAR
STARTCHAR ACD6
ENCODING 44246
SWIDTH 900 0
DWIDTH 15 0
BBX 14 15 1 -2
BITMAP
00D8
FCD8
FFD8
0CD8
1CD8
3FD8
F3D8
C0D8
0000
7630
7E30
7E70
76F8
7FDC
7E88
ENDCHAR
STARTCHAR ACD7
ENCODING 44247
SWIDTH 900 0
DWIDTH 15 0
BBX 14 14 1 -3
BITMAP
FCD8
FCD8
0FD8
0FD8
0CD8
3FD8
FBD8
E0D8
8018
0380
0380
0FE0
3EF8
383C
ENDCHAR
STARTCHAR ACD8
ENCODING 44248
SWIDTH 900 0
DWIDTH 15 0
BBX 15 15 0 -3
BITMAP
7E6C
7FEC
07EC
066C
0E6C
3DEC
F9EC
606C
0000
0630
0E30
1F78
3FFE
31C6
0080
ENDCHAR
STARTCHAR ACD9
ENCODING 44249
SWIDTH 900 0
DWIDTH 15 0
BBX 14 14 0 -2
BITMAP
7E6C
7FEC
07EC
066C
0FEC
3DEC
F06C
4000
0FF8
1FFC
380C
380C
1FFC
0FF8
ENDCHAR
STARTCHAR ACDA
ENCODING 44250
SWIDTH 900 0
DWIDTH 15 0
BBX 14 15 1 -2
BITMAP
0018
FCD8
FFD8
0FD8
0CD8
3FD8
FBD8
E0D8
8000
3FF8
3FF8
0380
0FE0
7EFC
301C
ENDCHAR
STARTCHAR ACDB
ENCODING 44251
SWIDTH 900 0
DWIDTH 15 0
BBX 14 16 1 -3
BITMAP
00D8
FFD8
FFD8
0CD8
1CD8
7FD8
F3D8
C0D8
8180
0180
3FF8
3FF8
03C0
3FF8
7C7C
2008
ENDCHAR
STARTCHAR ACDC
ENCODING 44252
SWIDTH 900 0
DWIDTH 15 0
BBX 14 14 0 -2
BITMAP
7E6C
7FEC
07EC
066C
0FEC
3DEC
F1EC
406C
3FFC
3FFC
000C
1FFC
1FFC
000C
ENDCHAR
STARTCHAR ACDD
ENCODING 44253
SWIDTH 900 0
DWIDTH 15 0
BBX 14 15 0 -2
BITMAP
006C
7E6C
7FEC
07EC
0E6C
3DEC
F9EC
606C
1FFC
1FFC
1800
1FFC
1800
1FFC
1FFC
ENDCHAR
STARTCHAR ACDE
ENCODING 44254
SWIDTH 900 0
DWIDTH 15 0
BBX 14 15 1 -2
BITMAP
0018
FCD8
FFD8
0FD8
0CD8
3FD8
FBD8
E0D8
8000
3FF8
3FF8
0C60
0C60
7FFC
7FFC
ENDCHAR
STARTCHAR ACDF
ENCODING 44255
SWIDTH 900 0
DWIDTH 15 0
BBX 14 16 1 -3
BITMAP
00D8
FCD8
FFD8
0FD8
1CD8
3FD8
FBD8
E0D8
8000
0380
7FFC
7FFC
3018
3018
3FF8
1FE0
ENDCHAR
STARTCHAR ACE0
ENCODING 44256
SWIDTH 900 0
DWIDTH 15 0
BBX 14 13 1 -1
BITMAP
7FF8
7FF8
0038
0038
0038
0038
0E38
0E38
0E38
0E00
0E00
FFFC
FFFC
ENDCHAR
STARTCHAR ACE1
ENCODING 44257
SWIDTH 900 0
DWIDTH 15 0
BBX 14 14 1 -2
BITMAP
7FF8
7FF8
0038
0638
0638
0638
FFFC
FFFC
0000
FFF8
FFF8
0038
0038
0038
ENDCHAR
STARTCHAR ACE2
ENCODING 44258
SWIDTH 900 0
DWIDTH 15 0
BBX 14 14 1 -2
BITMAP
7FF8
7FF8
0038
0638
0638
0638
FFFC
FFFC
0000
FDF8
FDF8
0C38
0C38
0C38
ENDCHAR
STARTCHAR ACE3
ENCODING 44259
SWIDTH 900 0
DWIDTH 15 0
BBX 14 15 1 -3
BITMAP
7FF8
7FF8
0038
0638
0638
0600
FFFC
FFFC
0000
FC60
FC60
0CF0
0DF8
0F9C
0D08
ENDCHAR
STARTCHAR ACE4
ENCODING 44260
SWIDTH 900 0
DWIDTH 15 0
BBX 14 14 1 -2
BITMAP
7FF8
7FF8
0038
0638
0638
0638
FFFC
FFFC
0000
6000
6000
6000
7FF8
7FF8
ENDCHAR
STARTCHAR ACE5
ENCODING 44261
SWIDTH 900 0
DWIDTH 15 0
BBX 14 14 1 -2
BITMAP
7FF8
7FF8
0038
0638
0638
0600
FFFC
FFFC
61F8
61F8
6060
60F0
7FFC
7D98
ENDCHAR
STARTCHAR ACE6
ENCODING 44262
SWIDTH 900 0
DWIDTH 15 0
BBX 14 15 1 -3
BITMAP
7FF8
7FF8
0038
0638
0638
FFFC
FFFC
0000
6060
63FC
63FC
6198
7F98
7DF8
00E0
ENDCHAR
STARTCHAR ACE7
ENCODING 44263
SWIDTH 900 0
DWIDTH 15 0
BBX 14 14 1 -2
BITMAP
7FF8
7FF8
0038
0638
0638
0600
FFFC
FFFC
0000
7FF8
7FF8
6000
7FF8
7FF8
ENDCHAR
STARTCHAR ACE8
ENCODING 44264
SWIDTH 900 0
DWIDTH 15 0
BBX 14 15 1 -2
BITMAP
7FF8
7FF8
0038
0638
0638
FFFC
FFFC
0000
7FF8
7FF8
0038
7FF8
6000
7FF8
7FF8
ENDCHAR
STARTCHAR ACE9
ENCODING 44265
SWIDTH 900 0
DWIDTH 15 0
BBX 14 15 1 -2
BITMAP
7FF8
7FF8
0038
0638
0600
FFFC
FFFC
0000
7DF8
7DF8
0C38
7C38
6038
7F38
7F38
ENDCHAR
STARTCHAR ACEA
ENCODING 44266
SWIDTH 900 0
DWIDTH 15 0
BBX 14 15 1 -2
BITMAP
7FF8
7FF8
0038
0638
0638
FFFC
FFFC
0000
7DF8
7DF8
0D98
7D98
6198
7FF8
7FF8
ENDCHAR
STARTCHAR ACEB
ENCODING 44267
SWIDTH 900 0
DWIDTH 15 0
BBX 14 15 1 -2
BITMAP
7FF8
7FF8
0038
0638
0600
FFFC
FFFC
0000
7D98
7D98
0DF8
7DF8
7D98
7DF8
7DF8
ENDCHAR
STARTCHAR ACEC
ENCODING 44268
SWIDTH 900 0
DWIDTH 15 0
BBX 14 15 1 -2
BITMAP
7FF8
7FF8
0038
0638
0638
FFFC
FFFC
0000
7E60
7E60
0E60
7EF0
61F8
7FDC
7F88
ENDCHAR
STARTCHAR ACED
ENCODING 44269
SWIDTH 900 0
DWIDTH 15 0
BBX 14 15 1 -2
BITMAP
7FF8
7FF8
0038
0638
0600
FFFC
FFFC
0000
7DF8
7DF8
0D80
7DF8
6180
7FF8
7FF8
ENDCHAR
STARTCHAR ACEE
ENCODING 44270
SWIDTH 900 0
DWIDTH 15 0
BBX 14 15 1 -2
BITMAP
7FF8
7FF8
0038
0638
0600
FFFC
FFFC
0000
7DF8
7DF8
0CF8
7CF8
60F8
7FF8
7FF8
ENDCHAR
STARTCHAR ACEF
ENCODING 44271
SWIDTH 900 0
DWIDTH 15 0
BBX 14 16 1 -3
BITMAP
7FF8
7FF8
0038
0638
0638
FFFC
FFFC
0000
7C60
7DFC
0DFC
7D98
7D98
6198
7FF8
7E70
ENDCHAR
STARTCHAR ACF0
ENCODING 44272
SWIDTH 900 0
DWIDTH 15 0
BBX 14 14 1 -2
BITMAP
7FF8
7FF8
0038
0638
0638
0600
FFFC
FFFC
0000
7FF8
7FF8
6038
7FF8
7FF8
ENDCHAR
STARTCHAR ACF1
ENCODING 44273
SWIDTH 900 0
DWIDTH 15 0
BBX 14 14 1 -2
BITMAP
7FF8
7FF8
0038
0638
0638
FFFC
FFFC
0000
6038
7FF8
7FF8
6038
7FF8
7FF8
ENDCHAR
STARTCHAR ACF2
ENCODING 44274
SWIDTH 900 0
DWIDTH 15 0
BBX 14 14 1 -2
BITMAP
7FF8
7FF8
0038
0638
0638
FFFC
FFFC
0000
6660
7E60
7E70
66F8
7FDC
7F88
ENDCHAR
STARTCHAR ACF3
ENCODING 44275
SWIDTH 900 0
DWIDTH 15 0
BBX 14 14 1 -2
BITMAP
7FF8
7FF8
0038
0638
0638
0638
FFFC
FFFC
0000
0700
0700
1FC0
FCF8
6038
ENDCHAR
STARTCHAR ACF4
ENCODING 44276
SWIDTH 900 0
DWIDTH 15 0
BBX 15 15 0 -3
BITMAP
3FFC
3FFC
001C
031C
031C
0300
FFFE
FFFE
0000
0C30
1C70
3E78
7FFC
738E
4104
ENDCHAR
STARTCHAR ACF5
ENCODING 44277
SWIDTH 900 0
DWIDTH 15 0
BBX 14 14 1 -2
BITMAP
7FF8
7FF8
0038
0638
0638
0600
FFFC
0000
3FF0
7FF8
E018
E018
7FF8
3FF0
ENDCHAR
STARTCHAR ACF6
ENCODING 44278
SWIDTH 900 0
DWIDTH 15 0
BBX 14 15 1 -3
BITMAP
7FF8
7FF8
0038
0638
0638
0600
FFFC
FFFC
0000
7FF8
7FF8
0700
3FE0
FCF8
4018
ENDCHAR
STARTCHAR ACF7
ENCODING 44279
SWIDTH 900 0
DWIDTH 15 0
BBX 14 15 1 -2
BITMAP
7FF8
7FF8
0038
0038
0600
0600
FFFC
FFFC
0300
7FF8
7FF8
0700
3FE0
FCF8
4018
ENDCHAR
STARTCHAR ACF8
ENCODING 44280
SWIDTH 900 0
DWIDTH 15 0
BBX 14 14 1 -2
BITMAP
7FF8
7FF8
0038
0638
0638
0600
FFFC
FFFC
0000
FFF8
0038
7FF8
7FF8
0038
ENDCHAR
STARTCHAR ACF9
ENCODING 44281
SWIDTH 900 0
DWIDTH 15 0
BBX 14 15 1 -2
BITMAP
7FF8
7FF8
0038
0638
0600
FFFC
FFFC
0000
7FF8
7FF8
6000
7FF0
6000
7FF8
7FF8
ENDCHAR
STARTCHAR ACFA
ENCODING 44282
SWIDTH 900 0
DWIDTH 15 0
BBX 14 14 1 -2
BITMAP
7FF8
7FF8
0038
0638
0638
0600
FFFC
0000
7FF8
7FF8
18E0
18E0
FFF8
FFF8
ENDCHAR
STARTCHAR ACFB
ENCODING 44283
SWIDTH 900 0
DWIDTH 15 0
BBX 14 16 1 -3
BITMAP
7FF8
7FF8
0038
0638
0600
FFFC
FFFC
0000
0700
FFF8
FFF8
6030
6030
6038
7FF0
3FE0
ENDCHAR
STARTCHAR ACFC
ENCODING 44284
SWIDTH 900 0
DWIDTH 15 0
BBX 15 15 0 -2
BITMAP
0018
7F98
7F98
0198
0198
0198
019E
199E
1998
1998
1818
FFD8
FFD8
0018
0018
ENDCHAR
STARTCHAR ACFD
ENCODING 44285
SWIDTH 900 0
DWIDTH 15 0
BBX 15 14 0 -2
BITMAP
7F98
7F98
0198
019E
199E
1998
FFD8
FFD8
0018
3FF8
3FF8
0018
0018
0018
ENDCHAR
STARTCHAR ACFE
ENCODING 44286
SWIDTH 900 0
DWIDTH 15 0
BBX 15 14 0 -2
BITMAP
7F98
7F98
0198
019E
199E
1998
FFD8
FFD8
0018
3EF8
3EF8
0618
0618
0618
ENDCHAR
STARTCHAR ACFF
ENCODING 44287
SWIDTH 900 0
DWIDTH 15 0
BBX 15 14 0 -2
BITMAP
7F98
7F98
0198
019E
199E
1998
FFD8
FFD8
0000
3E30
3E30
0678
06FC
06CC
ENDCHAR
STARTCHAR AD00
ENCODING 44288
SWIDTH 900 0
DWIDTH 15 0
BBX 15 15 0 -2
BITMAP
7F98
7F98
7F98
0198
019E
199E
199E
1FD8
FFD8
0018
3018
3000
3000
3FFC
3FFC
ENDCHAR
STARTCHAR AD01
ENCODING 44289
SWIDTH 900 0
DWIDTH 15 0
BBX 15 14 0 -2
BITMAP
7F98
7F98
0198
019E
1D9E
1D98
FFD8
FFD8
3000
30FC
30FC
3070
3FFC
3E8C
ENDCHAR
STARTCHAR AD02
ENCODING 44290
SWIDTH 900 0
DWIDTH 15 0
BBX 15 15 0 -3
BITMAP
7F98
7F98
019E
199E
1998
1818
FFD8
0018
7060
71FC
71FC
7198
7F9C
7EF8
0070
ENDCHAR
STARTCHAR AD03
ENCODING 44291
SWIDTH 900 0
DWIDTH 15 0
BBX 15 14 0 -2
BITMAP
7F98
7F98
0198
019E
199E
1998
FFD8
FFD8
0000
3FF8
3FF8
3000
3FFC
3FFC
ENDCHAR
STARTCHAR AD04
ENCODING 44292
SWIDTH 900 0
DWIDTH 15 0
BBX 15 14 0 -2
BITMAP
7F98
7F98
019E
199E
199E
FFD8
FFD8
0000
3FF8
3FF8
3FF8
3FF8
3FFC
3FFC
ENDCHAR
STARTCHAR AD05
ENCODING 44293
SWIDTH 900 0
DWIDTH 15 0
BBX 15 14 0 -2
BITMAP
7F98
7F98
019E
199E
1998
FFD8
FFD8
0000
3EF8
3EF8
3E18
3E18
3F98
3F98
ENDCHAR
STARTCHAR AD06
ENCODING 44294
SWIDTH 900 0
DWIDTH 15 0
BBX 15 14 0 -2
BITMAP
7F98
7F98
019E
1D9E
1D9E
FFD8
FFD8
0000
3EF8
3EF8
3ED8
3ED8
3FF8
3FF8
ENDCHAR
STARTCHAR AD07
ENCODING 44295
SWIDTH 900 0
DWIDTH 15 0
BBX 15 15 0 -2
BITMAP
7F98
7F98
7F98
019E
1D9E
1D98
FFD8
FFD8
3ED8
3ED8
06F8
3EF8
3ED8
3EF8
3EF8
ENDCHAR
STARTCHAR AD08
ENCODING 44296
SWIDTH 900 0
DWIDTH 15 0
BBX 15 14 0 -2
BITMAP
7F98
7F98
019E
1D9E
1D98
FFD8
FFD8
0000
3F30
3F30
3F70
3FF8
3FCC
3F80
ENDCHAR
STARTCHAR AD09
ENCODING 44297
SWIDTH 900 0
DWIDTH 15 0
BBX 15 14 0 -2
BITMAP
7F98
7F98
019E
1D9E
1D98
FFD8
FFD8
0000
3EF8
3EF8
3EF8
3EF8
3FFC
3FFC
ENDCHAR
STARTCHAR AD0A
ENCODING 44298
SWIDTH 900 0
DWIDTH 15 0
BBX 15 14 0 -2
BITMAP
7F98
7F98
019E
1D9E
1D98
FFD8
FFD8
0000
3EFC
3EFC
3ED8
3ED8
3EFC
3EFC
ENDCHAR
STARTCHAR AD0B
ENCODING 44299
SWIDTH 900 0
DWIDTH 15 0
BBX 15 16 0 -3
BITMAP
7F98
7F98
7F98
019E
1D9E
1D98
FFD8
FFD8
0000
3E30
06FC
3E78
3ECC
30CC
3FFC
3F30
ENDCHAR
STARTCHAR AD0C
ENCODING 44300
SWIDTH 900 0
DWIDTH 15 0
BBX 15 14 0 -2
BITMAP
7F98
7F98
0198
019E
199E
1998
FFD8
FFD8
0000
3FF8
3FF8
3018
3FF8
3FF8
ENDCHAR
STARTCHAR AD0D
ENCODING 44301
SWIDTH 900 0
DWIDTH 15 0
BBX 15 14 0 -2
BITMAP
7F98
7F98
0198
199E
199E
1818
FFD8
FFD8
3018
3FF8
3FF8
3018
3FF8
3FF8
ENDCHAR
STARTCHAR AD0E
ENCODING 44302
SWIDTH 900 0
DWIDTH 15 0
BBX 15 14 0 -2
BITMAP
7F98
7F98
019E
199E
199E
1818
FFD8
FFD8
3330
3F30
3F38
337C
3FFE
3FC4
ENDCHAR
STARTCHAR AD0F
ENCODING 44303
SWIDTH 900 0
DWIDTH 15 0
BBX 15 15 0 -2
BITMAP
7F98
7F98
7F98
0198
019E
199E
1818
FFD8
FFD8
0018
0380
07C0
1FF0
3C7C
3008
ENDCHAR
STARTCHAR AD10
ENCODING 44304
SWIDTH 900 0
DWIDTH 15 0
BBX 15 15 0 -2
BITMAP
0018
7F98
7F98
0198
019E
199E
1818
FFD8
FFD8
0C70
0C70
0C70
3FF8
7FDE
218C
ENDCHAR
STARTCHAR AD11
ENCODING 44305
SWIDTH 900 0
DWIDTH 15 0
BBX 15 14 0 -2
BITMAP
7F98
7F98
0198
199E
199E
1818
FFD8
0018
1FF0
3FF8
3018
3018
3FF8
1FF0
ENDCHAR
STARTCHAR AD12
ENCODING 44306
SWIDTH 900 0
DWIDTH 15 0
BBX 15 15 0 -3
BITMAP
7F98
7F98
0198
019E
199E
1998
FFD8
FFD8
0000
3FF8
3FF8
0380
1FF0
3C7C
2000
ENDCHAR
STARTCHAR AD13
ENCODING 44307
SWIDTH 900 0
DWIDTH 15 0
BBX 15 14 0 -2
BITMAP
7F98
7F98
019E
199E
1998
FFD8
FFD8
FFD8
0380
3FF8
3FF8
03C0
3FF8
3C3C
ENDCHAR
STARTCHAR AD14
ENCODING 44308
SWIDTH 900 0
DWIDTH 15 0
BBX 15 15 0 -2
BITMAP
0018
7F98
7F98
019E
019E
199E
1818
FFD8
FFD8
3FF8
3FF8
0018
3FF8
3FF8
0018
ENDCHAR
STARTCHAR AD15
ENCODING 44309
SWIDTH 900 0
DWIDTH 15 0
BBX 15 14 0 -2
BITMAP
7F98
7F98
019E
199E
1998
FFD8
FFD8
0000
3FF8
3FF8
3FF8
3FF8
3FFC
3FFC
ENDCHAR
STARTCHAR AD16
ENCODING 44310
SWIDTH 900 0
DWIDTH 15 0
BBX 15 14 0 -2
BITMAP
7F98
7F98
0198
199E
199E
1818
FFD8
0018
3FF8
3FF8
0C70
0C70
3FFC
3FFC
ENDCHAR
STARTCHAR AD17
ENCODING 44311
SWIDTH 900 0
DWIDTH 15 0
BBX 15 16 0 -3
BITMAP
7F98
7F98
0198
019E
199E
1998
FFD8
FFD8
0000
0380
3FFC
3FFC
3818
3818
1FF8
0FE0
ENDCHAR
STARTCHAR AD18
ENCODING 44312
SWIDTH 900 0
DWIDTH 15 0
BBX 14 15 0 -2
BITMAP
006C
FE6C
FE6C
066C
066C
066C
067C
367C
366C
366C
306C
FF6C
FF6C
006C
006C
ENDCHAR
STARTCHAR AD19
ENCODING 44313
SWIDTH 900 0
DWIDTH 15 0
BBX 14 14 0 -2
BITMAP
7FEC
7FEC
07EC
07FC
37FC
37EC
FFEC
FFEC
00EC
3FFC
3FFC
000C
000C
000C
ENDCHAR
STARTCHAR AD1A
ENCODING 44314
SWIDTH 900 0
DWIDTH 15 0
BBX 14 14 0 -2
BITMAP
7F6C
7F6C
076C
077C
377C
376C
FF6C
FF6C
006C
3FFC
3FFC
030C
030C
030C
ENDCHAR
STARTCHAR AD1B
ENCODING 44315
SWIDTH 900 0
DWIDTH 15 0
BBX 14 14 0 -2
BITMAP
7FEC
7FEC
07EC
07FC
37FC
37EC
FFEC
FFEC
0000
3E30
3E30
0678
06FC
06CC
ENDCHAR
STARTCHAR AD1C
ENCODING 44316
SWIDTH 900 0
DWIDTH 15 0
BBX 14 15 0 -2
BITMAP
7F6C
7F6C
7F6C
076C
076C
377C
377C
FF6C
FF6C
006C
186C
1800
1800
1FFC
1FFC
ENDCHAR
STARTCHAR AD1D
ENCODING 44317
SWIDTH 900 0
DWIDTH 15 0
BBX 15 14 0 -2
BITMAP
7FEC
7FEC
07EC
07FC
37FC
37EC
FFEC
FFEC
3000
30FC
30FC
3078
3FFE
3ECC
ENDCHAR
STARTCHAR AD1E
ENCODING 44318
SWIDTH 900 0
DWIDTH 15 0
BBX 14 15 0 -3
BITMAP
7FEC
7FEC
07FC
37FC
37FC
30EC
FFEC
00EC
3030
31FC
31FC
30CC
3FCC
3EFC
0070
ENDCHAR
STARTCHAR AD1F
ENCODING 44319
SWIDTH 900 0
DWIDTH 15 0
BBX 14 14 0 -2
BITMAP
7FEC
7FEC
07EC
07FC
37FC
37EC
FFEC
FFEC
0000
1FFC
1FFC
1800
1FFC
1FFC
ENDCHAR
STARTCHAR AD20
ENCODING 44320
SWIDTH 900 0
DWIDTH 15 0
BBX 14 14 0 -2
BITMAP
7F6C
7F6C
076C
377C
377C
FF6C
FF6C
006C
1FFC
1FFC
1FFC
1FFC
1FFC
1FFC
ENDCHAR
STARTCHAR AD21
ENCODING 44321
SWIDTH 900 0
DWIDTH 15 0
BBX 14 14 0 -2
BITMAP
7F6C
7F6C
076C
377C
377C
FF6C
FF6C
006C
3F7C
3F7C
3F0C
3F0C
3F8C
3F8C
ENDCHAR
STARTCHAR AD22
ENCODING 44322
SWIDTH 900 0
DWIDTH 15 0
BBX 14 14 0 -2
BITMAP
7FEC
7FEC
07EC
37FC
37FC
FFEC
FFEC
00EC
3FFC
3FFC
3FEC
3FEC
3FFC
3FFC
ENDCHAR
STARTCHAR AD23
ENCODING 44323
SWIDTH 900 0
DWIDTH 15 0
BBX 14 15 0 -2
BITMAP
7FEC
7FEC
07EC
07FC
37FC
30EC
FFEC
FFEC
3FEC
3FEC
03FC
3FFC
3FEC
3FFC
3FFC
ENDCHAR
STARTCHAR AD24
ENCODING 44324
SWIDTH 900 0
DWIDTH 15 0
BBX 15 14 0 -2
BITMAP
7FEC
7FEC
07EC
37FC
37FC
FFEC
FFEC
00EC
3F30
3F30
3F38
3F7C
3FEE
3F44
ENDCHAR
STARTCHAR AD25
ENCODING 44325
SWIDTH 900 0
DWIDTH 15 0
BBX 15 14 0 -2
BITMAP
7FEC
7FEC
07EC
37FC
37FC
FFEC
FFEC
00EC
3FFC
3FFC
3FFC
3FFC
3FFE
3FFE
ENDCHAR
STARTCHAR AD26
ENCODING 44326
SWIDTH 900 0
DWIDTH 15 0
BBX 14 14 0 -2
BITMAP
7FEC
7FEC
07EC
37FC
37FC
FFEC
FFEC
00EC
3FFC
3FFC
3F6C
3F6C
3FFC
3FFC
ENDCHAR
STARTCHAR AD27
ENCODING 44327
SWIDTH 900 0
DWIDTH 15 0
BBX 15 16 1 -3
BITMAP
FEEC
FEEC
06EC
06FC
36FC
30EC
FFEC
FFEC
0000
3E30
06FE
3E7C
3ECC
30CC
3F7C
3F38
ENDCHAR
STARTCHAR AD28
ENCODING 44328
SWIDTH 900 0
DWIDTH 15 0
BBX 14 14 0 -2
BITMAP
7FEC
7FEC
07EC
07FC
37FC
37EC
FFEC
FFEC
0000
1FFC
1FFC
180C
1FFC
1FFC
ENDCHAR
STARTCHAR AD29
ENCODING 44329
SWIDTH 900 0
DWIDTH 15 0
BBX 14 14 0 -2
BITMAP
7F6C
7F6C
076C
377C
377C
306C
FF6C
FF6C
180C
1FFC
1FFC
180C
1FFC
1FFC
ENDCHAR
STARTCHAR AD2A
ENCODING 44330
SWIDTH 900 0
DWIDTH 15 0
BBX 15 14 0 -2
BITMAP
7FEC
7FEC
07EC
37FC
37FC
30EC
FFEC
FFEC
3330
3F30
3F38
3378
3FFE
3F44
ENDCHAR
STARTCHAR AD2B
ENCODING 44331
SWIDTH 900 0
DWIDTH 15 0
BBX 15 15 0 -2
BITMAP
7FEC
7FEC
7FEC
07EC
07FC
37FC
30EC
FFEC
FFEC
000C
01C0
03E0
0FF8
3E3E
1004
ENDCHAR
STARTCHAR AD2C
ENCODING 44332
SWIDTH 900 0
DWIDTH 15 0
BBX 15 15 0 -2
BITMAP
006C
7F6C
7F6C
076C
077C
377C
306C
FF6C
FF6C
0C30
0C30
0E30
3FFC
7BFE
2184
ENDCHAR
STARTCHAR AD2D
ENCODING 44333
SWIDTH 900 0
DWIDTH 15 0
BBX 14 14 0 -2
BITMAP
7F6C
7F6C
076C
377C
377C
306C
FF6C
006C
0FF8
1FFC
380C
380C
1FFC
0FF8
ENDCHAR
STARTCHAR AD2E
ENCODING 44334
SWIDTH 900 0
DWIDTH 15 0
BBX 15 14 0 -3
BITMAP
7FEC
7FEC
07EC
07FC
37FC
37EC
FFEC
FFEC
0000
1FFC
1FFC
01C0
0FF8
3E3E
ENDCHAR
STARTCHAR AD2F
ENCODING 44335
SWIDTH 900 0
DWIDTH 15 0
BBX 15 14 0 -2
BITMAP
7FEC
7FEC
07EC
07FC
37FC
30EC
FFEC
FFEC
01C0
1FFC
1FFC
03E0
1FFC
3C3E
ENDCHAR
STARTCHAR AD30
ENCODING 44336
SWIDTH 900 0
DWIDTH 15 0
BBX 14 15 0 -2
BITMAP
000C
7FEC
7FEC
07EC
07FC
37FC
30EC
FFEC
FFEC
3FFC
3FFC
000C
1FFC
1FFC
000C
ENDCHAR
STARTCHAR AD31
ENCODING 44337
SWIDTH 900 0
DWIDTH 15 0
BBX 14 14 0 -2
BITMAP
7FEC
7FEC
07EC
37FC
37FC
FFEC
FFEC
00EC
1FFC
1FFC
1FFC
1FFC
1FFC
1FFC
ENDCHAR
STARTCHAR AD32
ENCODING 44338
SWIDTH 900 0
DWIDTH 15 0
BBX 14 14 0 -2
BITMAP
7FEC
7FEC
07EC
37FC
37FC
30EC
FFEC
00EC
3FFC
3FFC
0E30
0E30
3FFC
3FFC
ENDCHAR
STARTCHAR AD33
ENCODING 44339
SWIDTH 900 0
DWIDTH 15 0
BBX 15 16 0 -3
BITMAP
7F6C
7F6C
076C
077C
377C
376C
FF6C
FF6C
0000
01C0
3FFE
3FFE
180C
180C
1FFC
0FF0
ENDCHAR
STARTCHAR AD34
ENCODING 44340
SWIDTH 900 0
DWIDTH 15 0
BBX 13 15 1 -2
BITMAP
0018
FF98
FF98
0198
0198
0198
0198
1998
1998
1998
1818
FFD8
FFD8
0018
0018
ENDCHAR
STARTCHAR AD35
ENCODING 44341
SWIDTH 900 0
DWIDTH 15 0
BBX 13 14 1 -2
BITMAP
7F98
7F98
0198
0198
1998
1998
FFD8
FFD8
0018
3FF8
3FF8
0018
0018
0018
ENDCHAR
STARTCHAR AD36
ENCODING 44342
SWIDTH 900 0
DWIDTH 15 0
BBX 13 14 1 -2
BITMAP
FF98
FF98
0198
0198
1998
1998
FFD8
FFD8
0018
7EF8
7EF8
0618
0618
0618
ENDCHAR
STARTCHAR AD37
ENCODING 44343
SWIDTH 900 0
DWIDTH 15 0
BBX 14 14 1 -2
BITMAP
FF98
FF98
0198
0198
1998
1998
FFD8
FFD8
0000
7E30
7E30
0678
07FC
06CC
ENDCHAR
STARTCHAR AD38
ENCODING 44344
SWIDTH 900 0
DWIDTH 15 0
BBX 14 15 1 -2
BITMAP
7F98
7F98
7F98
0198
0198
1998
1998
FFD8
FFD8
0018
3018
3000
3000
3FFC
3FFC
ENDCHAR
STARTCHAR AD39
ENCODING 44345
SWIDTH 900 0
DWIDTH 15 0
BBX 14 14 1 -2
BITMAP
FF98
FF98
0198
0198
1998
1998
FFD8
FFD8
7000
71FC
71FC
7070
7FFC
7F8C
ENDCHAR
STARTCHAR AD3A
ENCODING 44346
SWIDTH 900 0
DWIDTH 15 0
BBX 14 15 1 -3
BITMAP
FF98
FF98
0198
1998
1998
1818
FFD8
0018
7060
71FC
71FC
7198
7F98
7FF8
00F0
ENDCHAR
STARTCHAR AD3B
ENCODING 44347
SWIDTH 900 0
DWIDTH 15 0
BBX 14 14 1 -2
BITMAP
FF98
FF98
0198
0198
1998
1998
FFD8
FFD8
0000
3FF8
3FF8
3000
3FFC
3FFC
ENDCHAR
STARTCHAR AD3C
ENCODING 44348
SWIDTH 900 0
DWIDTH 15 0
BBX 14 14 1 -2
BITMAP
7F98
7F98
0198
1998
1998
FFD8
FFD8
0000
3FF8
3FF8
3FF8
3FF8
3FFC
3FFC
ENDCHAR
STARTCHAR AD3D
ENCODING 44349
SWIDTH 900 0
DWIDTH 15 0
BBX 13 14 1 -2
BITMAP
FF98
FF98
0198
1998
1998
FFD8
FFD8
0000
7EF8
7EF8
7E18
7E18
7F18
7F18
ENDCHAR
STARTCHAR AD3E
ENCODING 44350
SWIDTH 900 0
DWIDTH 15 0
BBX 13 14 1 -2
BITMAP
FF98
FF98
0198
1998
1998
FFD8
FFD8
0000
7EF8
7EF8
7ED8
7ED8
7EF8
7EF8
ENDCHAR
STARTCHAR AD3F
ENCODING 44351
SWIDTH 900 0
DWIDTH 15 0
BBX 13 15 1 -2
BITMAP
FF98
FF98
FF98
0198
1998
1998
FFD8
FFD8
7ED8
7ED8
06F8
7EF8
7ED8
7EF8
7EF8
ENDCHAR
STARTCHAR AD40
ENCODING 44352
SWIDTH 900 0
DWIDTH 15 0
BBX 14 14 1 -2
BITMAP
FF98
FF98
0198
1998
1998
FFD8
FFD8
0000
7E30
7E30
7E70
7EF8
7FDC
7F88
ENDCHAR
STARTCHAR AD41
ENCODING 44353
SWIDTH 900 0
DWIDTH 15 0
BBX 13 14 1 -2
BITMAP
FF98
FF98
0198
1998
1998
FFD8
FFD8
0000
7EF8
7EF8
7EF8
7EF8
7EF8
7EF8
ENDCHAR
STARTCHAR AD42
ENCODING 44354
SWIDTH 900 0
DWIDTH 15 0
BBX 14 14 1 -2
BITMAP
FF98
FF98
0198
1998
1998
FFD8
FFD8
0000
7FFC
7FFC
7ED8
7ED8
7FFC
7FFC
ENDCHAR
STARTCHAR AD43
ENCODING 44355
SWIDTH 900 0
DWIDTH 15 0
BBX 14 16 1 -3
BITMAP
FF98
FF98
FF98
0198
1998
1998
FFD8
FFD8
0000
7E30
07FC
7EF8
7ECC
70CC
7EFC
7E70
ENDCHAR
STARTCHAR AD44
ENCODING 44356
SWIDTH 900 0
DWIDTH 15 0
BBX 13 14 1 -2
BITMAP
7F98
7F98
0198
0198
1998
1998
FFD8
FFD8
0000
3FF8
3FF8
3018
3FF8
3FF8
ENDCHAR
STARTCHAR AD45
ENCODING 44357
SWIDTH 900 0
DWIDTH 15 0
BBX 13 14 1 -2
BITMAP
7F98
7F98
0198
1998
1998
1818
FFD8
FFD8
3018
3FF8
3FF8
3018
3FF8
3FF8
ENDCHAR
STARTCHAR AD46
ENCODING 44358
SWIDTH 900 0
DWIDTH 15 0
BBX 15 14 1 -2
BITMAP
FF98
FF98
0198
1998
1998
1818
FFD8
FFD8
3730
3F30
3F38
377C
3FFE
3FC4
ENDCHAR
STARTCHAR AD47
ENCODING 44359
SWIDTH 900 0
DWIDTH 15 0
BBX 14 15 1 -2
BITMAP
7F98
7F98
7F98
0198
0198
1998
1818
FFD8
FFD8
0018
0380
07C0
1FF0
7C7C
2008
ENDCHAR
STARTCHAR AD48
ENCODING 44360
SWIDTH 900 0
DWIDTH 15 0
BBX 15 15 1 -2
BITMAP
0018
FF98
FF98
0198
0198
1998
1818
FFD8
FFD8
0000
0C70
1C70
3EF8
77DE
618C
ENDCHAR
STARTCHAR AD49
ENCODING 44361
SWIDTH 900 0
DWIDTH 15 0
BBX 13 14 1 -2
BITMAP
7F98
7F98
0198
1998
1998
1818
FFD8
0018
1FF0
3FF8
7018
7018
3FF8
1FF0
ENDCHAR
STARTCHAR AD4A
ENCODING 44362
SWIDTH 900 0
DWIDTH 15 0
BBX 14 15 1 -3
BITMAP
FF98
FF98
0198
0198
1998
1998
FFD8
FFD8
0000
3FF8
3FF8
0380
1FF0
7C7C
2000
ENDCHAR
STARTCHAR AD4B
ENCODING 44363
SWIDTH 900 0
DWIDTH 15 0
BBX 14 14 1 -2
BITMAP
FF98
FF98
0198
1998
1998
FFD8
FFD8
FFD8
0380
3FF8
3FF8
07C0
3FF8
7C7C
ENDCHAR
STARTCHAR AD4C
ENCODING 44364
SWIDTH 900 0
DWIDTH 15 0
BBX 13 15 1 -2
BITMAP
0018
FF98
FF98
0198
0198
1998
1818
FFD8
FFD8
3FF8
3FF8
0018
3FF8
3FF8
0018
ENDCHAR
STARTCHAR AD4D
ENCODING 44365
SWIDTH 900 0
DWIDTH 15 0
BBX 14 14 1 -2
BITMAP
FF98
FF98
0198
1998
1998
FFD8
FFD8
0000
3FF8
3FF8
3FF8
3FF8
3FFC
3FFC
ENDCHAR
STARTCHAR AD4E
ENCODING 44366
SWIDTH 900 0
DWIDTH 15 0
BBX 14 14 1 -2
BITMAP
FF98
FF98
0198
1998
1998
1818
FFD8
0018
3FFC
3FFC
0C70
0C70
3FFC
3FFC
ENDCHAR
STARTCHAR AD4F
ENCODING 44367
SWIDTH 900 0
DWIDTH 15 0
BBX 14 16 1 -3
BITMAP
FF98
FF98
0198
0198
1998
1998
FFD8
FFD8
0000
0380
7FFC
7FFC
3018
3038
3FF8
0FE0
ENDCHAR
STARTCHAR AD50
ENCODING 44368
SWIDTH 900 0
DWIDTH 15 0
BBX 14 13 1 -1
BITMAP
7FF8
7FF8
0038
0038
0038
0038
3BB8
3BB8
3BB8
3B80
3B80
FFFC
FFFC
ENDCHAR
STARTCHAR AD51
ENCODING 44369
SWIDTH 900 0
DWIDTH 15 0
BBX 14 14 1 -2
BITMAP
7FF8
7FF8
0038
39B8
39B8
39B8
FFFC
FFFC
0000
FFF8
FFF8
0038
0038
0038
ENDCHAR
STARTCHAR AD52
ENCODING 44370
SWIDTH 900 0
DWIDTH 15 0
BBX 14 14 1 -2
BITMAP
7FF8
7FF8
0038
39B8
39B8
39B8
FFFC
FFFC
0000
FDF8
FDF8
0C38
0C38
0C38
ENDCHAR
STARTCHAR AD53
ENCODING 44371
SWIDTH 900 0
DWIDTH 15 0
BBX 14 15 1 -3
BITMAP
7FF8
7FF8
0038
39B8
39B8
3980
FFFC
FFFC
0000
FC60
FC60
0CF0
0DF8
0F9C
0D08
ENDCHAR
STARTCHAR AD54
ENCODING 44372
SWIDTH 900 0
DWIDTH 15 0
BBX 14 14 1 -2
BITMAP
7FF8
7FF8
0038
39B8
39B8
39B8
FFFC
FFFC
0000
6000
6000
6000
7FF8
7FF8
ENDCHAR
STARTCHAR AD55
ENCODING 44373
SWIDTH 900 0
DWIDTH 15 0
BBX 14 14 1 -2
BITMAP
7FF8
7FF8
0038
19B8
19B8
1980
FFFC
FFFC
61F8
61F8
6060
60F0
7FFC
7D98
ENDCHAR
STARTCHAR AD56
ENCODING 44374
SWIDTH 900 0
DWIDTH 15 0
BBX 14 15 1 -3
BITMAP
7FF8
7FF8
0038
19B8
19B8
FFFC
FFFC
0000
6060
63FC
63FC
6198
7F98
7DF8
00E0
ENDCHAR
STARTCHAR AD57
ENCODING 44375
SWIDTH 900 0
DWIDTH 15 0
BBX 14 14 1 -2
BITMAP
7FF8
7FF8
0038
39B8
39B8
3980
FFFC
FFFC
0000
7FF8
7FF8
6000
7FF8
7FF8
ENDCHAR
STARTCHAR AD58
ENCODING 44376
SWIDTH 900 0
DWIDTH 15 0
BBX 14 15 1 -2
BITMAP
7FF8
7FF8
0038
19B8
19B8
FFFC
FFFC
0000
7FF8
7FF8
0038
7FF8
6000
7FF8
7FF8
ENDCHAR
STARTCHAR AD59
ENCODING 44377
SWIDTH 900 0
DWIDTH 15 0
BBX 14 15 1 -2
BITMAP
7FF8
7FF8
0038
19B8
1980
FFFC
FFFC
0000
7DF8
7DF8
0C38
7C38
6038
7F38
7F38
ENDCHAR
STARTCHAR AD5A
ENCODING 44378
SWIDTH 900 0
DWIDTH 15 0
BBX 14 15 1 -2
BITMAP
7FF8
7FF8
0038
19B8
1980
FFFC
FFFC
0000
7DF8
7DF8
0D98
7D98
6198
7FF8
7FF8
ENDCHAR
STARTCHAR AD5B
ENCODING 44379
SWIDTH 900 0
DWIDTH 15 0
BBX 14 15 1 -2
BITMAP
7FF8
7FF8
0038
19B8
1980
FFFC
FFFC
0000
7D98
7D98
0DF8
7DF8
7D98
7DF8
7DF8
ENDCHAR
STARTCHAR AD5C
ENCODING 44380
SWIDTH 900 0
DWIDTH 15 0
BBX 14 15 1 -2
BITMAP
7FF8
7FF8
0038
19B8
1980
FFFC
FFFC
0000
7E60
7E60
0E60
7EF0
61F8
7FDC
7F88
ENDCHAR
STARTCHAR AD5D
ENCODING 44381
SWIDTH 900 0
DWIDTH 15 0
BBX 14 15 1 -2
BITMAP
7FF8
7FF8
0038
19B8
1980
FFFC
FFFC
0000
7DF8
7DF8
0D80
7DF8
6180
7FF8
7FF8
ENDCHAR
STARTCHAR AD5E
ENCODING 44382
SWIDTH 900 0
DWIDTH 15 0
BBX 14 15 1 -2
BITMAP
7FF8
7FF8
0038
19B8
1980
FFFC
FFFC
0000
7DF8
7DF8
0CF8
7CF8
60F8
7FF8
7FF8
ENDCHAR
STARTCHAR AD5F
ENCODING 44383
SWIDTH 900 0
DWIDTH 15 0
BBX 14 16 1 -3
BITMAP
7FF8
7FF8
0038
19B8
1980
FFFC
FFFC
0000
7C60
7DFC
0DFC
7D98
7D98
6198
7FF8
7E70
ENDCHAR
STARTCHAR AD60
ENCODING 44384
SWIDTH 900 0
DWIDTH 15 0
BBX 14 14 1 -2
BITMAP
7FF8
7FF8
0038
39B8
39B8
3980
FFFC
FFFC
0000
7FF8
7FF8
6038
7FF8
7FF8
ENDCHAR
STARTCHAR AD61
ENCODING 44385
SWIDTH 900 0
DWIDTH 15 0
BBX 14 14 1 -2
BITMAP
7FF8
7FF8
0038
19B8
19B8
FFFC
FFFC
0000
6038
7FF8
7FF8
6038
7FF8
7FF8
ENDCHAR
STARTCHAR AD62
ENCODING 44386
SWIDTH 900 0
DWIDTH 15 0
BBX 14 14 1 -2
BITMAP
7FF8
7FF8
0038
19B8
19B8
FFFC
FFFC
0000
6660
7E60
7E70
66F8
7FDC
7F88
ENDCHAR
STARTCHAR AD63
ENCODING 44387
SWIDTH 900 0
DWIDTH 15 0
BBX 14 14 1 -2
BITMAP
7FF8
7FF8
0038
39B8
39B8
39B8
FFFC
FFFC
0000
0700
0780
1FE0
FCFC
6038
ENDCHAR
STARTCHAR AD64
ENCODING 44388
SWIDTH 900 0
DWIDTH 15 0
BBX 15 15 0 -3
BITMAP
3FFC
3FFC
001C
1CDC
1CDC
1CC0
FFFE
FFFE
0000
0C30
1C70
3E78
7FFC
738E
4104
ENDCHAR
STARTCHAR AD65
ENCODING 44389
SWIDTH 900 0
DWIDTH 15 0
BBX 14 14 1 -2
BITMAP
7FF8
7FF8
0038
39B8
39B8
3980
FFFC
0000
3FF0
7FF8
E038
E018
7FF8
3FF0
ENDCHAR
STARTCHAR AD66
ENCODING 44390
SWIDTH 900 0
DWIDTH 15 0
BBX 14 15 1 -3
BITMAP
7FF8
7FF8
0038
19B8
19B8
1980
FFFC
FFFC
0000
7FF8
7FF8
0700
3FE0
FCF8
4018
ENDCHAR
STARTCHAR AD67
ENCODING 44391
SWIDTH 900 0
DWIDTH 15 0
BBX 14 15 1 -2
BITMAP
7FF8
7FF8
0038
0038
1980
1980
FFFC
FFFC
0300
7FF8
7FF8
0700
3FE0
FCF8
4018
ENDCHAR
STARTCHAR AD68
ENCODING 44392
SWIDTH 900 0
DWIDTH 15 0
BBX 14 14 1 -2
BITMAP
7FF8
7FF8
0038
39B8
39B8
3980
FFFC
FFFC
0000
FFF8
0038
7FF8
7FF8
0038
ENDCHAR
STARTCHAR AD69
ENCODING 44393
SWIDTH 900 0
DWIDTH 15 0
BBX 14 15 1 -2
BITMAP
7FF8
7FF8
0038
39B8
3980
FFFC
FFFC
0000
7FF8
7FF8
6000
7FF0
6000
7FF8
7FF8
ENDCHAR
STARTCHAR AD6A
ENCODING 44394
SWIDTH 900 0
DWIDTH 15 0
BBX 14 14 1 -2
BITMAP
7FF8
7FF8
0038
39B8
39B8
3980
FFFC
0000
7FF8
7FF8
18E0
18E0
FFF8
FFF8
ENDCHAR
STARTCHAR AD6B
ENCODING 44395
SWIDTH 900 0
DWIDTH 15 0
BBX 14 16 1 -3
BITMAP
7FF8
7FF8
0038
39B8
3980
FFFC
FFFC
0000
0700
FFF8
FFF8
6030
6030
6038
7FF0
3FE0
ENDCHAR
STARTCHAR AD6C
ENCODING 44396
SWIDTH 900 0
DWIDTH 15 0
BBX 14 14 1 -2
BITMAP
7FF8
7FF8
0038
0038
0038
0038
0000
FFFC
FFFC
0300
0300
0300
0300
0300
ENDCHAR
STARTCHAR AD6D
ENCODING 44397
SWIDTH 900 0
DWIDTH 15 0
BBX 14 14 1 -2
BITMAP
7FF8
7FF8
0038
0038
0038
FFFC
FFFC
0300
0300
FFF8
FFF8
0038
0038
0038
ENDCHAR
STARTCHAR AD6E
ENCODING 44398
SWIDTH 900 0
DWIDTH 15 0
BBX 14 14 1 -2
BITMAP
7FF8
7FF8
0038
0038
0038
FFFC
FFFC
0700
0700
FDF8
FDF8
0C38
0C38
0C38
ENDCHAR
STARTCHAR AD6F
ENCODING 44399
SWIDTH 900 0
DWIDTH 15 0
BBX 14 14 1 -2
BITMAP
7FF8
7FF8
0038
0038
0038
FFFC
FFFC
0300
FF60
FC60
0CF0
0DF8
0F9C
0D08
ENDCHAR
STARTCHAR AD70
ENCODING 44400
SWIDTH 900 0
DWIDTH 15 0
BBX 14 14 1 -2
BITMAP
7FF8
7FF8
0038
0038
0038
0038
FFFC
FFFC
0300
6300
6300
6000
7FF8
7FF8
ENDCHAR
STARTCHAR AD71
ENCODING 44401
SWIDTH 900 0
DWIDTH 15 0
BBX 14 14 1 -2
BITMAP
7FF8
7FF8
0038
0038
0038
FFFC
FFFC
0300
63F8
61F8
6060
60F0
7FFC
7D98
ENDCHAR
STARTCHAR AD72
ENCODING 44402
SWIDTH 900 0
DWIDTH 15 0
BBX 14 15 1 -3
BITMAP
7FF8
7FF8
0038
0038
0038
FFFC
FFFC
0300
6360
63FC
63FC
6198
7F98
7DF8
00F0
ENDCHAR
STARTCHAR AD73
ENCODING 44403
SWIDTH 900 0
DWIDTH 15 0
BBX 14 14 1 -2
BITMAP
7FF8
7FF8
0038
0038
0038
FFFC
FFFC
0700
7FF8
7FF8
6000
6000
7FF8
7FF8
ENDCHAR
STARTCHAR AD74
ENCODING 44404
SWIDTH 900 0
DWIDTH 15 0
BBX 14 15 1 -2
BITMAP
7FF8
7FF8
0038
0038
0038
FFFC
FFFC
0700
7FF8
7FF8
0038
7FF8
6000
7FF8
7FF8
ENDCHAR
STARTCHAR AD75
ENCODING 44405
SWIDTH 900 0
DWIDTH 15 0
BBX 14 15 1 -2
BITMAP
7FF8
7FF8
0038
0038
0038
FFFC
FFFC
0300
7FF8
7DF8
0C38
7C38
6038
7F38
7F38
ENDCHAR
STARTCHAR AD76
ENCODING 44406
SWIDTH 900 0
DWIDTH 15 0
BBX 14 15 1 -2
BITMAP
7FF8
7FF8
0038
0038
0038
FFFC
FFFC
0300
7FF8
7DF8
0D98
7D98
6198
7FF8
7FF8
ENDCHAR
STARTCHAR AD77
ENCODING 44407
SWIDTH 900 0
DWIDTH 15 0
BBX 14 15 1 -2
BITMAP
7FF8
7FF8
0038
0038
0038
FFFC
FFFC
0300
7F98
7D98
0DF8
7DF8
6198
7DF8
7DF8
ENDCHAR
STARTCHAR AD78
ENCODING 44408
SWIDTH 900 0
DWIDTH 15 0
BBX 14 15 1 -2
BITMAP
7FF8
7FF8
0038
0038
0038
FFFC
FFFC
0300
7F60
7E60
0E60
7EF0
61F8
7FDC
7F88
ENDCHAR
STARTCHAR AD79
ENCODING 44409
SWIDTH 900 0
DWIDTH 15 0
BBX 14 15 1 -2
BITMAP
7FF8
7FF8
0038
0038
0038
FFFC
FFFC
0300
7FF8
7DF8
0D80
7DF8
6180
7FF8
7FF8
ENDCHAR
STARTCHAR AD7A
ENCODING 44410
SWIDTH 900 0
DWIDTH 15 0
BBX 14 15 1 -2
BITMAP
7FF8
7FF8
0038
0038
0038
FFFC
FFFC
0300
7FF8
7DF8
0CF8
7CF8
60F8
7FF8
7FF8
ENDCHAR
STARTCHAR AD7B
ENCODING 44411
SWIDTH 900 0
DWIDTH 15 0
BBX 14 16 1 -3
BITMAP
7FF8
7FF8
0038
0038
0038
FFFC
FFFC
0300
7F60
7DFC
0DFC
7D98
7D98
6198
7FF8
7EF0
ENDCHAR
STARTCHAR AD7C
ENCODING 44412
SWIDTH 900 0
DWIDTH 15 0
BBX 14 14 1 -2
BITMAP
7FF8
7FF8
0038
0038
0038
FFFC
FFFC
0300
7FF8
7FF8
6038
6038
7FF8
7FF8
ENDCHAR
STARTCHAR AD7D
ENCODING 44413
SWIDTH 900 0
DWIDTH 15 0
BBX 14 14 1 -2
BITMAP
7FF8
7FF8
0038
0038
0038
FFFC
FFFC
0300
6338
7FF8
7FF8
6038
7FF8
7FF8
ENDCHAR
STARTCHAR AD7E
ENCODING 44414
SWIDTH 900 0
DWIDTH 15 0
BBX 14 14 1 -2
BITMAP
7FF8
7FF8
0038
0038
0038
FFFC
FFFC
0300
6760
7E60
7E70
66F8
7FDC
7F88
ENDCHAR
STARTCHAR AD7F
ENCODING 44415
SWIDTH 900 0
DWIDTH 15 0
BBX 14 14 1 -2
BITMAP
7FF8
7FF8
0038
0038
0038
FFFC
FFFC
0300
0000
0700
0780
3FE0
FCFC
6018
ENDCHAR
STARTCHAR AD80
ENCODING 44416
SWIDTH 900 0
DWIDTH 15 0
BBX 15 14 0 -2
BITMAP
3FFC
3FFC
001C
001C
001C
FFFE
FFFE
0180
0DB0
1C30
1C70
3EFC
F7DE
6184
ENDCHAR
STARTCHAR AD81
ENCODING 44417
SWIDTH 900 0
DWIDTH 15 0
BBX 14 14 1 -2
BITMAP
7FF8
7FF8
0038
0038
0038
FFFC
FFFC
0300
3FF0
7FF8
E018
E018
7FF8
3FF0
ENDCHAR
STARTCHAR AD82
ENCODING 44418
SWIDTH 900 0
DWIDTH 15 0
BBX 14 15 1 -3
BITMAP
7FF8
7FF8
0038
0038
0038
FFFC
FFFC
0300
0000
7FF8
7FF8
0780
3FF0
F8F8
4008
ENDCHAR
STARTCHAR AD83
ENCODING 44419
SWIDTH 900 0
DWIDTH 15 0
BBX 14 15 1 -2
BITMAP
7FF8
7FF8
0038
0038
0038
FFFC
FFFC
0300
0000
0300
7FF8
7FF8
0780
FFF8
F878
ENDCHAR
STARTCHAR AD84
ENCODING 44420
SWIDTH 900 0
DWIDTH 15 0
BBX 14 14 1 -2
BITMAP
7FF8
7FF8
0038
0038
0038
FFFC
FFFC
0300
FFF8
FFF8
0038
7FF8
7FF8
0038
ENDCHAR
STARTCHAR AD85
ENCODING 44421
SWIDTH 900 0
DWIDTH 15 0
BBX 14 15 1 -2
BITMAP
7FF8
7FF8
0038
0038
0038
FFFC
FFFC
0700
7FF8
7FF8
6000
7FF0
6000
7FF8
7FF8
ENDCHAR
STARTCHAR AD86
ENCODING 44422
SWIDTH 900 0
DWIDTH 15 0
BBX 14 14 1 -2
BITMAP
7FF8
7FF8
0038
0038
0038
FFFC
FFFC
0300
7FF8
7FF8
18E0
18E0
FFF8
FFF8
ENDCHAR
STARTCHAR AD87
ENCODING 44423
SWIDTH 900 0
DWIDTH 15 0
BBX 14 16 1 -3
BITMAP
7FF8
7FF8
0038
0038
0038
FFFC
FFFC
0300
0000
0700
FFF8
FFF8
6030
6038
7FF0
3FE0
ENDCHAR
STARTCHAR AD88
ENCODING 44424
SWIDTH 900 0
DWIDTH 15 0
BBX 13 15 1 -2
BITMAP
0018
7F98
7F98
0198
0198
0198
0198
0018
FFD8
FFD8
1C18
1DF8
1DF8
1C18
1C18
ENDCHAR
ENDFONT
